<svg width="132" height="45" viewBox="0 0 132 45" fill="none" xmlns="http://www.w3.org/2000/svg">
<rect x="0.5" y="0.565979" width="131" height="43" rx="6.5" fill="black"/>
<rect x="0.5" y="0.565979" width="131" height="43" rx="6.5" stroke="#A6A6A6"/>
<path d="M89.6784 21.187V23.7071H88.0987V25.3598H89.6784V30.9753C89.6784 32.8928 90.5458 33.6598 92.7281 33.6598C93.1116 33.6598 93.4768 33.6141 93.7964 33.5593V31.9249C93.5224 31.9523 93.349 31.9705 93.0476 31.9705C92.0706 31.9705 91.6415 31.514 91.6415 30.4731V25.3598H93.7964V23.7071H91.6415V21.187H89.6784Z" fill="white"/>
<path d="M99.3556 33.7967C102.259 33.7967 104.04 31.8518 104.04 28.6286C104.04 25.4237 102.25 23.4697 99.3556 23.4697C96.452 23.4697 94.6623 25.4237 94.6623 28.6286C94.6623 31.8518 96.4429 33.7967 99.3556 33.7967ZM99.3556 32.0527C97.6481 32.0527 96.6894 30.8018 96.6894 28.6286C96.6894 26.4738 97.6481 25.2137 99.3556 25.2137C101.054 25.2137 102.022 26.4738 102.022 28.6286C102.022 30.7927 101.054 32.0527 99.3556 32.0527Z" fill="white"/>
<path d="M105.563 33.605H107.526V27.7338C107.526 26.3368 108.576 25.3963 110.065 25.3963C110.412 25.3963 110.996 25.4602 111.16 25.515V23.5793C110.95 23.5245 110.576 23.4971 110.284 23.4971C108.987 23.4971 107.882 24.2093 107.599 25.1863H107.453V23.6615H105.563V33.605Z" fill="white"/>
<path d="M116.035 25.1407C117.487 25.1407 118.436 26.1542 118.482 27.7156H113.46C113.569 26.1633 114.583 25.1407 116.035 25.1407ZM118.473 30.9205C118.107 31.6966 117.295 32.1258 116.108 32.1258C114.537 32.1258 113.524 31.0209 113.46 29.2769V29.1674H120.481V28.4826C120.481 25.3598 118.811 23.4697 116.044 23.4697C113.241 23.4697 111.46 25.4876 111.46 28.6652C111.46 31.8427 113.204 33.7967 116.053 33.7967C118.327 33.7967 119.915 32.701 120.363 30.9205H118.473Z" fill="white"/>
<path d="M76.8044 29.933C76.9558 32.3747 78.9906 33.9362 82.019 33.9362C85.2556 33.9362 87.2809 32.299 87.2809 29.6869C87.2809 27.6333 86.1263 26.4976 83.325 25.8446L81.8203 25.4755C80.041 25.0591 79.3218 24.5007 79.3218 23.5259C79.3218 22.2956 80.4385 21.4912 82.1136 21.4912C83.7036 21.4912 84.8014 22.2767 85.0001 23.5354H87.0632C86.9402 21.2357 84.9149 19.6174 82.142 19.6174C79.1609 19.6174 77.1735 21.2357 77.1735 23.6679C77.1735 25.6742 78.2997 26.8667 80.7698 27.444L82.53 27.8699C84.3376 28.2957 85.1326 28.9204 85.1326 29.9614C85.1326 31.1728 83.8834 32.0529 82.1799 32.0529C80.3534 32.0529 79.0852 31.2295 78.9054 29.933H76.8044Z" fill="white"/>
<path d="M56.4683 23.4971C55.117 23.4971 53.9482 24.1728 53.3456 25.305H53.1995V23.6615H51.3094V36.9103H53.2725V32.0984H53.4278C53.9482 33.1484 55.0713 33.7693 56.4866 33.7693C58.9976 33.7693 60.5955 31.7879 60.5955 28.6286C60.5955 25.4694 58.9976 23.4971 56.4683 23.4971ZM55.9114 32.0071C54.2678 32.0071 53.236 30.7105 53.236 28.6378C53.236 26.5559 54.2678 25.2594 55.9205 25.2594C57.5823 25.2594 58.5776 26.5286 58.5776 28.6286C58.5776 30.7379 57.5823 32.0071 55.9114 32.0071Z" fill="white"/>
<path d="M67.4648 23.4971C66.1134 23.4971 64.9447 24.1728 64.3421 25.305H64.196V23.6615H62.3059V36.9103H64.269V32.0984H64.4242C64.9447 33.1484 66.0678 33.7693 67.4831 33.7693C69.9941 33.7693 71.592 31.7879 71.592 28.6286C71.592 25.4694 69.9941 23.4971 67.4648 23.4971ZM66.9078 32.0071C65.2643 32.0071 64.2325 30.7105 64.2325 28.6378C64.2325 26.5559 65.2643 25.2594 66.917 25.2594C68.5788 25.2594 69.574 26.5286 69.574 28.6286C69.574 30.7379 68.5788 32.0071 66.9078 32.0071Z" fill="white"/>
<path d="M47.7872 33.605H50.0396L45.1089 19.9486H42.8281L37.8975 33.605H40.0742L41.3328 29.9803H46.538L47.7872 33.605ZM43.8597 22.4281H44.0206L45.9985 28.2011H41.8723L43.8597 22.4281Z" fill="white"/>
<path d="M39.2163 9.648V16.2359H41.5949C43.558 16.2359 44.6948 15.0261 44.6948 12.9214C44.6948 10.8487 43.5489 9.648 41.5949 9.648H39.2163ZM40.239 10.5793H41.4808C42.8458 10.5793 43.6539 11.4468 43.6539 12.9351C43.6539 14.4463 42.8595 15.3046 41.4808 15.3046H40.239V10.5793Z" fill="white"/>
<path d="M48.1764 16.3318C49.6282 16.3318 50.5185 15.3594 50.5185 13.7478C50.5185 12.1453 49.6237 11.1683 48.1764 11.1683C46.7246 11.1683 45.8298 12.1453 45.8298 13.7478C45.8298 15.3594 46.72 16.3318 48.1764 16.3318ZM48.1764 15.4598C47.3227 15.4598 46.8433 14.8343 46.8433 13.7478C46.8433 12.6703 47.3227 12.0403 48.1764 12.0403C49.0256 12.0403 49.5095 12.6703 49.5095 13.7478C49.5095 14.8298 49.0256 15.4598 48.1764 15.4598Z" fill="white"/>
<path d="M58.0998 11.2642H57.1183L56.2326 15.058H56.155L55.1323 11.2642H54.1918L53.1692 15.058H53.0961L52.2059 11.2642H51.2106L52.5802 16.2359H53.5892L54.6119 12.5744H54.6895L55.7167 16.2359H56.7348L58.0998 11.2642Z" fill="white"/>
<path d="M59.2302 16.2359H60.2118V13.3277C60.2118 12.5516 60.6729 12.0677 61.3988 12.0677C62.1247 12.0677 62.4717 12.4649 62.4717 13.2638V16.2359H63.4533V13.0173C63.4533 11.8348 62.8415 11.1683 61.7321 11.1683C60.9834 11.1683 60.4903 11.5016 60.2483 12.054H60.1753V11.2642H59.2302V16.2359Z" fill="white"/>
<path d="M64.9991 16.2359H65.9807V9.32385H64.9991V16.2359Z" fill="white"/>
<path d="M69.6723 16.3318C71.1241 16.3318 72.0144 15.3594 72.0144 13.7478C72.0144 12.1453 71.1195 11.1683 69.6723 11.1683C68.2205 11.1683 67.3257 12.1453 67.3257 13.7478C67.3257 15.3594 68.2159 16.3318 69.6723 16.3318ZM69.6723 15.4598C68.8186 15.4598 68.3392 14.8343 68.3392 13.7478C68.3392 12.6703 68.8186 12.0403 69.6723 12.0403C70.5215 12.0403 71.0054 12.6703 71.0054 13.7478C71.0054 14.8298 70.5215 15.4598 69.6723 15.4598Z" fill="white"/>
<path d="M74.939 15.4917C74.4048 15.4917 74.0168 15.2315 74.0168 14.7841C74.0168 14.3458 74.3272 14.113 75.012 14.0673L76.2264 13.9897V14.4052C76.2264 15.0215 75.6786 15.4917 74.939 15.4917ZM74.6879 16.3181C75.3407 16.3181 75.884 16.035 76.1808 15.5374H76.2584V16.2359H77.2034V12.8392C77.2034 11.7892 76.5003 11.1683 75.254 11.1683C74.1263 11.1683 73.3228 11.7161 73.2224 12.5699H74.172C74.2816 12.2183 74.6605 12.0175 75.2083 12.0175C75.8794 12.0175 76.2264 12.3142 76.2264 12.8392V13.2684L74.8796 13.346C73.6972 13.419 73.0306 13.9349 73.0306 14.8298C73.0306 15.7383 73.7291 16.3181 74.6879 16.3181Z" fill="white"/>
<path d="M80.5344 16.3181C81.2192 16.3181 81.799 15.9939 82.0957 15.4507H82.1734V16.2359H83.1138V9.32385H82.1323V12.054H82.0592C81.7899 11.5061 81.2146 11.182 80.5344 11.182C79.2789 11.182 78.4708 12.1772 78.4708 13.7478C78.4708 15.3228 79.2697 16.3181 80.5344 16.3181ZM80.8129 12.0631C81.6346 12.0631 82.1505 12.716 82.1505 13.7523C82.1505 14.7932 81.6392 15.437 80.8129 15.437C79.9819 15.437 79.4843 14.8024 79.4843 13.7478C79.4843 12.7023 79.9865 12.0631 80.8129 12.0631Z" fill="white"/>
<path d="M89.479 16.3318C90.9308 16.3318 91.821 15.3594 91.821 13.7478C91.821 12.1453 90.9262 11.1683 89.479 11.1683C88.0271 11.1683 87.1323 12.1453 87.1323 13.7478C87.1323 15.3594 88.0226 16.3318 89.479 16.3318ZM89.479 15.4598C88.6252 15.4598 88.1459 14.8343 88.1459 13.7478C88.1459 12.6703 88.6252 12.0403 89.479 12.0403C90.3281 12.0403 90.8121 12.6703 90.8121 13.7478C90.8121 14.8298 90.3281 15.4598 89.479 15.4598Z" fill="white"/>
<path d="M93.1203 16.2359H94.1019V13.3277C94.1019 12.5516 94.563 12.0677 95.2889 12.0677C96.0148 12.0677 96.3618 12.4649 96.3618 13.2638V16.2359H97.3434V13.0173C97.3434 11.8348 96.7316 11.1683 95.6222 11.1683C94.8735 11.1683 94.3804 11.5016 94.1384 12.054H94.0654V11.2642H93.1203V16.2359Z" fill="white"/>
<path d="M101.864 10.0269V11.287H101.074V12.1133H101.864V14.9211C101.864 15.8798 102.298 16.2633 103.389 16.2633C103.581 16.2633 103.763 16.2405 103.923 16.2131V15.3959C103.786 15.4096 103.699 15.4187 103.549 15.4187C103.06 15.4187 102.846 15.1904 102.846 14.67V12.1133H103.923V11.287H102.846V10.0269H101.864Z" fill="white"/>
<path d="M105.241 16.2359H106.222V13.3323C106.222 12.579 106.67 12.0722 107.473 12.0722C108.167 12.0722 108.537 12.474 108.537 13.2684V16.2359H109.518V13.0264C109.518 11.844 108.866 11.1729 107.806 11.1729C107.058 11.1729 106.533 11.5061 106.291 12.0631H106.213V9.32385H105.241V16.2359Z" fill="white"/>
<path d="M113.059 12.0038C113.785 12.0038 114.26 12.5105 114.283 13.2912H111.772C111.827 12.5151 112.333 12.0038 113.059 12.0038ZM114.278 14.8937C114.096 15.2817 113.689 15.4963 113.096 15.4963C112.311 15.4963 111.804 14.9439 111.772 14.0719V14.0171H115.283V13.6747C115.283 12.1133 114.447 11.1683 113.064 11.1683C111.662 11.1683 110.772 12.1772 110.772 13.766C110.772 15.3548 111.644 16.3318 113.069 16.3318C114.205 16.3318 115 15.7839 115.223 14.8937H114.278Z" fill="white"/>
<path d="M27.2458 22.3969C27.2696 20.5478 28.2627 18.7981 29.838 17.8296C28.8442 16.4103 27.1796 15.5104 25.4477 15.4562C23.6006 15.2623 21.8098 16.5615 20.8685 16.5615C19.909 16.5615 18.4598 15.4754 16.8992 15.5075C14.865 15.5733 12.9687 16.7298 11.979 18.5082C9.85158 22.1915 11.4384 27.6046 13.4763 30.5819C14.4959 32.0398 15.6875 33.6683 17.2467 33.6105C18.7725 33.5472 19.3423 32.6376 21.184 32.6376C23.0087 32.6376 23.5433 33.6105 25.1341 33.5738C26.7714 33.5472 27.8029 32.1094 28.7867 30.6378C29.5193 29.599 30.083 28.4509 30.457 27.236C28.5329 26.4222 27.248 24.486 27.2458 22.3969Z" fill="white"/>
<path d="M24.241 13.4982C25.1336 12.4266 25.5734 11.0492 25.4669 9.65851C24.1031 9.80175 22.8433 10.4536 21.9386 11.4841C21.0539 12.4909 20.5935 13.8441 20.6805 15.1816C22.0448 15.1957 23.386 14.5615 24.241 13.4982Z" fill="white"/>
</svg>
