<svg width="24" height="24" viewBox="0 0 24 24" fill="none" xmlns="http://www.w3.org/2000/svg">
<g clip-path="url(#clip0_3499_54872)">
<path opacity="0.5" d="M20.936 7.564C20.9296 6.8676 20.802 6.17764 20.559 5.525C20.3832 5.04791 20.1027 4.61632 19.738 4.262C19.3836 3.8977 18.952 3.6175 18.475 3.442C17.8219 3.20055 17.1323 3.0727 16.436 3.064C15.278 3.012 14.931 3 12 3C9.069 3 8.721 3.01 7.564 3.064C6.8676 3.07038 6.17764 3.19795 5.525 3.441C5.04791 3.61679 4.61632 3.89734 4.262 4.262C3.89758 4.61671 3.61736 5.04864 3.442 5.526C3.20066 6.1788 3.07281 6.86808 3.064 7.564C3.012 8.723 3 9.07 3 12.001C3 14.932 3.01 15.28 3.064 16.437C3.0707 17.1335 3.19861 17.8234 3.442 18.476C3.617 18.952 3.898 19.384 4.263 19.737C4.61722 20.102 5.04881 20.3829 5.526 20.559C6.178 20.801 6.868 20.929 7.564 20.936C8.721 20.99 9.07 21 12 21C14.93 21 15.28 20.99 16.436 20.936C17.1324 20.9296 17.8224 20.802 18.475 20.559C18.9484 20.3762 19.3783 20.0965 19.7372 19.7378C20.0961 19.3791 20.376 18.9493 20.559 18.476C20.8002 17.8225 20.9277 17.1325 20.936 16.436C20.99 15.28 21 14.932 21 12C21 9.068 20.99 8.722 20.936 7.564Z" fill="white"/>
<path d="M18.9518 6.74145C18.8035 6.35694 18.5763 6.00774 18.2849 5.71633C17.9935 5.42492 17.6443 5.19775 17.2598 5.04945C16.7295 4.85263 16.1693 4.74871 15.6038 4.74225C14.663 4.69905 14.3798 4.68945 12.0002 4.68945C9.62056 4.68945 9.33856 4.69905 8.40016 4.74225C7.83468 4.74832 7.27447 4.85184 6.74416 5.04825C5.96536 5.34825 5.35216 5.96265 5.05216 6.74025C4.85536 7.27185 4.75216 7.83225 4.74496 8.39625C4.70176 9.33705 4.69336 9.61905 4.69336 11.9999C4.69336 14.3807 4.70176 14.6639 4.74496 15.6035C4.75096 16.1687 4.85536 16.7291 5.05096 17.2595C5.19926 17.644 5.42642 17.9932 5.71783 18.2846C6.00925 18.576 6.35845 18.8032 6.74296 18.9515C7.27456 19.1471 7.83496 19.2515 8.39896 19.2575C9.33856 19.3007 9.62056 19.3091 12.0014 19.3091C14.3822 19.3091 14.6654 19.3007 15.605 19.2575C16.1705 19.251 16.7307 19.1471 17.261 18.9503C17.6455 18.802 17.9947 18.5748 18.2861 18.2834C18.5775 17.992 18.8047 17.6428 18.953 17.2583C19.1498 16.7291 19.253 16.1687 19.2602 15.6023C19.3034 14.6627 19.3118 14.3807 19.3118 11.9999C19.3118 9.61905 19.3034 9.33705 19.2602 8.39745C19.2537 7.8319 19.1498 7.27169 18.953 6.74145M12.0002 16.5779C11.399 16.5779 10.8037 16.4594 10.2482 16.2294C9.69281 15.9993 9.18813 15.6621 8.76302 15.237C8.33792 14.8119 8.00071 14.3072 7.77064 13.7518C7.54057 13.1963 7.42216 12.601 7.42216 11.9999C7.42216 11.3987 7.54057 10.8034 7.77064 10.2479C8.00071 9.6925 8.33792 9.18782 8.76302 8.76272C9.18813 8.33761 9.69281 8.0004 10.2482 7.77033C10.8037 7.54027 11.399 7.42185 12.0002 7.42185C13.2143 7.42185 14.3788 7.90418 15.2373 8.76272C16.0958 9.62126 16.5782 10.7857 16.5782 11.9999C16.5782 13.214 16.0958 14.3784 15.2373 15.237C14.3788 16.0955 13.2143 16.5779 12.0002 16.5779ZM16.7594 8.30985C16.4818 8.30056 16.2188 8.18377 16.0257 7.98416C15.8327 7.78455 15.7248 7.51774 15.7248 7.24005C15.7248 6.96237 15.8327 6.69555 16.0257 6.49594C16.2188 6.29633 16.4818 6.17955 16.7594 6.17025C17.0369 6.17874 17.3015 6.29477 17.4952 6.49384C17.6888 6.69292 17.7975 6.95945 17.7982 7.23715C17.799 7.51486 17.6918 7.78199 17.4993 7.98215C17.3068 8.1823 17.0441 8.29981 16.7666 8.30985H16.7594Z" fill="#98A2B3"/>
<path d="M12.0002 9.02783C11.4123 9.02783 10.8377 9.20216 10.3489 9.52877C9.86005 9.85538 9.47907 10.3196 9.25409 10.8627C9.02912 11.4059 8.97026 12.0035 9.08495 12.5801C9.19964 13.1567 9.48273 13.6863 9.89843 14.102C10.3141 14.5177 10.8438 14.8008 11.4203 14.9155C11.9969 15.0302 12.5946 14.9713 13.1377 14.7464C13.6809 14.5214 14.1451 14.1404 14.4717 13.6516C14.7983 13.1628 14.9726 12.5881 14.9726 12.0002C14.9726 11.2121 14.6596 10.4563 14.1025 9.89885C13.5453 9.34145 12.7896 9.02815 12.0014 9.02783" fill="#98A2B3"/>
<path d="M23.916 6.084C23.906 5.1561 23.7355 4.23693 23.412 3.3672C23.1765 2.73154 22.8022 2.15639 22.3164 1.6836C21.8436 1.1978 21.2685 0.823519 20.6328 0.588C19.7621 0.266645 18.8429 0.0961993 17.9148 0.0839999C16.3704 0.0167999 15.9084 0 12 0C8.094 0 7.6296 0.0143999 6.0864 0.0839999C5.15833 0.0961993 4.23914 0.266645 3.3684 0.588C2.73201 0.822054 2.15655 1.19653 1.6848 1.6836C1.199 2.15639 0.824718 2.73154 0.5892 3.3672C0.267845 4.23794 0.0973995 5.15713 0.0852001 6.0852C0.0168001 7.6296 0 8.0928 0 12.0012C0 15.9096 0.0144001 16.3728 0.0852001 17.916C0.0972001 18.8436 0.2664 19.764 0.5892 20.634C0.8232 21.27 1.1976 21.846 1.6836 22.3164C2.15639 22.8022 2.73154 23.1765 3.3672 23.412C4.23769 23.7358 5.15769 23.9063 6.0864 23.916C7.6284 23.9868 8.0928 24 12 24C15.9072 24 16.3716 23.9856 17.916 23.916C18.8439 23.906 19.7631 23.7355 20.6328 23.412C21.2643 23.1686 21.8378 22.7957 22.3165 22.3172C22.7951 21.8388 23.1683 21.2654 23.412 20.634C23.7336 19.7628 23.904 18.8436 23.916 17.916C23.9856 16.3716 24 15.9072 24 12C24 8.0916 23.9856 7.6296 23.916 6.084ZM20.862 15.6756C20.8486 16.4155 20.7086 17.1477 20.448 17.8404C20.2189 18.4327 19.8686 18.9705 19.4196 19.4196C18.9705 19.8686 18.4327 20.2189 17.8404 20.448C17.1475 20.7062 16.4161 20.8462 15.6768 20.862C14.7252 20.9064 14.4216 20.916 12 20.916C9.5784 20.916 9.276 20.9052 8.3244 20.862C7.5851 20.8462 6.85371 20.7062 6.1608 20.448C5.56832 20.219 5.03022 19.8688 4.58098 19.4198C4.13173 18.9707 3.78125 18.4328 3.552 17.8404C3.29364 17.1471 3.15369 16.4153 3.138 15.6756C3.096 14.7252 3.084 14.4216 3.084 12C3.084 9.5784 3.0948 9.2748 3.138 8.3244C3.15369 7.5847 3.29364 6.85289 3.552 6.1596C3.78125 5.56723 4.13173 5.02929 4.58098 4.58025C5.03022 4.13121 5.56832 3.78098 6.1608 3.552C6.85371 3.29377 7.5851 3.15382 8.3244 3.138C9.276 3.0936 9.5808 3.084 12.0012 3.084C14.4216 3.084 14.7252 3.0948 15.6768 3.138C16.4167 3.15137 17.1489 3.29139 17.8416 3.552C18.4336 3.78126 18.9713 4.13162 19.4201 4.58064C19.8689 5.02967 20.219 5.56746 20.448 6.1596C20.7084 6.8532 20.8476 7.584 20.862 8.3244C20.9052 9.2748 20.916 9.5784 20.916 12C20.916 14.4216 20.9052 14.724 20.862 15.6756Z" fill="#98A2B3"/>
</g>
<defs>
<clipPath id="clip0_3499_54872">
<rect width="24" height="24" fill="white"/>
</clipPath>
</defs>
</svg>
