<svg width="500" height="500" viewBox="0 0 500 500" fill="none" xmlns="http://www.w3.org/2000/svg">
<path d="M91.46 439.025C180.218 484.404 324.122 484.405 412.879 439.026C501.637 393.646 501.637 320.072 412.879 274.692C324.121 229.312 180.217 229.312 91.459 274.691C2.701 320.07 2.701 393.646 91.46 439.025Z" fill="#F5F5F5"/>
<path d="M148.527 388.865L100.608 361.39L163.751 325.877L148.819 389.371" fill="#E0E0E0"/>
<path d="M448.225 364.494C429.682 374.575 399.618 374.575 381.076 364.494C362.533 354.416 362.533 338.073 381.076 327.993C399.619 317.915 429.682 317.915 448.225 327.993C466.768 338.073 466.768 354.416 448.225 364.494Z" fill="#E0E0E0"/>
<path d="M237.617 364.252L280.287 388.887C283.12 390.522 287.713 390.522 290.545 388.887L376.521 339.25C379.354 337.615 379.354 334.963 376.521 333.327L333.851 308.691C331.018 307.056 326.425 307.055 323.593 308.691L237.617 358.329C234.785 359.965 234.785 362.616 237.617 364.252Z" fill="#E0E0E0"/>
<path d="M78.5176 345.412C77.8916 337.637 74.3326 324.866 65.2926 312.713C55.6176 299.708 43.8236 291.568 35.0606 295.375C26.8986 298.921 29.9936 310.184 44.0386 321.295C53.8936 329.092 64.1146 339.236 69.6066 351.488L78.5176 367.077V345.412Z" fill="#2E6F40"/>
<g opacity="0.1">
<path d="M78.5176 345.412C77.8916 337.637 74.3326 324.866 65.2926 312.713C55.6176 299.708 43.8236 291.568 35.0606 295.375C26.8986 298.921 29.9936 310.184 44.0386 321.295C53.8936 329.092 64.1146 339.236 69.6066 351.488L78.5176 367.077V345.412Z" fill="black"/>
</g>
<path d="M77.728 351.338C77.502 351.338 77.29 351.199 77.209 350.974C69.38 329.419 53.077 307.607 39.288 300.239C39.018 300.094 38.917 299.76 39.06 299.491C39.206 299.22 39.539 299.121 39.808 299.263C53.811 306.746 70.336 328.814 78.247 350.596C78.352 350.883 78.204 351.2 77.917 351.304C77.854 351.327 77.791 351.338 77.728 351.338Z" fill="white"/>
<path d="M77.7293 371.981C77.7293 371.981 71.9583 377.105 62.1303 378.661C52.3023 380.217 47.9643 375.517 47.9643 375.517C47.9643 375.517 51.8343 366.299 57.4153 363.713C57.4153 363.713 47.9533 365.641 40.3583 370.709C40.3583 370.709 34.3573 370.8 31.9683 361.641C31.9683 361.641 35.5243 356.129 47.4543 353.151C47.4543 353.151 40.1963 351.324 29.7373 353.992C28.9533 354.304 25.6093 342.461 24.5983 336.997C23.5873 331.533 25.7823 331.591 30.0423 330.454C34.3013 329.317 48.8063 328.602 51.4723 330.945C54.1393 333.288 55.4933 341.298 55.4933 341.298C55.4933 341.298 58.0433 336.765 57.4323 332.719C57.4323 332.719 61.7093 331.268 66.4943 332.936C71.2793 334.604 70.9753 336.936 70.9753 340.418C70.9753 344.141 70.6073 346.614 69.5423 350.786C69.5423 350.786 72.8463 347.927 72.9633 337.387C72.9633 337.387 79.4303 342.922 82.0273 347.679C84.6243 352.436 83.9663 364.882 77.7293 371.981Z" fill="#2E6F40"/>
<path d="M77.7279 372.533C77.5229 372.533 77.3249 372.418 77.2299 372.22C69.2989 355.743 39.8129 336.597 29.2509 334.543C28.9519 334.485 28.7559 334.194 28.8139 333.894C28.8719 333.594 29.1659 333.402 29.4629 333.457C40.1989 335.546 70.1699 355 78.2259 371.741C78.3589 372.016 78.2429 372.346 77.9679 372.478C77.8899 372.516 77.8089 372.533 77.7279 372.533Z" fill="white"/>
<path d="M75.6895 197.198V376.719L243.222 279.994V117.975L128.776 183.986L124.48 168.965L75.6895 197.198Z" fill="#37474F"/>
<path d="M75.6895 376.719L84.2804 219.08L251.812 122.355L243.222 279.994L75.6895 376.719Z" fill="#F0F0F0"/>
<path d="M75.6895 376.719L90.8575 223.47L258.389 126.745L243.222 279.994L75.6895 376.719Z" fill="#455A64"/>
<path d="M148.209 389.568C147.744 389.568 147.674 389.03 147.674 388.709V158.071C147.674 156.988 148.466 155.617 149.403 155.076L311.258 61.687C311.483 61.558 311.693 61.489 311.869 61.489C312.335 61.489 312.404 62.027 312.404 62.348V292.986C312.404 294.069 311.612 295.441 310.674 295.981L148.819 389.37C148.595 389.5 148.384 389.568 148.209 389.568Z" fill="#FAFAFA"/>
<path d="M311.792 62.086C311.807 62.142 311.821 62.229 311.821 62.349V292.986C311.821 293.855 311.136 295.042 310.383 295.476L148.528 388.865C148.42 388.927 148.339 388.957 148.286 388.972C148.271 388.916 148.257 388.829 148.257 388.709V158.071C148.257 157.202 148.942 156.015 149.695 155.581L311.55 62.192C311.658 62.13 311.738 62.1 311.792 62.086ZM311.869 60.906C311.597 60.906 311.291 60.995 310.966 61.182L149.111 154.571C147.995 155.215 147.09 156.783 147.09 158.072V388.71C147.09 389.624 147.545 390.153 148.208 390.153C148.48 390.153 148.786 390.064 149.111 389.877L310.966 296.488C312.082 295.843 312.987 294.276 312.987 292.987V62.348C312.987 61.434 312.532 60.905 311.869 60.906Z" fill="#E6E6E6"/>
<path d="M161.31 163.947L208.71 136.581V191.313L161.311 218.679L161.31 163.947Z" fill="#2E6F40"/>
<path d="M201.6 150.264V166.684L200.115 167.513C200.115 167.513 200.115 165.261 200.115 162.483C200.115 159.705 197.853 158.759 195.062 160.37L174.958 171.977C172.167 173.588 169.905 177.146 169.905 179.924V184.954L168.42 185.84V169.42L201.6 150.264Z" fill="#FAFAFA"/>
<path d="M192.457 192.112C190.025 193.516 188.054 192.042 188.054 188.82V162.483L181.966 165.797V192.335C181.966 195.557 179.995 199.307 177.563 200.711L173.16 203.253V204.996L196.86 191.313V189.57C196.86 189.57 194.889 190.708 192.457 192.112Z" fill="#FAFAFA"/>
<path d="M218.189 133.845C218.189 135.356 219.547 135.798 221.221 134.831L295.735 91.868C297.409 90.901 298.767 88.892 298.767 87.381C298.767 85.87 297.41 85.428 295.735 86.395L221.22 129.358C219.546 130.325 218.189 132.333 218.189 133.845Z" fill="#E0E0E0"/>
<path d="M218.189 150.264C218.189 151.775 219.547 152.217 221.221 151.25L295.735 108.287C297.409 107.32 298.767 105.311 298.767 103.8C298.767 102.289 297.41 101.847 295.735 102.814L221.22 145.777C219.546 146.744 218.189 148.753 218.189 150.264Z" fill="#E0E0E0"/>
<path d="M218.189 166.684C218.189 168.195 219.547 168.637 221.221 167.67L295.735 124.707C297.409 123.74 298.767 121.731 298.767 120.22C298.767 118.708 297.41 118.267 295.735 119.234L221.22 162.198C219.546 163.164 218.189 165.173 218.189 166.684Z" fill="#E0E0E0"/>
<path d="M218.189 183.104C218.189 184.616 219.547 185.057 221.221 184.09L295.735 141.127C297.409 140.16 298.767 138.151 298.767 136.64C298.767 135.129 297.41 134.687 295.735 135.654L221.22 178.617C219.546 179.583 218.189 181.592 218.189 183.104Z" fill="#E0E0E0"/>
<path d="M161.31 232.368C161.31 233.879 162.668 234.321 164.342 233.354L295.736 157.547C297.41 156.58 298.768 154.571 298.768 153.06C298.768 151.549 297.411 151.107 295.736 152.074L164.342 227.88C162.668 228.847 161.31 230.856 161.31 232.368Z" fill="#E0E0E0"/>
<path d="M161.31 248.787C161.31 250.298 162.668 250.74 164.342 249.773L295.736 173.966C297.41 172.999 298.768 170.99 298.768 169.479C298.768 167.968 297.411 167.526 295.736 168.493L164.342 244.3C162.668 245.267 161.31 247.276 161.31 248.787Z" fill="#E0E0E0"/>
<path d="M161.31 265.207C161.31 266.718 162.668 267.16 164.342 266.193L295.736 190.386C297.41 189.419 298.768 187.41 298.768 185.899C298.768 184.388 297.411 183.946 295.736 184.913L164.342 260.72C162.668 261.686 161.31 263.695 161.31 265.207Z" fill="#E0E0E0"/>
<path d="M161.31 281.623C161.31 283.134 162.668 283.576 164.342 282.609L295.736 206.802C297.41 205.835 298.768 203.826 298.768 202.315C298.768 200.803 297.411 200.362 295.736 201.329L164.342 277.136C162.668 278.103 161.31 280.112 161.31 281.623Z" fill="#E0E0E0"/>
<path d="M161.31 298.04C161.31 299.551 162.668 299.993 164.342 299.026L295.736 223.219C297.41 222.252 298.768 220.243 298.768 218.732C298.768 217.221 297.411 216.779 295.736 217.746L164.342 293.553C162.668 294.52 161.31 296.529 161.31 298.04Z" fill="#E0E0E0"/>
<path d="M161.31 314.457C161.31 315.969 162.668 316.41 164.342 315.443L295.736 239.636C297.41 238.669 298.768 236.66 298.768 235.149C298.768 233.638 297.411 233.196 295.736 234.163L164.342 309.97C162.668 310.936 161.31 312.945 161.31 314.457Z" fill="#E0E0E0"/>
<path d="M161.31 330.873C161.31 332.385 162.668 332.826 164.342 331.859L295.736 256.052C297.41 255.085 298.768 253.076 298.768 251.565C298.768 250.053 297.411 249.612 295.736 250.579L164.342 326.386C162.668 327.353 161.31 329.362 161.31 330.873Z" fill="#E0E0E0"/>
<path d="M161.31 347.29C161.31 348.802 162.668 349.243 164.342 348.276L295.736 272.469C297.41 271.502 298.768 269.493 298.768 267.982C298.768 266.471 297.411 266.029 295.736 266.996L164.342 342.803C162.668 343.77 161.31 345.779 161.31 347.29Z" fill="#E0E0E0"/>
<path d="M161.31 363.707C161.31 365.219 162.668 365.66 164.342 364.693L295.736 288.886C297.41 287.919 298.768 285.91 298.768 284.399C298.768 282.888 297.411 282.446 295.736 283.413L164.342 359.22C162.668 360.186 161.31 362.195 161.31 363.707Z" fill="#E0E0E0"/>
<path d="M363.67 245.456C363.67 235.882 368.467 229.002 368.467 229.002V219.714C368.467 218.51 368.069 217.646 367.421 217.193C367.33 217.129 367.234 217.074 367.133 217.027L336.952 199.597C336.944 199.592 336.936 199.587 336.927 199.583L336.896 199.565L336.895 199.568C336.167 199.172 335.176 199.24 334.081 199.872L310.33 213.584C308.098 214.873 306.504 218.005 306.401 220.58C306.13 227.383 303.904 239.97 291.897 246.903C279.807 253.883 277.633 243.682 277.386 237.198C277.288 234.622 275.695 233.58 273.463 234.869L249.712 248.581C247.48 249.87 245.67 253.005 245.67 255.582V264.87C245.67 264.87 250.467 266.212 250.467 275.785C250.467 285.359 243.053 302.741 243.053 326.848C243.053 338.919 246.881 349.004 254.918 353.634L254.917 353.636L285.108 371.057L285.112 371.053C293.124 375.766 305.368 375.011 322.239 365.271C355.818 345.884 371.082 312.065 371.082 287.958C371.085 263.851 363.67 255.03 363.67 245.456Z" fill="#2E6F40"/>
<path d="M334.081 199.869L310.333 213.582C308.102 214.87 306.505 218.007 306.403 220.583C306.151 226.847 304.246 238.03 294.548 245.162L276.279 234.613L276.186 234.557C275.505 234.165 274.562 234.23 273.47 234.865L249.712 248.578C249.385 248.765 249.077 248.989 248.778 249.25C248.031 249.876 247.368 250.688 246.855 251.593C246.127 252.863 245.669 254.291 245.669 255.579V264.867C245.688 264.876 246.985 265.623 246.985 265.623C248.422 266.79 250.467 269.525 250.467 275.779C250.467 285.357 243.055 302.739 243.055 326.842C243.055 338.912 246.882 349.003 254.92 353.634L285.038 371.007C277.15 366.321 273.397 356.314 273.397 344.355C273.397 320.252 280.809 302.87 280.809 293.292C280.809 283.714 276.011 282.379 276.011 282.379V273.091C276.011 271.803 276.459 270.374 277.196 269.105C277.924 267.835 278.942 266.734 280.053 266.09L303.811 252.377C304.857 251.77 305.762 251.677 306.434 252.022L306.527 252.069C307.246 252.48 307.675 253.385 307.731 254.701C307.973 261.189 310.149 271.392 322.238 264.41C334.246 257.477 336.473 244.89 336.745 238.089C336.848 235.513 338.442 232.382 340.674 231.093L364.422 217.38C365.467 216.773 366.42 216.689 367.129 217.025L336.955 199.596C336.172 199.169 335.173 199.243 334.081 199.869Z" fill="#2E6F40"/>
<path opacity="0.1" d="M246.985 265.625L247.004 265.634C247.01 265.639 247.017 265.646 247.023 265.651L276.011 282.381V273.093C276.011 271.805 276.459 270.376 277.196 269.107L277.197 269.106L246.852 251.597C246.125 252.865 245.669 254.291 245.668 255.577V264.868L245.687 264.877L246.985 265.625Z" fill="black"/>
<path opacity="0.4" d="M294.547 245.163L276.278 234.614L276.185 234.558C275.504 234.166 274.561 234.231 273.469 234.866L249.711 248.579C249.384 248.766 249.076 248.99 248.777 249.251C248.03 249.877 247.367 250.689 246.854 251.594L277.196 269.107C277.924 267.837 278.942 266.736 280.053 266.092L303.811 252.379C304.857 251.772 305.762 251.679 306.434 252.024L294.547 245.163Z" fill="white"/>
<path opacity="0.4" d="M367.129 217.027L336.955 199.598C336.171 199.169 335.172 199.243 334.08 199.869L310.332 213.582C309.217 214.226 308.261 215.331 307.57 216.597L337.914 234.105C338.604 232.841 339.559 231.738 340.674 231.095L364.422 217.382C365.468 216.775 366.42 216.691 367.129 217.027Z" fill="white"/>
<path opacity="0.1" d="M337.911 234.101C337.22 235.361 336.8 236.799 336.744 238.087C336.473 244.892 334.242 257.476 322.237 264.412C310.148 271.395 307.973 261.191 307.73 254.703C307.674 253.387 307.244 252.481 306.526 252.071L306.433 252.024L294.546 245.163C304.245 238.031 306.149 226.848 306.401 220.584C306.448 219.296 306.877 217.868 307.568 216.598L337.911 234.101Z" fill="black"/>
<path opacity="0.2" d="M285.038 371.009L254.92 353.636C246.882 349.006 243.055 338.915 243.055 326.844C243.055 302.741 250.467 285.359 250.467 275.781C250.467 269.582 248.46 266.838 247.022 265.652L276.011 282.381C276.011 282.381 280.809 283.716 280.809 293.294C280.809 302.872 273.397 320.254 273.397 344.357C273.397 356.315 277.15 366.323 285.038 371.009Z" fill="black"/>
<path d="M329.13 329.74L316.134 337.243L318.148 313.733C316.593 312.911 315.603 310.889 315.603 307.985C315.603 302.808 318.75 296.795 322.633 294.553C326.515 292.312 329.662 294.691 329.662 299.868C329.662 302.772 328.671 305.938 327.117 308.555L329.13 329.74Z" fill="#455A64"/>
<path d="M329.13 329.74L317.359 322.944L316.134 337.243L329.13 329.74Z" fill="#37474F"/>
<path d="M322.633 294.553C320.093 296.02 317.874 299.103 316.638 302.508L327.117 308.558V308.555C328.672 305.938 329.662 302.772 329.662 299.868C329.662 294.692 326.515 292.312 322.633 294.553Z" fill="#37474F"/>
<path d="M337.316 157.872C330.894 154.165 322.814 154.579 315.148 159.005L286.816 175.363C274.538 182.452 265.279 198.488 265.279 212.666V250.912C265.279 252.496 266.336 254.081 268.43 255.29C272.618 257.708 279.41 257.708 283.598 255.29C285.692 254.081 286.749 252.496 286.75 250.912V212.666C286.75 206.138 291.899 197.221 297.552 193.958L325.884 177.6C325.906 177.588 325.928 177.575 325.95 177.563C325.95 177.588 325.95 177.613 325.95 177.638V215.884C325.95 217.469 327.007 219.053 329.101 220.262C333.29 222.68 340.08 222.68 344.269 220.262C346.363 219.053 347.42 217.468 347.42 215.883V177.637C347.42 168.782 343.737 161.579 337.316 157.872Z" fill="#37474F"/>
<path d="M325.949 177.636V215.882C325.949 217.467 327.006 219.051 329.1 220.26C330.04 220.802 331.114 221.216 332.257 221.516V173.919L325.948 177.561C325.949 177.586 325.949 177.611 325.949 177.636Z" fill="#263238"/>
<path d="M454.218 217.73C452.555 217.251 451.23 216.313 448.835 215.826C446.726 215.397 445.864 215.183 444.202 214.062C442.4 212.847 438.873 207.651 436.081 202.467C432.787 196.351 430.807 187.582 430.485 183.706C429.83 175.838 428.013 165.311 427.539 160.761C426.784 153.497 424.622 149.764 416.227 150.272C416.227 150.272 418.48 152.828 417.827 159.391C417.174 165.954 419.07 177.389 420.494 186.268C421.184 190.571 423.433 196.475 427.636 204.351C430.572 209.853 433.228 214.486 437.32 219.192C438.435 220.475 438.945 221.702 440.784 224.398C441.525 225.485 442.305 226.701 443.336 227.515C444.646 228.55 446.079 229.441 447.632 230.062C449.588 230.844 451.744 231.187 453.824 230.855C454.968 230.672 456.094 230.28 457.031 229.599C457.968 228.918 458.707 227.932 458.974 226.804C459.028 226.575 459.063 226.333 458.996 226.107C458.876 225.7 458.471 225.457 458.098 225.255C456.014 224.123 453.598 223.214 451.654 221.875C450.011 220.743 449.007 219.717 449.394 219.619C449.782 219.521 450.701 220.253 452.427 220.472C454.076 220.68 455.819 219.903 455.863 218.968C455.906 218.033 455.88 218.209 454.218 217.73Z" fill="#9A4A4D"/>
<path d="M415.662 149.774C418.693 149.575 425.121 148.766 427.063 154.861C429.006 160.956 431.234 183.709 431.836 186.599C432.438 189.488 434.024 195.127 435.786 199.445C437.548 203.762 442.657 212.574 442.657 212.574L436.338 218.032C436.338 218.032 427.415 207.682 422.834 196.691C418.252 185.7 416.82 171.514 416.611 163.056C416.402 154.597 415.662 149.774 415.662 149.774Z" fill="#2DC874"/>
<path opacity="0.1" d="M415.662 149.774C418.693 149.575 425.121 148.766 427.063 154.861C429.006 160.956 431.234 183.709 431.836 186.599C432.438 189.488 434.024 195.127 435.786 199.445C437.548 203.762 442.657 212.574 442.657 212.574L436.338 218.032C436.338 218.032 427.415 207.682 422.834 196.691C418.252 185.7 416.82 171.514 416.611 163.056C416.402 154.597 415.662 149.774 415.662 149.774Z" fill="black"/>
<path d="M421.345 335.15L430.253 335.457L430.699 319.309L421.791 319.003L421.345 335.15Z" fill="#9A4A4D"/>
<path d="M388.014 346.235H396.927V330.976H388.014V346.235Z" fill="#9A4A4D"/>
<path d="M396.927 341.836V340.561C397.78 340.932 399.761 348.493 403.298 351.719C406.11 354.283 409.945 357.245 410.92 360.104C411.935 363.077 405.579 364.719 402.952 364.254C399.9 363.714 394.61 361.564 393.282 359.572C391.954 357.58 391.333 354.641 390.253 353.181C389.174 351.721 386.687 350.091 386.103 348.401C385.782 347.473 386.163 345.44 386.613 343.722C387.026 342.146 387.474 340.413 388.012 340.561C388.014 340.753 388.012 341.533 388.012 341.533C388.659 342.25 390.449 342.962 392.468 343.039C393.774 343.089 396.938 342.83 396.927 341.836Z" fill="#263238"/>
<path d="M430.347 332.708C430.81 332.724 431.187 333.377 432.207 334.482C433.441 335.817 435.459 337.258 437.45 338.255C440.788 339.926 447.276 342.496 450.213 343.819C452.048 344.645 451.962 346.862 450.065 348.123C448.168 349.384 443.59 350.293 438.092 349.063C435.097 348.393 431.198 345.627 428.731 345.776C426.263 345.925 421.646 345.89 419.824 344.634C418.002 343.379 418.731 340.697 419.246 338.393C419.808 335.878 420.612 332.031 421.444 332.202L421.417 332.993C422.489 334.616 427.944 335.278 430.298 334.084L430.347 332.708Z" fill="#263238"/>
<path d="M391.823 204.57C384.854 218.907 391.731 272.987 391.731 272.987C391.477 275.334 388.682 279.899 387.441 290.225C385.975 302.426 387.243 333.786 387.243 333.786C387.243 333.786 393.061 336.371 397.799 334.232C397.799 334.232 406.171 287.689 407.985 275.566C409.568 264.986 412.676 241.714 412.676 241.714L419.195 275.767C419.195 275.767 417.184 281.668 416.64 286.186C415.782 293.322 420.899 326.602 420.899 326.602C420.899 326.602 425.262 328.761 430.929 327.269C430.929 327.269 433.965 283.104 434.81 274.503C436.229 260.06 432.038 214.885 430.561 205.434L391.823 204.57Z" fill="#263238"/>
<path d="M401.135 150.089C398.892 150.353 393.687 151.258 393.687 151.258C390.241 152.524 390.613 154.645 389.665 157.954C388.491 162.051 389.259 169.37 390.651 173.398L397.325 192.707C394.832 198.734 392.429 200.495 391.231 205.083C402.141 213.167 425.592 212.69 430.628 205.868C430.841 204.421 428.918 187.805 428.121 180.416C431.524 174.254 432.819 169.827 431.039 165.104C427.989 157.014 419.632 149.452 415.663 149.774L401.135 150.089Z" fill="#2DC874"/>
<path d="M407.921 143.14H404.627C395.046 143.14 387.278 135.373 387.278 125.791C387.278 116.158 395.087 108.349 404.72 108.349H407.826C417.459 108.349 425.268 116.158 425.268 125.791C425.269 135.373 417.502 143.14 407.921 143.14Z" fill="#263238"/>
<path d="M378.393 151.124C384.3 151.124 389.089 146.335 389.089 140.428V117.524C383.182 117.524 378.393 122.313 378.393 128.22V151.124Z" fill="#263238"/>
<path d="M419.585 114.683C421.679 115.92 424.267 121.187 424.011 132.226C423.795 141.583 420.762 143.894 419.239 144.56C417.716 145.226 414.779 144.821 411.924 144.345V149.96L411.35 156.552L400.171 151.442V137.868C400.171 137.868 398.243 140.442 395.091 138.348C391.938 136.254 391.818 131.072 393.651 129.211C395.484 127.35 399.435 127.94 400.171 130.51C400.171 130.51 401.446 127.82 407.991 125.579C414.878 123.222 417.173 119.079 419.585 114.683Z" fill="#B16668"/>
<path d="M412.518 129.875C412.552 130.549 412.053 131.121 411.404 131.152C410.755 131.183 410.201 130.661 410.167 129.987C410.133 129.313 410.632 128.741 411.281 128.71C411.93 128.68 412.484 129.201 412.518 129.875Z" fill="#263238"/>
<path d="M413.879 137.807L416.612 138.679C416.385 139.461 415.59 139.9 414.835 139.659C414.08 139.418 413.653 138.589 413.879 137.807Z" fill="#9A4A4D"/>
<path d="M422.164 126.262L419.783 124.612C420.217 123.932 421.103 123.75 421.76 124.206C422.418 124.662 422.598 125.583 422.164 126.262Z" fill="#263238"/>
<path d="M421.615 129.025C421.649 129.699 421.15 130.271 420.501 130.301C419.852 130.332 419.298 129.81 419.264 129.136C419.23 128.462 419.729 127.89 420.378 127.859C421.027 127.829 421.581 128.35 421.615 129.025Z" fill="#263238"/>
<path d="M415.868 128.351L416.055 135.434L419.783 134.279L415.868 128.351Z" fill="#9A4A4D"/>
<path d="M411.925 144.345C408.916 143.95 402.725 142.172 401.761 139.725C401.761 139.725 402.083 141.263 403.932 142.848C405.781 144.433 411.926 146.218 411.926 146.218V144.345H411.925Z" fill="#9A4A4D"/>
<path d="M412.677 241.714L416.075 225.204C416.075 225.204 423.179 224.006 426.948 221.32C426.948 221.32 423.994 225.228 418.895 227.127L414.997 242.705L415.969 258.912L412.677 241.714Z" fill="black"/>
<path d="M399.944 119.722C399.944 119.722 413.375 128.872 422.72 124.301C432.065 119.729 419.958 113.347 419.958 113.347L399.944 119.722Z" fill="#37474F"/>
<path d="M419.861 100.535C411.86 98.305 403.189 96.863 393.109 100.52C383.029 104.176 380.834 110.425 380.834 110.425C380.834 110.425 391.086 114.478 399.437 113.107C407.788 111.735 419.861 100.535 419.861 100.535Z" fill="#2E6F40"/>
<path opacity="0.4" d="M419.861 100.535C411.86 98.305 403.189 96.863 393.109 100.52C383.029 104.176 380.834 110.425 380.834 110.425C380.834 110.425 391.086 114.478 399.437 113.107C407.788 111.735 419.861 100.535 419.861 100.535Z" fill="white"/>
<path d="M386.443 114.21C386.443 114.21 381.305 111.771 380.834 110.425C380.834 110.425 386.094 111.255 392.764 109.649C399.434 108.043 406.371 101.564 413.884 100.423C421.397 99.282 424.594 103.106 424.594 103.106C424.594 103.106 422.928 108.455 420.332 111.693C420.332 111.693 418.009 116.759 409.166 117.93C400.323 119.101 386.443 114.21 386.443 114.21Z" fill="#2E6F40"/>
<path d="M386.443 114.21L386.863 115.667C387.122 116.566 387.956 117.587 388.829 117.934C391.847 119.133 399.475 121.78 409.381 119.948C415.589 118.8 418.39 117.206 419.508 116.005C420.604 114.827 420.679 114 420.545 113.108L420.333 111.692C420.333 111.692 418.413 114.367 408.26 116.355C398.105 118.343 386.443 114.21 386.443 114.21Z" fill="#455A64"/>
<path d="M414.662 103.412C414.583 104.982 412.926 107.858 410.735 106.503C410.735 106.503 410.735 108.836 410.738 110.449C410.742 112.905 412.184 113.745 414.515 113.258C417.029 112.732 418.499 110.706 418.578 108.261C418.602 107.514 418.579 104.863 418.579 104.863C416.856 107.234 414.627 104.015 414.662 103.412Z" fill="#FAFAFA"/>
<path d="M400.172 132.927V127.615H402.236V130.862C402.236 132.003 401.312 132.927 400.172 132.927Z" fill="#263238"/>
<path d="M411.351 156.552L400.173 148.404L400.17 146.372C400.17 146.372 397.822 146.766 397.248 151.253C398.813 154.873 401.587 157.909 405.754 160.273L408.061 156.178L411.351 156.552Z" fill="#2E6F40"/>
<path opacity="0.1" d="M411.351 156.552L400.173 148.404L400.17 146.372C400.17 146.372 397.822 146.766 397.248 151.253C398.813 154.873 401.587 157.909 405.754 160.273L408.061 156.178L411.351 156.552Z" fill="black"/>
<path d="M411.925 146.863C411.925 146.863 414.471 147.245 415.573 149.053C416.672 150.858 416.421 157.759 416.421 157.759L413.495 154.424L411.352 156.552C411.586 154.252 411.919 149.962 411.919 149.962L411.925 146.863Z" fill="#2E6F40"/>
<path opacity="0.1" d="M411.925 146.863C411.925 146.863 414.471 147.245 415.573 149.053C416.672 150.858 416.421 157.759 416.421 157.759L413.495 154.424L411.352 156.552C411.586 154.252 411.919 149.962 411.919 149.962L411.925 146.863Z" fill="black"/>
<path d="M402.719 228.795C401.329 227.765 400.415 226.422 398.343 225.127C396.518 223.987 395.784 223.485 394.62 221.853C393.357 220.084 391.872 213.982 391.07 208.149C390.124 201.267 391.175 191.932 391.656 188.073C392.643 180.158 395.042 170.547 396.156 166.11C396.24 165.775 394.443 155.714 392.456 154.128C392.456 154.128 390.188 153.814 387.28 159.734C384.372 165.653 382.943 178.725 382.137 187.521C381.739 191.861 381.319 198.111 382.5 206.959C383.325 213.14 384.192 218.41 386.378 224.25C386.974 225.842 387.022 227.17 387.801 230.339C388.115 231.617 388.42 233.028 389.101 234.152C389.966 235.579 390.997 236.915 392.234 238.041C393.792 239.458 395.692 240.534 397.757 240.951C398.893 241.18 400.084 241.206 401.201 240.896C402.318 240.586 403.354 239.921 403.999 238.958C404.13 238.763 404.247 238.548 404.263 238.313C404.293 237.89 403.999 237.52 403.72 237.2C402.164 235.411 400.219 233.714 398.866 231.778C397.723 230.143 397.141 228.83 397.538 228.873C397.935 228.917 398.54 229.925 400.081 230.733C401.553 231.505 403.457 231.386 403.826 230.527C404.195 229.669 404.109 229.825 402.719 228.795Z" fill="#9A4A4D"/>
<path d="M393.534 151.278C393.534 151.278 398.55 161.37 396.297 170.324C394.249 178.462 393.096 188.883 392.649 191.8C392.202 194.717 391.714 200.555 391.854 205.216C391.994 209.877 393.697 219.92 393.697 219.92L385.867 222.822C385.867 222.822 381.13 210.004 380.684 198.104C380.238 186.205 381.383 172.08 383.315 163.842C384.159 160.245 385.16 152.707 393.534 151.278Z" fill="#2DC874"/>
<path opacity="0.1" d="M393.534 151.278C393.534 151.278 398.55 161.37 396.297 170.324C394.249 178.462 393.096 188.883 392.649 191.8C392.202 194.717 391.714 200.555 391.854 205.216C391.994 209.877 393.697 219.92 393.697 219.92L385.867 222.822C385.867 222.822 381.13 210.004 380.684 198.104C380.238 186.205 381.383 172.08 383.315 163.842C384.159 160.245 385.16 152.707 393.534 151.278Z" fill="black"/>
<path d="M401.574 168.447C401.574 168.447 409.038 168.145 412.109 166.951V165.455C409.038 166.648 401.574 166.951 401.574 166.951V168.447Z" fill="#37474F"/>
<path d="M385.278 162.952C385.278 162.952 387.627 162.134 390.871 163.958L390.948 163.627C391.029 163.277 390.851 162.92 390.527 162.763C388.433 161.741 386.775 161.809 385.987 161.935C385.686 161.983 385.448 162.216 385.379 162.512L385.278 162.952Z" fill="#37474F"/>
<path d="M389.448 167.574C389.059 169.318 387.681 170.496 386.371 170.204C385.06 169.912 384.313 168.261 384.702 166.516C385.091 164.771 386.469 163.594 387.779 163.886C389.089 164.178 389.836 165.829 389.448 167.574Z" fill="#37474F"/>
</svg>
