<svg width="500" height="500" viewBox="0 0 500 500" fill="none" xmlns="http://www.w3.org/2000/svg">
<path d="M66.6751 186.465C66.6751 186.465 50.6251 255.047 95.3301 314.801C140.035 374.555 217.963 397.776 280.6 418.252C343.237 438.729 401.909 415.087 423.916 362.447C445.923 309.807 401.47 281.45 391.668 212.695C381.866 143.94 389.69 124.14 343.968 71.791C298.246 19.442 204.419 20.69 140.984 74.438C77.5491 128.185 66.6751 186.465 66.6751 186.465Z" fill="#2E6F40"/>
<path opacity="0.7" d="M66.6751 186.465C66.6751 186.465 50.6251 255.047 95.3301 314.801C140.035 374.555 217.963 397.776 280.6 418.252C343.237 438.729 401.909 415.087 423.916 362.447C445.923 309.807 401.47 281.45 391.668 212.695C381.866 143.94 389.69 124.14 343.968 71.791C298.246 19.442 204.419 20.69 140.984 74.438C77.5491 128.185 66.6751 186.465 66.6751 186.465Z" fill="white"/>
<path d="M399.363 450.305C399.363 453.236 328.991 455.612 242.182 455.612C155.373 455.612 85.001 453.236 85.001 450.305C85.001 447.374 155.373 444.998 242.182 444.998C328.99 444.998 399.363 447.374 399.363 450.305Z" fill="#2E6F40"/>
<path opacity="0.6" d="M399.363 450.305C399.363 453.236 328.991 455.612 242.182 455.612C155.373 455.612 85.001 453.236 85.001 450.305C85.001 447.374 155.373 444.998 242.182 444.998C328.99 444.998 399.363 447.374 399.363 450.305Z" fill="white"/>
<path d="M130.618 284.779C130.561 284.785 131.315 281.051 131.389 280.821C132.253 278.158 135.487 273.518 138.622 273.524C140.881 273.528 142.411 275.584 142.188 277.74C141.961 279.942 139.983 281.819 138.194 282.903C136.095 284.174 130.623 284.778 130.618 284.779Z" fill="#2E6F40"/>
<path d="M124.547 259.663C127.498 260.722 128.966 266.183 128.874 268.982C128.866 269.224 128.307 272.992 128.255 272.967C128.255 272.967 128.207 272.943 128.195 272.937C128.433 273.797 128.679 274.722 128.927 275.739C129.37 277.619 129.853 279.748 130.223 282.1C130.599 284.449 130.941 287.013 131.057 289.745C131.178 292.484 131.165 295.371 130.767 298.344C130.763 298.377 130.753 298.412 130.749 298.446C131.136 297.613 132.294 295.318 132.403 295.152C133.939 292.811 138.283 289.19 141.307 290.024C143.485 290.625 144.417 293.012 143.633 295.032C142.832 297.096 140.429 298.384 138.418 298.956C136.15 299.602 131.093 298.839 130.69 298.777C130.285 301.605 129.639 304.474 128.827 307.341C128.364 308.981 127.847 310.618 127.307 312.253C127.664 311.543 127.989 310.911 128.044 310.828C129.58 308.487 133.924 304.867 136.947 305.7C139.125 306.3 140.058 308.687 139.274 310.708C138.474 312.772 136.07 314.06 134.059 314.633C132.018 315.214 127.693 314.65 126.551 314.485C126.337 315.11 126.131 315.737 125.915 316.361C124.88 319.356 123.833 322.341 122.896 325.3C122.565 326.342 122.278 327.381 121.987 328.42C122.305 327.79 122.578 327.262 122.628 327.186C124.164 324.845 128.508 321.224 131.531 322.058C133.709 322.658 134.642 325.046 133.858 327.067C133.058 329.13 130.654 330.419 128.643 330.991C126.695 331.545 122.699 331.061 121.34 330.872C121.074 331.944 120.806 333.018 120.596 334.069C120.469 334.79 120.297 335.475 120.21 336.207C120.109 336.929 120.008 337.644 119.909 338.352C119.768 339.723 119.613 341.136 119.509 342.476C119.429 343.408 119.371 344.297 119.309 345.193C119.626 344.151 120.289 342.125 120.364 341.962C121.137 340.27 123.052 337.838 125.163 336.499C125.276 336.249 125.41 336.009 125.568 335.783C126.811 334.008 129.314 333.456 131.024 334.932C133.398 336.981 132.805 342.605 131.713 345.183C131.649 345.335 130.766 346.907 130.192 347.89C130.617 347.364 131.023 346.848 131.468 346.311C132.339 345.244 133.239 344.205 134.204 343.083C134.689 342.558 135.179 342.027 135.673 341.492C136.152 340.95 136.727 340.439 137.257 339.904C138.512 338.692 139.842 337.524 141.208 336.377C140.276 335.612 137.003 332.848 136.062 330.969C135.125 329.1 134.451 326.457 135.432 324.473C136.392 322.53 138.782 321.605 140.696 322.805C143.353 324.47 143.619 330.12 142.93 332.834C142.887 333.003 142.174 334.895 141.762 335.927C142.589 335.244 143.41 334.558 144.269 333.895C146.748 331.979 149.316 330.116 151.87 328.247C152.653 327.675 153.425 327.095 154.202 326.518C153.867 326.249 149.907 323.048 148.853 320.944C147.916 319.074 147.242 316.432 148.223 314.448C149.183 312.505 151.573 311.58 153.487 312.78C156.144 314.446 156.409 320.095 155.721 322.809C155.669 323.013 154.639 325.734 154.344 326.413C156.052 325.141 157.743 323.858 159.359 322.525C161.591 320.689 163.679 318.765 165.564 316.75C165.408 316.625 161.259 313.303 160.179 311.148C159.242 309.278 158.568 306.636 159.549 304.651C160.509 302.708 162.899 301.783 164.813 302.983C167.47 304.649 167.735 310.298 167.047 313.012C167.002 313.19 166.219 315.266 165.824 316.243C165.907 316.295 165.892 316.286 165.975 316.338C167.969 314.156 169.625 311.791 171.066 309.501C171.903 308.176 172.63 306.863 173.307 305.57C172.471 305.031 168.677 302.522 167.491 300.69C166.355 298.935 165.395 296.382 166.151 294.302C166.892 292.265 169.166 291.083 171.2 292.066C174.024 293.43 174.908 299.015 174.522 301.789C174.501 301.94 174.118 303.449 173.824 304.545C174.121 303.957 174.438 303.355 174.711 302.785C175.743 300.65 176.555 298.631 177.261 296.837C177.654 295.814 177.989 294.881 178.293 294.005C177.749 293.047 175.604 289.161 175.399 287.028C175.199 284.946 175.524 282.239 177.154 280.741C178.75 279.275 181.313 279.274 182.666 281.083C184.543 283.595 182.754 288.959 181.134 291.243C180.994 291.44 178.449 294.275 178.42 294.225C178.42 294.225 178.393 294.178 178.387 294.167C178.111 295.016 177.806 295.923 177.452 296.908C176.784 298.721 176.013 300.763 175.024 302.929C174.041 305.096 172.913 307.423 171.503 309.766C170.093 312.117 168.489 314.518 166.517 316.778C166.495 316.804 166.468 316.827 166.446 316.853C167.228 316.371 169.46 315.097 169.642 315.019C172.215 313.914 177.835 313.291 179.897 315.653C181.382 317.356 180.843 319.861 179.075 321.114C177.269 322.394 174.554 322.142 172.56 321.51C170.312 320.797 166.514 317.371 166.213 317.097C164.315 319.232 162.194 321.269 159.934 323.212C158.643 324.324 157.308 325.405 155.957 326.471C156.647 326.076 157.266 325.728 157.358 325.689C159.931 324.584 165.552 323.961 167.613 326.324C169.098 328.026 168.559 330.532 166.791 331.785C164.985 333.065 162.27 332.813 160.276 332.181C158.253 331.539 154.957 328.684 154.095 327.916C153.572 328.32 153.055 328.728 152.53 329.13C150.014 331.057 147.494 332.969 145.081 334.92C144.23 335.607 143.417 336.315 142.601 337.02C143.214 336.67 143.733 336.38 143.817 336.344C146.39 335.239 152.01 334.616 154.072 336.978C155.557 338.68 155.018 341.186 153.249 342.439C151.443 343.718 148.728 343.467 146.734 342.835C144.804 342.223 141.738 339.614 140.709 338.707C139.896 339.455 139.079 340.202 138.325 340.963C137.822 341.495 137.3 341.971 136.824 342.533C136.341 343.079 135.863 343.62 135.389 344.156C134.515 345.221 133.606 346.315 132.78 347.375C132.199 348.108 131.66 348.817 131.114 349.53C131.953 348.836 133.624 347.512 133.776 347.417C136.152 345.935 141.613 344.467 144.009 346.491C145.735 347.949 145.582 350.507 144.023 352.013C142.431 353.551 139.71 353.714 137.643 353.392C135.368 353.036 131.25 350.354 130.738 350.016C129.839 351.199 128.976 352.358 128.179 353.465C125.408 357.295 123.245 360.591 121.766 362.915C121.713 362.998 121.666 363.072 121.616 363.152L119.697 362.221C119.796 362.071 119.893 361.925 119.999 361.765C121.547 359.446 123.802 356.167 126.685 352.36C127.593 351.155 128.587 349.886 129.62 348.592C129.354 348.301 127.851 346.637 126.643 344.906C124.44 345.769 119.853 345.803 119.26 345.804C119.163 347.287 119.083 348.729 119.029 350.092C118.831 354.816 118.845 358.758 118.893 361.512C118.895 361.625 118.897 361.725 118.9 361.834L116.791 360.811C116.812 358.074 116.895 354.372 117.174 349.996C117.266 348.49 117.395 346.883 117.543 345.234C116.958 345.087 112.188 343.862 110.387 342.423C108.753 341.118 107.034 339.001 107.093 336.788C107.151 334.621 108.934 332.78 111.174 333.068C114.284 333.467 116.892 338.486 117.404 341.238C117.434 341.4 117.565 343.199 117.629 344.335C117.693 343.662 117.747 343.007 117.822 342.314C117.96 340.944 118.138 339.58 118.324 338.112C118.439 337.406 118.554 336.694 118.672 335.974C118.773 335.258 118.97 334.514 119.117 333.776C119.495 332.073 119.96 330.365 120.467 328.655C119.267 328.531 115.013 328.031 113.192 326.984C111.379 325.941 109.359 324.109 109.083 321.913C108.812 319.763 110.295 317.672 112.554 317.617C115.689 317.541 119.027 322.106 119.95 324.749C120.008 324.914 120.457 326.885 120.683 327.973C120.996 326.947 121.302 325.922 121.653 324.895C122.663 321.929 123.778 318.959 124.877 315.991C125.214 315.082 125.539 314.172 125.868 313.263C125.441 313.224 120.371 312.738 118.332 311.565C116.519 310.523 114.5 308.69 114.223 306.494C113.952 304.344 115.435 302.253 117.694 302.199C120.829 302.123 124.167 306.688 125.09 309.331C125.159 309.53 125.802 312.367 125.93 313.097C126.653 311.093 127.356 309.09 127.968 307.088C128.817 304.326 129.496 301.568 129.958 298.849C129.759 298.831 124.466 298.349 122.376 297.147C120.563 296.104 118.543 294.272 118.267 292.076C117.996 289.926 119.479 287.836 121.738 287.781C124.873 287.705 128.211 292.27 129.134 294.913C129.195 295.086 129.686 297.247 129.896 298.281C129.994 298.278 129.976 298.279 130.075 298.276C130.534 295.357 130.61 292.471 130.549 289.766C130.517 288.199 130.398 286.703 130.25 285.251C129.255 285.262 124.707 285.263 122.707 284.389C120.791 283.552 118.582 281.953 118.065 279.8C117.559 277.692 118.804 275.452 121.043 275.149C124.15 274.729 127.969 278.9 129.177 281.426C129.243 281.563 129.756 283.034 130.115 284.11C130.038 283.456 129.971 282.778 129.885 282.153C129.567 279.803 129.132 277.671 128.731 275.786C128.494 274.716 128.259 273.753 128.029 272.854C127.047 272.355 123.114 270.297 121.766 268.631C120.451 267.005 119.228 264.568 119.762 262.42C120.284 260.314 122.421 258.899 124.547 259.663Z" fill="#2E6F40"/>
<path d="M181.232 307.996C178.779 307.898 173.881 305.383 173.877 305.382C173.826 305.356 176.514 302.657 176.703 302.506C178.893 300.761 184.149 298.676 186.762 300.41C188.644 301.66 188.786 304.219 187.411 305.894C186.007 307.604 183.321 308.079 181.232 307.996Z" fill="#2E6F40"/>
<g opacity="0.5">
<path d="M130.618 284.779C130.561 284.785 131.315 281.051 131.389 280.821C132.253 278.158 135.487 273.518 138.622 273.524C140.881 273.528 142.411 275.584 142.188 277.74C141.961 279.942 139.983 281.819 138.194 282.903C136.095 284.174 130.623 284.778 130.618 284.779Z" fill="white"/>
<path d="M124.547 259.663C127.498 260.722 128.966 266.183 128.874 268.982C128.866 269.224 128.307 272.992 128.255 272.967C128.255 272.967 128.207 272.943 128.195 272.937C128.433 273.797 128.679 274.722 128.927 275.739C129.37 277.619 129.853 279.748 130.223 282.1C130.599 284.449 130.941 287.013 131.057 289.745C131.178 292.484 131.165 295.371 130.767 298.344C130.763 298.377 130.753 298.412 130.749 298.446C131.136 297.613 132.294 295.318 132.403 295.152C133.939 292.811 138.283 289.19 141.307 290.024C143.485 290.625 144.417 293.012 143.633 295.032C142.832 297.096 140.429 298.384 138.418 298.956C136.15 299.602 131.093 298.839 130.69 298.777C130.285 301.605 129.639 304.474 128.827 307.341C128.364 308.981 127.847 310.618 127.307 312.253C127.664 311.543 127.989 310.911 128.044 310.828C129.58 308.487 133.924 304.867 136.947 305.7C139.125 306.3 140.058 308.687 139.274 310.708C138.474 312.772 136.07 314.06 134.059 314.633C132.018 315.214 127.693 314.65 126.551 314.485C126.337 315.11 126.131 315.737 125.915 316.361C124.88 319.356 123.833 322.341 122.896 325.3C122.565 326.342 122.278 327.381 121.987 328.42C122.305 327.79 122.578 327.262 122.628 327.186C124.164 324.845 128.508 321.224 131.531 322.058C133.709 322.658 134.642 325.046 133.858 327.067C133.058 329.13 130.654 330.419 128.643 330.991C126.695 331.545 122.699 331.061 121.34 330.872C121.074 331.944 120.806 333.018 120.596 334.069C120.469 334.79 120.297 335.475 120.21 336.207C120.109 336.929 120.008 337.644 119.909 338.352C119.768 339.723 119.613 341.136 119.509 342.476C119.429 343.408 119.371 344.297 119.309 345.193C119.626 344.151 120.289 342.125 120.364 341.962C121.137 340.27 123.052 337.838 125.163 336.499C125.276 336.249 125.41 336.009 125.568 335.783C126.811 334.008 129.314 333.456 131.024 334.932C133.398 336.981 132.805 342.605 131.713 345.183C131.649 345.335 130.766 346.907 130.192 347.89C130.617 347.364 131.023 346.848 131.468 346.311C132.339 345.244 133.239 344.205 134.204 343.083C134.689 342.558 135.179 342.027 135.673 341.492C136.152 340.95 136.727 340.439 137.257 339.904C138.512 338.692 139.842 337.524 141.208 336.377C140.276 335.612 137.003 332.848 136.062 330.969C135.125 329.1 134.451 326.457 135.432 324.473C136.392 322.53 138.782 321.605 140.696 322.805C143.353 324.47 143.619 330.12 142.93 332.834C142.887 333.003 142.174 334.895 141.762 335.927C142.589 335.244 143.41 334.558 144.269 333.895C146.748 331.979 149.316 330.116 151.87 328.247C152.653 327.675 153.425 327.095 154.202 326.518C153.867 326.249 149.907 323.048 148.853 320.944C147.916 319.074 147.242 316.432 148.223 314.448C149.183 312.505 151.573 311.58 153.487 312.78C156.144 314.446 156.409 320.095 155.721 322.809C155.669 323.013 154.639 325.734 154.344 326.413C156.052 325.141 157.743 323.858 159.359 322.525C161.591 320.689 163.679 318.765 165.564 316.75C165.408 316.625 161.259 313.303 160.179 311.148C159.242 309.278 158.568 306.636 159.549 304.651C160.509 302.708 162.899 301.783 164.813 302.983C167.47 304.649 167.735 310.298 167.047 313.012C167.002 313.19 166.219 315.266 165.824 316.243C165.907 316.295 165.892 316.286 165.975 316.338C167.969 314.156 169.625 311.791 171.066 309.501C171.903 308.176 172.63 306.863 173.307 305.57C172.471 305.031 168.677 302.522 167.491 300.69C166.355 298.935 165.395 296.382 166.151 294.302C166.892 292.265 169.166 291.083 171.2 292.066C174.024 293.43 174.908 299.015 174.522 301.789C174.501 301.94 174.118 303.449 173.824 304.545C174.121 303.957 174.438 303.355 174.711 302.785C175.743 300.65 176.555 298.631 177.261 296.837C177.654 295.814 177.989 294.881 178.293 294.005C177.749 293.047 175.604 289.161 175.399 287.028C175.199 284.946 175.524 282.239 177.154 280.741C178.75 279.275 181.313 279.274 182.666 281.083C184.543 283.595 182.754 288.959 181.134 291.243C180.994 291.44 178.449 294.275 178.42 294.225C178.42 294.225 178.393 294.178 178.387 294.167C178.111 295.016 177.806 295.923 177.452 296.908C176.784 298.721 176.013 300.763 175.024 302.929C174.041 305.096 172.913 307.423 171.503 309.766C170.093 312.117 168.489 314.518 166.517 316.778C166.495 316.804 166.468 316.827 166.446 316.853C167.228 316.371 169.46 315.097 169.642 315.019C172.215 313.914 177.835 313.291 179.897 315.653C181.382 317.356 180.843 319.861 179.075 321.114C177.269 322.394 174.554 322.142 172.56 321.51C170.312 320.797 166.514 317.371 166.213 317.097C164.315 319.232 162.194 321.269 159.934 323.212C158.643 324.324 157.308 325.405 155.957 326.471C156.647 326.076 157.266 325.728 157.358 325.689C159.931 324.584 165.552 323.961 167.613 326.324C169.098 328.026 168.559 330.532 166.791 331.785C164.985 333.065 162.27 332.813 160.276 332.181C158.253 331.539 154.957 328.684 154.095 327.916C153.572 328.32 153.055 328.728 152.53 329.13C150.014 331.057 147.494 332.969 145.081 334.92C144.23 335.607 143.417 336.315 142.601 337.02C143.214 336.67 143.733 336.38 143.817 336.344C146.39 335.239 152.01 334.616 154.072 336.978C155.557 338.68 155.018 341.186 153.249 342.439C151.443 343.718 148.728 343.467 146.734 342.835C144.804 342.223 141.738 339.614 140.709 338.707C139.896 339.455 139.079 340.202 138.325 340.963C137.822 341.495 137.3 341.971 136.824 342.533C136.341 343.079 135.863 343.62 135.389 344.156C134.515 345.221 133.606 346.315 132.78 347.375C132.199 348.108 131.66 348.817 131.114 349.53C131.953 348.836 133.624 347.512 133.776 347.417C136.152 345.935 141.613 344.467 144.009 346.491C145.735 347.949 145.582 350.507 144.023 352.013C142.431 353.551 139.71 353.714 137.643 353.392C135.368 353.036 131.25 350.354 130.738 350.016C129.839 351.199 128.976 352.358 128.179 353.465C125.408 357.295 123.245 360.591 121.766 362.915C121.713 362.998 121.666 363.072 121.616 363.152L119.697 362.221C119.796 362.071 119.893 361.925 119.999 361.765C121.547 359.446 123.802 356.167 126.685 352.36C127.593 351.155 128.587 349.886 129.62 348.592C129.354 348.301 127.851 346.637 126.643 344.906C124.44 345.769 119.853 345.803 119.26 345.804C119.163 347.287 119.083 348.729 119.029 350.092C118.831 354.816 118.845 358.758 118.893 361.512C118.895 361.625 118.897 361.725 118.9 361.834L116.791 360.811C116.812 358.074 116.895 354.372 117.174 349.996C117.266 348.49 117.395 346.883 117.543 345.234C116.958 345.087 112.188 343.862 110.387 342.423C108.753 341.118 107.034 339.001 107.093 336.788C107.151 334.621 108.934 332.78 111.174 333.068C114.284 333.467 116.892 338.486 117.404 341.238C117.434 341.4 117.565 343.199 117.629 344.335C117.693 343.662 117.747 343.007 117.822 342.314C117.96 340.944 118.138 339.58 118.324 338.112C118.439 337.406 118.554 336.694 118.672 335.974C118.773 335.258 118.97 334.514 119.117 333.776C119.495 332.073 119.96 330.365 120.467 328.655C119.267 328.531 115.013 328.031 113.192 326.984C111.379 325.941 109.359 324.109 109.083 321.913C108.812 319.763 110.295 317.672 112.554 317.617C115.689 317.541 119.027 322.106 119.95 324.749C120.008 324.914 120.457 326.885 120.683 327.973C120.996 326.947 121.302 325.922 121.653 324.895C122.663 321.929 123.778 318.959 124.877 315.991C125.214 315.082 125.539 314.172 125.868 313.263C125.441 313.224 120.371 312.738 118.332 311.565C116.519 310.523 114.5 308.69 114.223 306.494C113.952 304.344 115.435 302.253 117.694 302.199C120.829 302.123 124.167 306.688 125.09 309.331C125.159 309.53 125.802 312.367 125.93 313.097C126.653 311.093 127.356 309.09 127.968 307.088C128.817 304.326 129.496 301.568 129.958 298.849C129.759 298.831 124.466 298.349 122.376 297.147C120.563 296.104 118.543 294.272 118.267 292.076C117.996 289.926 119.479 287.836 121.738 287.781C124.873 287.705 128.211 292.27 129.134 294.913C129.195 295.086 129.686 297.247 129.896 298.281C129.994 298.278 129.976 298.279 130.075 298.276C130.534 295.357 130.61 292.471 130.549 289.766C130.517 288.199 130.398 286.703 130.25 285.251C129.255 285.262 124.707 285.263 122.707 284.389C120.791 283.552 118.582 281.953 118.065 279.8C117.559 277.692 118.804 275.452 121.043 275.149C124.15 274.729 127.969 278.9 129.177 281.426C129.243 281.563 129.756 283.034 130.115 284.11C130.038 283.456 129.971 282.778 129.885 282.153C129.567 279.803 129.132 277.671 128.731 275.786C128.494 274.716 128.259 273.753 128.029 272.854C127.047 272.355 123.114 270.297 121.766 268.631C120.451 267.005 119.228 264.568 119.762 262.42C120.284 260.314 122.421 258.899 124.547 259.663Z" fill="white"/>
<path d="M181.232 307.996C178.779 307.898 173.881 305.383 173.877 305.382C173.826 305.356 176.514 302.657 176.703 302.506C178.893 300.761 184.149 298.676 186.762 300.41C188.644 301.66 188.786 304.219 187.411 305.894C186.007 307.604 183.321 308.079 181.232 307.996Z" fill="white"/>
</g>
<path d="M152.62 369.352C152.62 369.352 137.755 333.51 129.43 335.068C121.105 336.626 143.701 392.208 143.701 392.208C143.701 392.208 117.538 342.86 99.7 342.86C81.862 342.86 106.241 397.403 128.836 415.583C128.836 415.583 93.159 377.143 72.347 385.455C51.535 393.766 113.97 432.725 113.97 432.725C113.97 432.725 77.699 421.297 81.861 430.128C86.023 438.959 97.321 440.517 97.321 440.517L56.293 442.595H199L166.891 439.478C166.891 439.478 200.189 422.856 191.27 416.103C182.351 409.35 162.728 423.895 162.728 423.895C162.728 423.895 196.621 386.494 190.08 372.469C183.539 358.444 154.403 397.922 154.403 397.922C154.403 397.922 178.188 347.535 173.431 338.705C168.675 329.874 152.62 369.352 152.62 369.352Z" fill="#2E6F40"/>
<path opacity="0.4" d="M152.62 369.352C152.62 369.352 137.755 333.51 129.43 335.068C121.105 336.626 143.701 392.208 143.701 392.208C143.701 392.208 117.538 342.86 99.7 342.86C81.862 342.86 106.241 397.403 128.836 415.583C128.836 415.583 93.159 377.143 72.347 385.455C51.535 393.766 113.97 432.725 113.97 432.725C113.97 432.725 77.699 421.297 81.861 430.128C86.023 438.959 97.321 440.517 97.321 440.517L56.293 442.595H199L166.891 439.478C166.891 439.478 200.189 422.856 191.27 416.103C182.351 409.35 162.728 423.895 162.728 423.895C162.728 423.895 196.621 386.494 190.08 372.469C183.539 358.444 154.403 397.922 154.403 397.922C154.403 397.922 178.188 347.535 173.431 338.705C168.675 329.874 152.62 369.352 152.62 369.352Z" fill="white"/>
<path d="M157.377 371.241C144.296 409.891 144.296 437.244 144.296 437.244C144.296 437.244 159.756 437.838 175.811 425.946" stroke="#263238" stroke-miterlimit="10" stroke-linecap="round" stroke-linejoin="round"/>
<path d="M150.836 392.053C150.836 392.053 147.863 377.782 140.133 358.16" stroke="#263238" stroke-miterlimit="10" stroke-linecap="round" stroke-linejoin="round"/>
<path d="M112.186 369.457L145.484 418.81C145.484 418.81 168.079 399.782 175.809 389.079" stroke="#263238" stroke-miterlimit="10" stroke-linecap="round" stroke-linejoin="round"/>
<path d="M144.89 430.703C144.89 430.703 109.808 414.054 95.5371 404.54" stroke="#263238" stroke-miterlimit="10" stroke-linecap="round" stroke-linejoin="round"/>
<path d="M170.857 63L162.708 50H90.9482V63V67.68V284H386.308V63H170.857Z" fill="#263238"/>
<path d="M384.363 68.964H93.144V279.289H384.363V68.964Z" fill="white"/>
<mask id="mask0_4034_132798" style="mask-type:luminance" maskUnits="userSpaceOnUse" x="93" y="68" width="292" height="212">
<path d="M384.363 68.964H93.144V279.289H384.363V68.964Z" fill="white"/>
</mask>
<g mask="url(#mask0_4034_132798)">
<path opacity="0.17" d="M385.788 67.16H379.028V280.88H385.788V67.16Z" fill="black"/>
</g>
<mask id="mask1_4034_132798" style="mask-type:luminance" maskUnits="userSpaceOnUse" x="93" y="68" width="292" height="212">
<path d="M384.363 68.964H93.144V279.289H384.363V68.964Z" fill="white"/>
</mask>
<g mask="url(#mask1_4034_132798)">
<path opacity="0.17" d="M385.788 196.38H379.028V279.146H385.788V196.38Z" fill="black"/>
</g>
<mask id="mask2_4034_132798" style="mask-type:luminance" maskUnits="userSpaceOnUse" x="93" y="68" width="292" height="212">
<path d="M384.363 68.964H93.144V279.289H384.363V68.964Z" fill="white"/>
</mask>
<g mask="url(#mask2_4034_132798)">
<path d="M384.748 66.12H91.9883V77.56H384.748V66.12Z" fill="#2E6F40" stroke="#263238" stroke-miterlimit="10"/>
</g>
<path d="M384.363 68.964H93.144V279.289H384.363V68.964Z" stroke="#263238" stroke-miterlimit="10" stroke-linecap="round" stroke-linejoin="round"/>
<g opacity="0.17">
<path d="M244.874 88.59H224.501C223.508 88.59 222.703 87.785 222.703 86.792C222.703 85.799 223.508 84.994 224.501 84.994H244.874C245.867 84.994 246.672 85.799 246.672 86.792C246.672 87.785 245.867 88.59 244.874 88.59Z" fill="black"/>
<path d="M285.621 88.59H265.247C264.254 88.59 263.449 87.785 263.449 86.792C263.449 85.799 264.254 84.994 265.247 84.994H285.621C286.614 84.994 287.419 85.799 287.419 86.792C287.419 87.785 286.614 88.59 285.621 88.59Z" fill="black"/>
<path d="M326.368 88.59H305.995C305.002 88.59 304.197 87.785 304.197 86.792C304.197 85.799 305.002 84.994 305.995 84.994H326.368C327.361 84.994 328.166 85.799 328.166 86.792C328.165 87.785 327.361 88.59 326.368 88.59Z" fill="black"/>
<path d="M367.115 88.59H346.742C345.749 88.59 344.944 87.785 344.944 86.792C344.944 85.799 345.749 84.994 346.742 84.994H367.115C368.108 84.994 368.913 85.799 368.913 86.792C368.912 87.785 368.107 88.59 367.115 88.59Z" fill="black"/>
</g>
<path d="M219.442 166.488H231.387" stroke="#263238" stroke-miterlimit="10" stroke-linecap="round" stroke-linejoin="round"/>
<path d="M151.011 166.488H212.238" stroke="#263238" stroke-miterlimit="10" stroke-linecap="round" stroke-linejoin="round"/>
<path d="M103.748 166.488H144.529" stroke="#263238" stroke-miterlimit="10" stroke-linecap="round" stroke-linejoin="round"/>
<path d="M181.265 173.924H231.387" stroke="#263238" stroke-miterlimit="10" stroke-linecap="round" stroke-linejoin="round"/>
<path d="M153.893 173.924H173.341" stroke="#263238" stroke-miterlimit="10" stroke-linecap="round" stroke-linejoin="round"/>
<path d="M103.748 173.924H145.249" stroke="#263238" stroke-miterlimit="10" stroke-linecap="round" stroke-linejoin="round"/>
<path d="M130.842 181.361H231.387" stroke="#263238" stroke-miterlimit="10" stroke-linecap="round" stroke-linejoin="round"/>
<path d="M103.748 181.361H121.478" stroke="#263238" stroke-miterlimit="10" stroke-linecap="round" stroke-linejoin="round"/>
<path d="M206.476 188.798H231.387" stroke="#263238" stroke-miterlimit="10" stroke-linecap="round" stroke-linejoin="round"/>
<path d="M158.935 188.798H197.832" stroke="#263238" stroke-miterlimit="10" stroke-linecap="round" stroke-linejoin="round"/>
<path d="M103.748 188.798H151.011" stroke="#263238" stroke-miterlimit="10" stroke-linecap="round" stroke-linejoin="round"/>
<path d="M145.249 196.235H231.387" stroke="#263238" stroke-miterlimit="10" stroke-linecap="round" stroke-linejoin="round"/>
<path d="M103.748 196.235H137.325" stroke="#263238" stroke-miterlimit="10" stroke-linecap="round" stroke-linejoin="round"/>
<path d="M362.162 166.488H374.349" stroke="#263238" stroke-miterlimit="10" stroke-linecap="round" stroke-linejoin="round"/>
<path d="M292.349 166.488H354.813" stroke="#263238" stroke-miterlimit="10" stroke-linecap="round" stroke-linejoin="round"/>
<path d="M244.129 166.488H285.734" stroke="#263238" stroke-miterlimit="10" stroke-linecap="round" stroke-linejoin="round"/>
<path d="M323.212 173.924H374.348" stroke="#263238" stroke-miterlimit="10" stroke-linecap="round" stroke-linejoin="round"/>
<path d="M295.288 173.924H315.13" stroke="#263238" stroke-miterlimit="10" stroke-linecap="round" stroke-linejoin="round"/>
<path d="M244.129 173.924H286.469" stroke="#263238" stroke-miterlimit="10" stroke-linecap="round" stroke-linejoin="round"/>
<path d="M271.771 181.361H374.348" stroke="#263238" stroke-miterlimit="10" stroke-linecap="round" stroke-linejoin="round"/>
<path d="M244.129 181.361H262.218" stroke="#263238" stroke-miterlimit="10" stroke-linecap="round" stroke-linejoin="round"/>
<path d="M348.934 188.798H374.349" stroke="#263238" stroke-miterlimit="10" stroke-linecap="round" stroke-linejoin="round"/>
<path d="M300.432 188.798H340.116" stroke="#263238" stroke-miterlimit="10" stroke-linecap="round" stroke-linejoin="round"/>
<path d="M244.129 188.798H292.348" stroke="#263238" stroke-miterlimit="10" stroke-linecap="round" stroke-linejoin="round"/>
<path d="M286.469 196.235H374.348" stroke="#263238" stroke-miterlimit="10" stroke-linecap="round" stroke-linejoin="round"/>
<path d="M244.129 196.235H278.385" stroke="#263238" stroke-miterlimit="10" stroke-linecap="round" stroke-linejoin="round"/>
<path d="M219.442 203.349H231.387" stroke="#263238" stroke-miterlimit="10" stroke-linecap="round" stroke-linejoin="round"/>
<path d="M151.011 203.349H212.238" stroke="#263238" stroke-miterlimit="10" stroke-linecap="round" stroke-linejoin="round"/>
<path d="M103.748 203.349H144.529" stroke="#263238" stroke-miterlimit="10" stroke-linecap="round" stroke-linejoin="round"/>
<path d="M181.265 210.786H231.387" stroke="#263238" stroke-miterlimit="10" stroke-linecap="round" stroke-linejoin="round"/>
<path d="M153.893 210.786H173.341" stroke="#263238" stroke-miterlimit="10" stroke-linecap="round" stroke-linejoin="round"/>
<path d="M103.748 210.786H145.249" stroke="#263238" stroke-miterlimit="10" stroke-linecap="round" stroke-linejoin="round"/>
<path d="M130.842 218.222H231.387" stroke="#263238" stroke-miterlimit="10" stroke-linecap="round" stroke-linejoin="round"/>
<path d="M103.748 218.222H121.478" stroke="#263238" stroke-miterlimit="10" stroke-linecap="round" stroke-linejoin="round"/>
<path d="M206.476 225.659H231.387" stroke="#263238" stroke-miterlimit="10" stroke-linecap="round" stroke-linejoin="round"/>
<path d="M158.935 225.659H197.832" stroke="#263238" stroke-miterlimit="10" stroke-linecap="round" stroke-linejoin="round"/>
<path d="M103.748 225.659H151.011" stroke="#263238" stroke-miterlimit="10" stroke-linecap="round" stroke-linejoin="round"/>
<path d="M145.249 233.096H231.387" stroke="#263238" stroke-miterlimit="10" stroke-linecap="round" stroke-linejoin="round"/>
<path d="M103.748 233.096H137.325" stroke="#263238" stroke-miterlimit="10" stroke-linecap="round" stroke-linejoin="round"/>
<path d="M362.162 203.349H374.349" stroke="#263238" stroke-miterlimit="10" stroke-linecap="round" stroke-linejoin="round"/>
<path d="M292.349 203.349H354.813" stroke="#263238" stroke-miterlimit="10" stroke-linecap="round" stroke-linejoin="round"/>
<path d="M244.129 203.349H285.734" stroke="#263238" stroke-miterlimit="10" stroke-linecap="round" stroke-linejoin="round"/>
<path d="M323.212 210.786H374.348" stroke="#263238" stroke-miterlimit="10" stroke-linecap="round" stroke-linejoin="round"/>
<path d="M295.288 210.786H315.13" stroke="#263238" stroke-miterlimit="10" stroke-linecap="round" stroke-linejoin="round"/>
<path d="M244.129 210.786H286.469" stroke="#263238" stroke-miterlimit="10" stroke-linecap="round" stroke-linejoin="round"/>
<path d="M271.771 218.222H374.348" stroke="#263238" stroke-miterlimit="10" stroke-linecap="round" stroke-linejoin="round"/>
<path d="M244.129 218.222H262.218" stroke="#263238" stroke-miterlimit="10" stroke-linecap="round" stroke-linejoin="round"/>
<path d="M348.934 225.659H374.349" stroke="#263238" stroke-miterlimit="10" stroke-linecap="round" stroke-linejoin="round"/>
<path d="M300.432 225.659H340.116" stroke="#263238" stroke-miterlimit="10" stroke-linecap="round" stroke-linejoin="round"/>
<path d="M244.129 225.659H292.348" stroke="#263238" stroke-miterlimit="10" stroke-linecap="round" stroke-linejoin="round"/>
<path d="M286.469 233.096H374.348" stroke="#263238" stroke-miterlimit="10" stroke-linecap="round" stroke-linejoin="round"/>
<path d="M244.129 233.096H278.385" stroke="#263238" stroke-miterlimit="10" stroke-linecap="round" stroke-linejoin="round"/>
<path d="M374.348 158.993H103.159V103.04H374.348V158.993Z" fill="#2E6F40"/>
<path opacity="0.7" d="M374.348 158.993H103.159V103.04H374.348V158.993Z" fill="white"/>
<path d="M231.842 158.993H103.159V103.04H221.21L231.842 111.333V158.993Z" fill="#263238"/>
<path d="M221.21 103.04V111.333H231.842L221.21 103.04Z" fill="white"/>
<path d="M205.555 119.256H214.318" stroke="white" stroke-miterlimit="10" stroke-linecap="round" stroke-linejoin="round"/>
<path d="M155.355 119.256H200.27" stroke="white" stroke-miterlimit="10" stroke-linecap="round" stroke-linejoin="round"/>
<path d="M120.683 119.256H150.599" stroke="white" stroke-miterlimit="10" stroke-linecap="round" stroke-linejoin="round"/>
<path d="M177.548 124.05H214.318" stroke="white" stroke-miterlimit="10" stroke-linecap="round" stroke-linejoin="round"/>
<path d="M157.468 124.05H171.736" stroke="white" stroke-miterlimit="10" stroke-linecap="round" stroke-linejoin="round"/>
<path d="M120.683 124.05H151.127" stroke="white" stroke-miterlimit="10" stroke-linecap="round" stroke-linejoin="round"/>
<path d="M140.559 128.844H214.318" stroke="white" stroke-miterlimit="10" stroke-linecap="round" stroke-linejoin="round"/>
<path d="M120.683 128.844H133.689" stroke="white" stroke-miterlimit="10" stroke-linecap="round" stroke-linejoin="round"/>
<path d="M196.043 133.637H214.318" stroke="white" stroke-miterlimit="10" stroke-linecap="round" stroke-linejoin="round"/>
<path d="M161.167 133.637H189.702" stroke="white" stroke-miterlimit="10" stroke-linecap="round" stroke-linejoin="round"/>
<path d="M120.683 133.637H155.355" stroke="white" stroke-miterlimit="10" stroke-linecap="round" stroke-linejoin="round"/>
<path d="M151.127 138.431H214.318" stroke="white" stroke-miterlimit="10" stroke-linecap="round" stroke-linejoin="round"/>
<path d="M120.683 138.431H145.315" stroke="white" stroke-miterlimit="10" stroke-linecap="round" stroke-linejoin="round"/>
<path d="M241.577 265.406H182.989C181.603 265.406 180.479 264.282 180.479 262.896V243.797C180.479 242.411 181.603 241.287 182.989 241.287H241.577C242.963 241.287 244.087 242.411 244.087 243.797V262.896C244.087 264.283 242.964 265.406 241.577 265.406Z" fill="#2E6F40"/>
<path d="M200.136 254.667H196.72L196.237 255.952C196.177 256.127 196.084 256.258 195.959 256.345C195.834 256.433 195.695 256.477 195.542 256.477C195.349 256.477 195.178 256.413 195.028 256.284C194.878 256.155 194.802 255.993 194.802 255.796C194.802 255.707 194.821 255.616 194.857 255.523L197.208 249.637C197.358 249.24 197.53 248.974 197.725 248.839C197.92 248.704 198.155 248.635 198.429 248.635C198.703 248.635 198.938 248.703 199.133 248.839C199.328 248.974 199.5 249.24 199.65 249.637L202.001 255.523C202.037 255.616 202.056 255.707 202.056 255.796C202.056 255.993 201.98 256.155 201.83 256.284C201.68 256.413 201.509 256.477 201.316 256.477C201.163 256.477 201.024 256.433 200.899 256.345C200.773 256.257 200.681 256.127 200.62 255.952L200.136 254.667ZM198.428 250.103L197.106 253.632H199.751L198.428 250.103Z" fill="white"/>
<path d="M204.52 255.038C204.779 255.365 205.135 255.529 205.589 255.529C206.027 255.529 206.387 255.436 206.665 255.25C206.755 255.189 206.845 255.158 206.939 255.158C207.053 255.158 207.149 255.202 207.227 255.29C207.306 255.378 207.346 255.482 207.346 255.603C207.346 255.768 207.274 255.911 207.132 256.031C206.982 256.167 206.764 256.28 206.478 256.372C206.193 256.463 205.854 256.508 205.461 256.508C204.671 256.508 204.027 256.25 203.527 255.734C203.028 255.218 202.777 254.557 202.777 253.75C202.777 253.246 202.889 252.786 203.112 252.367C203.335 251.95 203.653 251.617 204.068 251.369C204.482 251.121 204.951 250.996 205.476 250.996C206.101 250.996 206.609 251.139 207.003 251.424C207.163 251.539 207.244 251.678 207.244 251.843C207.244 251.96 207.202 252.062 207.118 252.148C207.034 252.234 206.931 252.276 206.81 252.276C206.724 252.276 206.639 252.253 206.558 252.207C206.237 252.045 205.922 251.965 205.615 251.965C205.15 251.965 204.787 252.126 204.525 252.447C204.262 252.768 204.132 253.199 204.132 253.737C204.132 254.279 204.261 254.712 204.52 255.038Z" fill="white"/>
<path d="M209.773 255.038C210.032 255.365 210.388 255.529 210.842 255.529C211.28 255.529 211.64 255.436 211.918 255.25C212.008 255.189 212.098 255.158 212.192 255.158C212.306 255.158 212.402 255.202 212.48 255.29C212.559 255.378 212.599 255.482 212.599 255.603C212.599 255.768 212.527 255.911 212.385 256.031C212.235 256.167 212.017 256.28 211.731 256.372C211.446 256.463 211.107 256.508 210.714 256.508C209.924 256.508 209.28 256.25 208.78 255.734C208.281 255.218 208.03 254.557 208.03 253.75C208.03 253.246 208.142 252.786 208.365 252.367C208.588 251.95 208.906 251.617 209.321 251.369C209.735 251.121 210.204 250.996 210.729 250.996C211.354 250.996 211.862 251.139 212.256 251.424C212.416 251.539 212.496 251.678 212.496 251.843C212.496 251.96 212.454 252.062 212.37 252.148C212.286 252.234 212.183 252.276 212.062 252.276C211.976 252.276 211.892 252.253 211.81 252.207C211.489 252.045 211.174 251.965 210.867 251.965C210.402 251.965 210.039 252.126 209.777 252.447C209.514 252.768 209.384 253.199 209.384 253.737C209.386 254.279 209.514 254.712 209.773 255.038Z" fill="white"/>
<path d="M213.592 252.361C213.798 251.956 214.104 251.629 214.511 251.378C214.918 251.128 215.39 251.003 215.93 251.003C216.344 251.003 216.711 251.072 217.03 251.209C217.349 251.346 217.607 251.536 217.801 251.78C217.996 252.023 218.143 252.295 218.243 252.599C218.343 252.903 218.395 253.231 218.398 253.584C218.398 253.723 218.367 253.836 218.303 253.922C218.239 254.008 218.141 254.051 218.013 254.051H214.628C214.686 255.058 215.202 255.56 216.176 255.56C216.619 255.56 217.091 255.38 217.596 255.02C217.66 254.97 217.729 254.945 217.804 254.945C217.915 254.945 218.012 254.995 218.098 255.095C218.184 255.195 218.227 255.307 218.227 255.432C218.227 255.575 218.17 255.697 218.056 255.796C217.492 256.271 216.834 256.509 216.08 256.509C215.234 256.509 214.556 256.263 214.048 255.77C213.539 255.277 213.285 254.59 213.285 253.708C213.285 253.216 213.387 252.766 213.592 252.361ZM217.254 253.295C217.225 252.884 217.106 252.547 216.898 252.282C216.689 252.018 216.379 251.887 215.969 251.887C215.569 251.887 215.255 252.024 215.028 252.299C214.801 252.574 214.672 252.906 214.64 253.295H217.254Z" fill="white"/>
<path d="M219.636 258.281C219.511 258.153 219.449 257.974 219.449 257.745V251.838C219.449 251.606 219.515 251.42 219.648 251.281C219.78 251.142 219.942 251.073 220.135 251.073C220.335 251.073 220.494 251.13 220.614 251.244C220.734 251.358 220.793 251.523 220.793 251.742V251.93C221.136 251.309 221.726 250.997 222.561 250.997C223.035 250.997 223.45 251.122 223.805 251.37C224.16 251.618 224.428 251.951 224.608 252.368C224.788 252.787 224.879 253.259 224.879 253.788C224.879 254.627 224.661 255.291 224.226 255.777C223.791 256.265 223.21 256.508 222.485 256.508C221.707 256.508 221.143 256.221 220.793 255.645V257.745C220.793 257.978 220.73 258.157 220.603 258.283C220.476 258.41 220.313 258.473 220.113 258.473C219.92 258.474 219.761 258.41 219.636 258.281ZM222.732 255.488C222.889 255.419 223.017 255.326 223.118 255.212C223.217 255.098 223.3 254.961 223.366 254.802C223.432 254.643 223.48 254.48 223.508 254.312C223.536 254.144 223.551 253.965 223.551 253.776C223.551 253.605 223.538 253.437 223.513 253.273C223.489 253.108 223.444 252.943 223.38 252.774C223.316 252.606 223.235 252.46 223.137 252.336C223.039 252.21 222.911 252.109 222.754 252.03C222.596 251.951 222.418 251.912 222.218 251.912C221.704 251.912 221.339 252.067 221.122 252.378C220.906 252.688 220.798 253.15 220.798 253.765C220.798 254.112 220.844 254.418 220.934 254.683C221.025 254.949 221.178 255.167 221.395 255.336C221.611 255.506 221.88 255.591 222.201 255.591C222.398 255.594 222.575 255.559 222.732 255.488Z" fill="white"/>
<path d="M226.838 256.045C226.565 255.751 226.429 255.326 226.429 254.773V252.004H225.909C225.755 252.004 225.636 251.962 225.553 251.878C225.469 251.794 225.427 251.682 225.427 251.544C225.427 251.412 225.466 251.306 225.545 251.225C225.624 251.145 225.74 251.104 225.894 251.104H226.456L226.617 249.776C226.638 249.583 226.706 249.426 226.818 249.303C226.931 249.179 227.085 249.118 227.282 249.118C227.439 249.118 227.561 249.17 227.649 249.274C227.737 249.377 227.78 249.532 227.78 249.739V251.104H228.642C228.792 251.104 228.906 251.147 228.985 251.231C229.064 251.315 229.103 251.426 229.103 251.566C229.103 251.701 229.064 251.808 228.985 251.887C228.906 251.965 228.79 252.004 228.637 252.004H227.78V254.441C227.78 254.784 227.823 255.039 227.909 255.207C227.995 255.374 228.146 255.458 228.364 255.458H228.423L228.803 255.437H228.84C228.987 255.437 229.103 255.487 229.189 255.587C229.275 255.687 229.318 255.805 229.318 255.94C229.318 256.026 229.303 256.101 229.275 256.165C229.247 256.229 229.201 256.281 229.139 256.321C229.077 256.36 229.012 256.392 228.948 256.416C228.884 256.441 228.798 256.459 228.689 256.468C228.58 256.477 228.487 256.483 228.408 256.486C228.329 256.49 228.226 256.492 228.097 256.492H227.979C227.49 256.489 227.111 256.341 226.838 256.045Z" fill="white"/>
<path opacity="0.25" d="M164.614 265.406H106.026C104.64 265.406 103.516 264.282 103.516 262.896V243.797C103.516 242.411 104.64 241.287 106.026 241.287H164.614C166 241.287 167.124 242.411 167.124 243.797V262.896C167.124 264.283 166 265.406 164.614 265.406Z" fill="black"/>
<path d="M109.639 256.26C109.502 256.137 109.433 255.974 109.433 255.77V249.648C109.433 249.363 109.511 249.137 109.666 248.971C109.822 248.805 110.014 248.722 110.242 248.722C110.404 248.722 110.57 248.77 110.744 248.867C110.917 248.963 111.058 249.095 111.17 249.262L114.694 254.142V249.397C114.694 249.197 114.763 249.034 114.9 248.907C115.037 248.78 115.199 248.717 115.384 248.717C115.567 248.717 115.727 248.779 115.864 248.904C116.001 249.029 116.069 249.193 116.069 249.397V255.401C116.069 255.708 115.995 255.958 115.845 256.153C115.695 256.348 115.498 256.445 115.255 256.445C115.102 256.445 114.936 256.39 114.757 256.281C114.579 256.172 114.431 256.034 114.312 255.866L110.815 251.024V255.769C110.815 255.969 110.746 256.131 110.606 256.257C110.468 256.382 110.305 256.444 110.119 256.444C109.937 256.445 109.777 256.383 109.639 256.26Z" fill="white"/>
<path d="M118.934 256.279C118.566 256.125 118.273 255.918 118.053 255.658C117.834 255.397 117.666 255.106 117.552 254.784C117.438 254.463 117.381 254.122 117.381 253.761C117.381 253.476 117.416 253.2 117.485 252.934C117.555 252.668 117.665 252.417 117.815 252.181C117.965 251.945 118.147 251.74 118.363 251.566C118.579 251.391 118.843 251.252 119.156 251.15C119.469 251.049 119.812 250.997 120.187 250.997C120.555 250.997 120.893 251.047 121.202 251.145C121.511 251.243 121.775 251.377 121.993 251.546C122.21 251.715 122.396 251.918 122.55 252.152C122.703 252.386 122.817 252.638 122.89 252.91C122.963 253.182 123 253.465 123 253.761C123 254.043 122.965 254.315 122.895 254.575C122.826 254.836 122.717 255.085 122.569 255.323C122.421 255.561 122.239 255.765 122.023 255.938C121.807 256.111 121.542 256.25 121.227 256.353C120.912 256.457 120.567 256.509 120.188 256.509C119.72 256.509 119.302 256.432 118.934 256.279ZM121.27 255.111C121.527 254.79 121.656 254.34 121.656 253.761C121.656 253.18 121.527 252.726 121.27 252.402C121.013 252.077 120.653 251.914 120.188 251.914C119.723 251.914 119.364 252.076 119.109 252.399C118.854 252.722 118.725 253.176 118.725 253.761C118.725 254.339 118.854 254.789 119.111 255.111C119.368 255.432 119.727 255.594 120.188 255.594C120.652 255.594 121.012 255.432 121.27 255.111Z" fill="white"/>
<path d="M132.142 254.667H128.726L128.243 255.952C128.183 256.127 128.09 256.258 127.964 256.345C127.839 256.433 127.7 256.477 127.547 256.477C127.354 256.477 127.183 256.413 127.033 256.284C126.883 256.155 126.807 255.993 126.807 255.796C126.807 255.707 126.826 255.616 126.862 255.523L129.213 249.637C129.363 249.24 129.535 248.974 129.73 248.839C129.925 248.704 130.16 248.635 130.434 248.635C130.708 248.635 130.943 248.703 131.138 248.839C131.333 248.974 131.505 249.24 131.655 249.637L134.006 255.523C134.042 255.616 134.061 255.707 134.061 255.796C134.061 255.993 133.985 256.155 133.835 256.284C133.685 256.413 133.514 256.477 133.321 256.477C133.168 256.477 133.029 256.433 132.904 256.345C132.778 256.257 132.686 256.127 132.626 255.952L132.142 254.667ZM130.434 250.103L129.112 253.632H131.757L130.434 250.103Z" fill="white"/>
<path d="M136.526 255.038C136.785 255.365 137.141 255.529 137.595 255.529C138.033 255.529 138.393 255.436 138.671 255.25C138.761 255.189 138.851 255.158 138.945 255.158C139.059 255.158 139.155 255.202 139.233 255.29C139.312 255.378 139.352 255.482 139.352 255.603C139.352 255.768 139.28 255.911 139.138 256.031C138.988 256.167 138.77 256.28 138.484 256.372C138.199 256.463 137.86 256.508 137.467 256.508C136.677 256.508 136.033 256.25 135.533 255.734C135.034 255.218 134.783 254.557 134.783 253.75C134.783 253.246 134.895 252.786 135.118 252.367C135.341 251.95 135.659 251.617 136.074 251.369C136.488 251.121 136.957 250.996 137.482 250.996C138.107 250.996 138.615 251.139 139.009 251.424C139.169 251.539 139.249 251.678 139.249 251.843C139.249 251.96 139.207 252.062 139.123 252.148C139.039 252.234 138.936 252.276 138.815 252.276C138.729 252.276 138.644 252.253 138.563 252.207C138.242 252.045 137.927 251.965 137.62 251.965C137.156 251.965 136.792 252.126 136.53 252.447C136.267 252.768 136.137 253.199 136.137 253.737C136.138 254.279 136.267 254.712 136.526 255.038Z" fill="white"/>
<path d="M141.779 255.038C142.038 255.365 142.394 255.529 142.848 255.529C143.286 255.529 143.646 255.436 143.924 255.25C144.013 255.189 144.104 255.158 144.198 255.158C144.312 255.158 144.408 255.202 144.486 255.29C144.565 255.378 144.605 255.482 144.605 255.603C144.605 255.768 144.533 255.911 144.391 256.031C144.241 256.167 144.023 256.28 143.737 256.372C143.452 256.463 143.113 256.508 142.72 256.508C141.93 256.508 141.286 256.25 140.786 255.734C140.286 255.218 140.036 254.557 140.036 253.75C140.036 253.246 140.148 252.786 140.371 252.367C140.594 251.95 140.912 251.617 141.327 251.369C141.741 251.121 142.21 250.996 142.735 250.996C143.36 250.996 143.868 251.139 144.262 251.424C144.422 251.539 144.502 251.678 144.502 251.843C144.502 251.96 144.46 252.062 144.376 252.148C144.292 252.234 144.189 252.276 144.068 252.276C143.982 252.276 143.897 252.253 143.816 252.207C143.495 252.045 143.18 251.965 142.873 251.965C142.409 251.965 142.045 252.126 141.783 252.447C141.52 252.768 141.39 253.199 141.39 253.737C141.392 254.279 141.52 254.712 141.779 255.038Z" fill="white"/>
<path d="M145.598 252.361C145.804 251.956 146.11 251.629 146.517 251.378C146.924 251.128 147.396 251.003 147.936 251.003C148.35 251.003 148.717 251.072 149.036 251.209C149.355 251.346 149.612 251.536 149.807 251.78C150.002 252.023 150.149 252.295 150.249 252.599C150.349 252.903 150.401 253.231 150.404 253.584C150.404 253.723 150.373 253.836 150.309 253.922C150.245 254.008 150.147 254.051 150.019 254.051H146.634C146.691 255.058 147.208 255.56 148.182 255.56C148.625 255.56 149.097 255.38 149.602 255.02C149.666 254.97 149.735 254.945 149.81 254.945C149.921 254.945 150.018 254.995 150.104 255.095C150.19 255.195 150.233 255.307 150.233 255.432C150.233 255.575 150.176 255.697 150.062 255.796C149.498 256.271 148.84 256.509 148.086 256.509C147.24 256.509 146.562 256.263 146.054 255.77C145.545 255.277 145.291 254.59 145.291 253.708C145.29 253.216 145.392 252.766 145.598 252.361ZM149.259 253.295C149.23 252.884 149.111 252.547 148.903 252.282C148.694 252.018 148.384 251.887 147.974 251.887C147.574 251.887 147.26 252.024 147.033 252.299C146.806 252.574 146.677 252.906 146.645 253.295H149.259Z" fill="white"/>
<path d="M151.642 258.281C151.517 258.153 151.455 257.974 151.455 257.745V251.838C151.455 251.606 151.521 251.42 151.654 251.281C151.786 251.142 151.948 251.073 152.141 251.073C152.341 251.073 152.5 251.13 152.62 251.244C152.74 251.358 152.799 251.523 152.799 251.742V251.93C153.142 251.309 153.732 250.997 154.567 250.997C155.041 250.997 155.456 251.122 155.811 251.37C156.166 251.618 156.434 251.951 156.614 252.368C156.794 252.787 156.885 253.259 156.885 253.788C156.885 254.627 156.667 255.291 156.232 255.777C155.797 256.265 155.216 256.508 154.491 256.508C153.713 256.508 153.149 256.221 152.799 255.645V257.745C152.799 257.978 152.736 258.157 152.609 258.283C152.482 258.41 152.319 258.473 152.119 258.473C151.926 258.474 151.768 258.41 151.642 258.281ZM154.739 255.488C154.896 255.419 155.024 255.326 155.125 255.212C155.224 255.098 155.307 254.961 155.373 254.802C155.439 254.643 155.487 254.48 155.515 254.312C155.543 254.144 155.558 253.965 155.558 253.776C155.558 253.605 155.545 253.437 155.52 253.273C155.496 253.108 155.451 252.943 155.387 252.774C155.323 252.606 155.242 252.46 155.144 252.336C155.046 252.21 154.918 252.109 154.761 252.03C154.603 251.951 154.425 251.912 154.225 251.912C153.711 251.912 153.346 252.067 153.129 252.378C152.913 252.688 152.805 253.15 152.805 253.765C152.805 254.112 152.851 254.418 152.941 254.683C153.033 254.949 153.185 255.167 153.402 255.336C153.618 255.506 153.887 255.591 154.208 255.591C154.405 255.594 154.581 255.559 154.739 255.488Z" fill="white"/>
<path d="M158.843 256.045C158.57 255.751 158.434 255.326 158.434 254.773V252.004H157.914C157.76 252.004 157.641 251.962 157.558 251.878C157.474 251.794 157.432 251.682 157.432 251.544C157.432 251.412 157.471 251.306 157.55 251.225C157.629 251.145 157.745 251.104 157.899 251.104H158.461L158.622 249.776C158.643 249.583 158.711 249.426 158.823 249.303C158.936 249.179 159.09 249.118 159.287 249.118C159.444 249.118 159.566 249.17 159.654 249.274C159.742 249.377 159.786 249.532 159.786 249.739V251.104H160.648C160.798 251.104 160.912 251.147 160.991 251.231C161.07 251.315 161.109 251.426 161.109 251.566C161.109 251.701 161.07 251.808 160.991 251.887C160.912 251.965 160.796 252.004 160.643 252.004H159.786V254.441C159.786 254.784 159.829 255.039 159.914 255.207C160 255.374 160.151 255.458 160.369 255.458H160.428L160.808 255.437H160.845C160.992 255.437 161.108 255.487 161.194 255.587C161.28 255.687 161.322 255.805 161.322 255.94C161.322 256.026 161.307 256.101 161.279 256.165C161.251 256.229 161.205 256.281 161.143 256.321C161.081 256.36 161.016 256.392 160.952 256.416C160.888 256.441 160.802 256.459 160.693 256.468C160.584 256.477 160.491 256.483 160.412 256.486C160.333 256.49 160.23 256.492 160.101 256.492H159.983C159.495 256.489 159.117 256.341 158.843 256.045Z" fill="white"/>
<path d="M256.169 135.463C255.293 135.009 254.611 134.323 254.122 133.404C253.633 132.485 253.389 131.374 253.389 130.068C253.389 129.214 253.513 128.424 253.759 127.699C254.006 126.974 254.372 126.332 254.855 125.773C255.338 125.214 255.967 124.777 256.74 124.459C257.514 124.142 258.392 123.984 259.375 123.984C260.702 123.984 261.86 124.221 262.849 124.693C263.016 124.779 263.141 124.893 263.228 125.036C263.314 125.178 263.356 125.325 263.356 125.475C263.356 125.717 263.281 125.933 263.13 126.123C262.98 126.314 262.786 126.409 262.551 126.409C262.449 126.409 262.357 126.388 262.276 126.344C261.159 126 260.221 125.828 259.464 125.828C258.825 125.828 258.269 125.929 257.796 126.13C257.324 126.331 256.945 126.621 256.66 127C256.376 127.379 256.166 127.821 256.032 128.326C255.898 128.831 255.83 129.408 255.83 130.058C255.83 132.878 257.015 134.289 259.383 134.289C260.072 134.289 260.77 134.206 261.479 134.039V131.291H259.794C259.552 131.291 259.362 131.212 259.222 131.053C259.082 130.894 259.013 130.699 259.013 130.469C259.013 130.254 259.078 130.062 259.211 129.893C259.342 129.724 259.526 129.639 259.762 129.639H262.881C263.466 129.639 263.759 130.002 263.759 130.727V134.111C263.759 134.6 263.674 134.957 263.505 135.183C263.336 135.408 263.05 135.57 262.647 135.666C261.207 135.983 260.082 136.141 259.271 136.141C258.079 136.144 257.045 135.917 256.169 135.463Z" fill="#263238"/>
<path d="M265.706 129.79C266.015 129.18 266.475 128.688 267.088 128.311C267.7 127.935 268.412 127.747 269.223 127.747C269.846 127.747 270.398 127.85 270.878 128.057C271.359 128.264 271.746 128.55 272.039 128.915C272.332 129.28 272.553 129.691 272.704 130.148C272.854 130.605 272.932 131.099 272.938 131.631C272.938 131.84 272.889 132.01 272.793 132.139C272.697 132.268 272.552 132.332 272.358 132.332H267.265C267.351 133.847 268.128 134.604 269.594 134.604C270.26 134.604 270.972 134.333 271.729 133.79C271.825 133.715 271.93 133.677 272.043 133.677C272.21 133.677 272.357 133.752 272.486 133.902C272.616 134.052 272.68 134.222 272.68 134.41C272.68 134.625 272.594 134.808 272.422 134.958C271.573 135.673 270.583 136.03 269.449 136.03C268.175 136.03 267.156 135.659 266.39 134.918C265.625 134.176 265.242 133.142 265.242 131.816C265.242 131.075 265.397 130.4 265.706 129.79ZM271.213 131.196C271.17 130.579 270.991 130.071 270.677 129.673C270.362 129.276 269.896 129.077 269.279 129.077C268.677 129.077 268.206 129.284 267.865 129.697C267.523 130.111 267.329 130.61 267.281 131.196H271.213Z" fill="#263238"/>
<path d="M274.8 135.64C274.612 135.444 274.518 135.171 274.518 134.822V128.867C274.518 128.545 274.615 128.295 274.808 128.118C275.002 127.941 275.246 127.852 275.541 127.852C275.831 127.852 276.071 127.94 276.259 128.114C276.447 128.289 276.54 128.534 276.54 128.851V129.133C276.777 128.676 277.121 128.33 277.576 128.093C278.03 127.856 278.571 127.738 279.199 127.738C279.586 127.738 279.95 127.801 280.291 127.927C280.633 128.054 280.938 128.239 281.206 128.483C281.474 128.727 281.686 129.051 281.842 129.454C281.998 129.857 282.076 130.316 282.076 130.832V134.821C282.076 135.17 281.98 135.443 281.787 135.639C281.593 135.835 281.346 135.933 281.045 135.933C280.761 135.933 280.524 135.835 280.336 135.639C280.148 135.443 280.054 135.17 280.054 134.821V130.824C280.054 130.271 279.911 129.848 279.624 129.555C279.336 129.262 278.97 129.116 278.524 129.116C277.986 129.116 277.522 129.328 277.129 129.753C276.738 130.178 276.541 130.731 276.541 131.413V134.822C276.541 135.171 276.446 135.444 276.256 135.64C276.065 135.836 275.822 135.934 275.527 135.934C275.229 135.934 274.988 135.837 274.8 135.64Z" fill="#263238"/>
<path d="M284.183 129.79C284.492 129.18 284.952 128.688 285.565 128.311C286.177 127.935 286.889 127.747 287.7 127.747C288.323 127.747 288.875 127.85 289.355 128.057C289.836 128.264 290.223 128.55 290.516 128.915C290.809 129.28 291.03 129.691 291.181 130.148C291.331 130.605 291.409 131.099 291.415 131.631C291.415 131.84 291.366 132.01 291.27 132.139C291.174 132.268 291.029 132.332 290.835 132.332H285.742C285.828 133.847 286.605 134.604 288.071 134.604C288.737 134.604 289.449 134.333 290.207 133.79C290.303 133.715 290.408 133.677 290.521 133.677C290.688 133.677 290.836 133.752 290.964 133.902C291.094 134.052 291.158 134.222 291.158 134.41C291.158 134.625 291.072 134.808 290.9 134.958C290.051 135.673 289.061 136.03 287.927 136.03C286.653 136.03 285.634 135.659 284.868 134.918C284.103 134.176 283.72 133.142 283.72 131.816C283.72 131.075 283.874 130.4 284.183 129.79ZM289.691 131.196C289.648 130.579 289.469 130.071 289.155 129.673C288.84 129.276 288.374 129.077 287.757 129.077C287.155 129.077 286.684 129.284 286.343 129.697C286.001 130.111 285.806 130.61 285.759 131.196H289.691Z" fill="#263238"/>
<path d="M293.289 135.648C293.098 135.458 293.004 135.185 293.004 134.831V128.819C293.004 128.513 293.104 128.275 293.306 128.106C293.508 127.937 293.748 127.852 294.027 127.852C294.301 127.852 294.538 127.934 294.74 128.098C294.942 128.262 295.039 128.486 295.034 128.771L295.01 129.601C295.155 129.117 295.431 128.703 295.836 128.356C296.242 128.01 296.697 127.837 297.202 127.837C297.449 127.837 297.64 127.92 297.774 128.087C297.908 128.254 297.976 128.455 297.976 128.691C297.976 128.917 297.915 129.116 297.791 129.288C297.667 129.46 297.501 129.546 297.291 129.546C296.973 129.546 296.693 129.571 296.449 129.622C296.205 129.673 295.97 129.763 295.744 129.892C295.518 130.021 295.344 130.217 295.22 130.48C295.096 130.743 295.035 131.066 295.035 131.447V134.848C295.035 135.197 294.94 135.466 294.749 135.654C294.558 135.842 294.313 135.936 294.012 135.936C293.72 135.934 293.48 135.839 293.289 135.648Z" fill="#263238"/>
<path d="M299.526 135.415C299.002 135.009 298.74 134.444 298.74 133.719C298.74 133.397 298.774 133.113 298.841 132.869C298.908 132.624 299.002 132.414 299.122 132.236C299.243 132.059 299.414 131.909 299.634 131.785C299.854 131.661 300.088 131.561 300.335 131.483C300.581 131.405 300.895 131.345 301.274 131.302C301.653 131.259 302.036 131.23 302.422 131.217C302.809 131.203 303.276 131.197 303.824 131.197V130.577C303.824 130.072 303.704 129.703 303.466 129.469C303.226 129.235 302.871 129.118 302.398 129.118C302.296 129.118 302.192 129.122 302.088 129.13C301.983 129.138 301.877 129.151 301.77 129.17C301.662 129.189 301.568 129.205 301.488 129.218C301.407 129.232 301.311 129.255 301.198 129.287C301.085 129.319 300.999 129.343 300.94 129.359C300.881 129.375 300.795 129.403 300.683 129.444C300.57 129.484 300.497 129.51 300.465 129.52C300.433 129.531 300.361 129.559 300.248 129.605C300.135 129.651 300.076 129.673 300.071 129.673C300.012 129.7 299.937 129.713 299.845 129.713C299.657 129.713 299.497 129.634 299.366 129.475C299.234 129.317 299.168 129.138 299.168 128.939C299.168 128.676 299.286 128.488 299.522 128.375C300.414 127.956 301.404 127.746 302.495 127.746C302.99 127.746 303.433 127.803 303.825 127.915C304.217 128.028 304.563 128.203 304.864 128.439C305.165 128.676 305.398 128.995 305.561 129.398C305.725 129.801 305.807 130.276 305.807 130.824V134.918C305.807 135.24 305.713 135.49 305.525 135.667C305.337 135.844 305.111 135.933 304.848 135.933C304.584 135.933 304.357 135.844 304.167 135.667C303.976 135.49 303.881 135.24 303.881 134.918V134.652C303.709 135.06 303.431 135.392 303.046 135.647C302.662 135.903 302.159 136.03 301.536 136.03C300.72 136.025 300.05 135.82 299.526 135.415ZM303.196 134.121C303.61 133.697 303.817 133.159 303.817 132.509V132.275C303.279 132.275 302.854 132.283 302.539 132.299C302.224 132.315 301.926 132.346 301.644 132.392C301.363 132.438 301.154 132.51 301.02 132.61C300.886 132.71 300.781 132.838 300.705 132.997C300.63 133.156 300.593 133.359 300.593 133.606C300.593 133.982 300.701 134.268 300.919 134.464C301.136 134.66 301.425 134.758 301.785 134.758C302.313 134.758 302.783 134.546 303.196 134.121Z" fill="#263238"/>
<path d="M308.253 135.64C308.068 135.444 307.976 135.166 307.976 134.806V125.45C307.976 125.096 308.07 124.819 308.258 124.62C308.446 124.421 308.687 124.322 308.983 124.322C309.279 124.322 309.523 124.421 309.716 124.62C309.91 124.819 310.006 125.096 310.006 125.45V134.806C310.006 135.16 309.909 135.438 309.712 135.636C309.516 135.835 309.268 135.934 308.967 135.934C308.677 135.934 308.439 135.837 308.253 135.64Z" fill="#263238"/>
<path d="M319.736 135.608C319.507 135.385 319.393 135.093 319.393 134.734V126.144H316.767C316.492 126.144 316.275 126.054 316.114 125.874C315.953 125.694 315.873 125.481 315.873 125.233C315.873 124.986 315.955 124.77 316.118 124.584C316.283 124.399 316.499 124.306 316.768 124.306H324.327C324.59 124.306 324.803 124.399 324.968 124.584C325.132 124.77 325.213 124.983 325.213 125.225C325.213 125.472 325.132 125.687 324.972 125.87C324.81 126.053 324.595 126.144 324.327 126.144H321.707V134.734C321.707 135.094 321.593 135.385 321.365 135.608C321.136 135.831 320.864 135.943 320.547 135.943C320.235 135.943 319.964 135.831 319.736 135.608Z" fill="#263238"/>
<path d="M326.497 129.79C326.806 129.18 327.266 128.688 327.879 128.311C328.492 127.935 329.203 127.747 330.015 127.747C330.638 127.747 331.19 127.85 331.67 128.057C332.151 128.264 332.538 128.55 332.831 128.915C333.124 129.28 333.345 129.691 333.496 130.148C333.646 130.605 333.724 131.099 333.73 131.631C333.73 131.84 333.681 132.01 333.585 132.139C333.489 132.268 333.343 132.332 333.15 132.332H328.057C328.143 133.847 328.92 134.604 330.386 134.604C331.052 134.604 331.764 134.333 332.521 133.79C332.617 133.715 332.722 133.677 332.835 133.677C333.002 133.677 333.15 133.752 333.278 133.902C333.408 134.052 333.472 134.222 333.472 134.41C333.472 134.625 333.386 134.808 333.214 134.958C332.365 135.673 331.374 136.03 330.241 136.03C328.967 136.03 327.948 135.659 327.182 134.918C326.417 134.176 326.034 133.142 326.034 131.816C326.034 131.075 326.188 130.4 326.497 129.79ZM332.005 131.196C331.962 130.579 331.783 130.071 331.469 129.673C331.154 129.276 330.688 129.077 330.071 129.077C329.469 129.077 328.998 129.284 328.657 129.697C328.315 130.111 328.12 130.61 328.073 131.196H332.005Z" fill="#263238"/>
<path d="M335.603 135.648C335.412 135.458 335.318 135.185 335.318 134.831V128.819C335.318 128.513 335.418 128.275 335.62 128.106C335.822 127.937 336.062 127.852 336.342 127.852C336.616 127.852 336.853 127.934 337.055 128.098C337.257 128.262 337.354 128.486 337.349 128.771L337.325 129.601C337.47 129.117 337.746 128.703 338.151 128.356C338.557 128.01 339.012 127.837 339.517 127.837C339.764 127.837 339.955 127.92 340.089 128.087C340.223 128.254 340.291 128.455 340.291 128.691C340.291 128.917 340.23 129.116 340.106 129.288C339.982 129.46 339.816 129.546 339.606 129.546C339.289 129.546 339.008 129.571 338.764 129.622C338.52 129.673 338.285 129.763 338.059 129.892C337.833 130.021 337.659 130.217 337.535 130.48C337.411 130.743 337.35 131.066 337.35 131.447V134.848C337.35 135.197 337.254 135.466 337.064 135.654C336.873 135.842 336.628 135.936 336.327 135.936C336.034 135.934 335.794 135.839 335.603 135.648Z" fill="#263238"/>
<path d="M341.844 135.644C341.656 135.451 341.563 135.177 341.563 134.822V128.931C341.563 128.587 341.657 128.321 341.844 128.133C342.032 127.945 342.276 127.851 342.577 127.851C342.862 127.851 343.102 127.936 343.299 128.105C343.495 128.274 343.593 128.51 343.593 128.811V129.214C344.093 128.236 344.954 127.747 346.179 127.747C346.851 127.747 347.415 127.904 347.872 128.218C348.329 128.533 348.643 128.963 348.815 129.511C349.315 128.335 350.26 127.747 351.652 127.747C352.533 127.747 353.242 128.005 353.78 128.521C354.317 129.037 354.585 129.8 354.585 130.809V134.822C354.585 135.176 354.49 135.451 354.299 135.644C354.109 135.837 353.863 135.934 353.562 135.934C353.272 135.934 353.033 135.837 352.845 135.644C352.657 135.451 352.563 135.177 352.563 134.822V130.825C352.563 130.266 352.429 129.842 352.16 129.552C351.891 129.262 351.521 129.117 351.048 129.117C350.469 129.117 349.995 129.327 349.63 129.746C349.265 130.165 349.082 130.743 349.082 131.479V134.823C349.082 135.172 348.987 135.445 348.797 135.641C348.606 135.837 348.36 135.935 348.059 135.935C347.775 135.935 347.537 135.837 347.346 135.641C347.155 135.445 347.06 135.172 347.06 134.823V130.874C347.06 130.294 346.928 129.856 346.662 129.561C346.396 129.265 346.023 129.117 345.546 129.117C344.955 129.117 344.482 129.311 344.127 129.697C343.773 130.084 343.595 130.61 343.595 131.276V134.822C343.595 135.176 343.497 135.451 343.301 135.644C343.104 135.837 342.856 135.934 342.555 135.934C342.269 135.934 342.032 135.837 341.844 135.644Z" fill="#263238"/>
<path d="M356.397 134.581C356.397 134.403 356.457 134.248 356.578 134.114C356.699 133.98 356.854 133.912 357.042 133.912C357.176 133.912 357.316 133.952 357.461 134.033C357.698 134.167 357.887 134.27 358.03 134.339C358.172 134.409 358.402 134.488 358.718 134.577C359.036 134.666 359.352 134.71 359.669 134.71C359.981 134.71 360.258 134.679 360.503 134.618C360.747 134.556 360.957 134.444 361.132 134.28C361.306 134.116 361.394 133.905 361.394 133.647C361.394 133.19 361.02 132.87 360.273 132.688L359.016 132.366C358.635 132.264 358.326 132.173 358.09 132.092C357.853 132.011 357.615 131.908 357.372 131.781C357.13 131.655 356.945 131.515 356.816 131.362C356.687 131.209 356.582 131.018 356.502 130.79C356.421 130.562 356.38 130.294 356.38 129.988C356.38 129.252 356.676 128.687 357.267 128.292C357.857 127.897 358.634 127.7 359.595 127.7C360.525 127.7 361.405 127.901 362.238 128.304C362.528 128.444 362.673 128.659 362.673 128.949C362.673 129.121 362.618 129.267 362.508 129.388C362.398 129.509 362.251 129.569 362.069 129.569C361.978 129.569 361.872 129.548 361.755 129.505C361.749 129.505 361.691 129.484 361.578 129.44C361.465 129.397 361.386 129.369 361.34 129.356C361.294 129.342 361.21 129.316 361.086 129.275C360.962 129.235 360.856 129.205 360.767 129.186C360.678 129.168 360.572 129.146 360.449 129.122C360.325 129.098 360.204 129.08 360.083 129.069C359.962 129.058 359.84 129.053 359.716 129.053C359.302 129.053 358.951 129.122 358.66 129.258C358.37 129.395 358.225 129.606 358.225 129.89C358.225 130.143 358.305 130.329 358.464 130.45C358.622 130.571 358.925 130.682 359.37 130.784L360.612 131.099C361.477 131.314 362.11 131.606 362.51 131.977C362.91 132.348 363.11 132.861 363.11 133.516C363.11 134.338 362.808 134.967 362.203 135.402C361.599 135.837 360.813 136.054 359.846 136.054C358.594 136.054 357.541 135.742 356.687 135.119C356.494 134.981 356.397 134.801 356.397 134.581Z" fill="#263238"/>
<path d="M234.371 247.674C234.648 247.121 236.459 248.96 236.459 248.96C237.93 250.431 248.914 261.412 250.875 261.412C252.837 261.412 288.196 273.235 288.196 273.235L316.149 265.634C318.601 272.009 310.264 284.024 310.264 284.024C310.264 284.024 288.441 285.74 284.273 284.024C280.105 282.308 249.7 265.388 249.7 265.388C249.7 265.388 246.014 265.436 244.052 264.455C242.09 263.474 240.872 262.446 240.382 261.71C239.892 260.974 239.646 260.974 237.93 259.503C236.695 258.444 237.237 257.515 237.638 257.076L238.612 257.17L235.591 252.376C235.591 252.376 234.782 251.415 234.478 250.707C234.036 249.676 234.74 249.425 234.74 249.425C234.74 249.425 234.094 248.227 234.371 247.674Z" fill="white"/>
<mask id="mask3_4034_132798" style="mask-type:luminance" maskUnits="userSpaceOnUse" x="234" y="247" width="83" height="38">
<path d="M234.371 247.674C234.648 247.121 236.459 248.96 236.459 248.96C237.93 250.431 248.914 261.412 250.875 261.412C252.837 261.412 288.196 273.235 288.196 273.235L316.149 265.634C318.601 272.009 310.264 284.024 310.264 284.024C310.264 284.024 288.441 285.74 284.273 284.024C280.105 282.308 249.7 265.388 249.7 265.388C249.7 265.388 246.014 265.436 244.052 264.455C242.09 263.474 240.872 262.446 240.382 261.71C239.892 260.974 239.646 260.974 237.93 259.503C236.695 258.444 237.237 257.515 237.638 257.076L238.612 257.17L235.591 252.376C235.591 252.376 234.782 251.415 234.478 250.707C234.036 249.676 234.74 249.425 234.74 249.425C234.74 249.425 234.094 248.227 234.371 247.674Z" fill="white"/>
</mask>
<g mask="url(#mask3_4034_132798)">
<path opacity="0.15" d="M234.371 247.674C234.648 247.121 236.459 248.96 236.459 248.96C237.93 250.431 248.914 261.412 250.875 261.412C252.837 261.412 288.196 273.235 288.196 273.235L316.149 265.634C318.601 272.009 310.264 284.024 310.264 284.024C310.264 284.024 288.441 285.74 284.273 284.024C280.105 282.308 249.7 265.388 249.7 265.388C249.7 265.388 246.014 265.436 244.052 264.455C242.09 263.474 240.872 262.446 240.382 261.71C239.892 260.974 239.646 260.974 237.93 259.503C236.695 258.444 237.237 257.515 237.638 257.076L238.612 257.17L235.591 252.376C235.591 252.376 234.782 251.415 234.478 250.707C234.036 249.676 234.74 249.425 234.74 249.425C234.74 249.425 234.094 248.227 234.371 247.674Z" fill="black"/>
</g>
<path d="M234.371 247.674C234.648 247.121 236.459 248.96 236.459 248.96C237.93 250.431 248.914 261.412 250.875 261.412C252.837 261.412 288.196 273.235 288.196 273.235L316.149 265.634C318.601 272.009 310.264 284.024 310.264 284.024C310.264 284.024 288.441 285.74 284.273 284.024C280.105 282.308 249.7 265.388 249.7 265.388C249.7 265.388 246.014 265.436 244.052 264.455C242.09 263.474 240.872 262.446 240.382 261.71C239.892 260.974 239.646 260.974 237.93 259.503C236.695 258.444 237.237 257.515 237.638 257.076L238.612 257.17L235.591 252.376C235.591 252.376 234.782 251.415 234.478 250.707C234.036 249.676 234.74 249.425 234.74 249.425C234.74 249.425 234.094 248.227 234.371 247.674Z" stroke="#263238" stroke-miterlimit="10" stroke-linecap="round" stroke-linejoin="round"/>
<path d="M237.93 259.504C236.695 258.445 237.237 257.516 237.638 257.077L238.612 257.171L235.591 252.377C235.591 252.377 234.782 251.416 234.478 250.708C234.036 249.677 234.74 249.426 234.74 249.426C234.74 249.426 234.095 248.227 234.371 247.674C234.648 247.121 236.459 248.96 236.459 248.96C237.93 250.431 248.914 261.412 250.875 261.412C252.837 261.412 288.196 273.235 288.196 273.235L301.883 269.513C304.286 272.227 308.834 277.204 312.527 280.328C311.296 282.534 310.263 284.024 310.263 284.024C310.263 284.024 288.44 285.74 284.272 284.024C280.104 282.308 249.7 265.388 249.7 265.388C249.7 265.388 246.014 265.436 244.052 264.455C242.09 263.474 240.872 262.446 240.382 261.71C239.892 260.975 239.647 260.975 237.93 259.504Z" fill="#2DC874" stroke="#263238" stroke-miterlimit="10" stroke-linecap="round" stroke-linejoin="round"/>
<path d="M235.874 248.441C235.874 248.441 239.715 250.27 241.27 251.825C242.825 253.38 245.294 257.312 245.294 257.312C245.294 257.312 236.697 250.087 235.874 248.441Z" fill="white"/>
<mask id="mask4_4034_132798" style="mask-type:luminance" maskUnits="userSpaceOnUse" x="235" y="248" width="11" height="10">
<path d="M235.874 248.441C235.874 248.441 239.715 250.27 241.27 251.825C242.825 253.38 245.294 257.312 245.294 257.312C245.294 257.312 236.697 250.087 235.874 248.441Z" fill="white"/>
</mask>
<g mask="url(#mask4_4034_132798)">
<path opacity="0.15" d="M235.874 248.441C235.874 248.441 239.715 250.27 241.27 251.825C242.825 253.38 245.294 257.312 245.294 257.312C245.294 257.312 236.697 250.087 235.874 248.441Z" fill="black"/>
</g>
<path d="M235.874 248.441C235.874 248.441 239.715 250.27 241.27 251.825C242.825 253.38 245.294 257.312 245.294 257.312C245.294 257.312 236.697 250.087 235.874 248.441Z" stroke="#263238" stroke-miterlimit="10" stroke-linecap="round" stroke-linejoin="round"/>
<path d="M234.478 250.708C234.036 249.677 234.74 249.426 234.74 249.426C234.74 249.426 234.095 248.227 234.371 247.674C234.648 247.121 236.459 248.96 236.459 248.96C237.93 250.431 248.914 261.412 250.875 261.412C251.86 261.412 261.258 264.391 270.376 267.358L266.848 274.842C258.213 270.126 249.699 265.389 249.699 265.389C249.699 265.389 246.013 265.437 244.051 264.456C242.089 263.475 240.871 262.447 240.381 261.711C239.891 260.975 239.645 260.975 237.929 259.504C236.694 258.445 237.236 257.516 237.637 257.077L238.611 257.171L235.59 252.377C235.591 252.377 234.781 251.416 234.478 250.708Z" fill="white"/>
<mask id="mask5_4034_132798" style="mask-type:luminance" maskUnits="userSpaceOnUse" x="234" y="247" width="37" height="28">
<path d="M234.478 250.708C234.036 249.677 234.74 249.426 234.74 249.426C234.74 249.426 234.095 248.227 234.371 247.674C234.648 247.121 236.459 248.96 236.459 248.96C237.93 250.431 248.914 261.412 250.875 261.412C251.86 261.412 261.258 264.391 270.376 267.358L266.848 274.842C258.213 270.126 249.699 265.389 249.699 265.389C249.699 265.389 246.013 265.437 244.051 264.456C242.089 263.475 240.871 262.447 240.381 261.711C239.891 260.975 239.645 260.975 237.929 259.504C236.694 258.445 237.236 257.516 237.637 257.077L238.611 257.171L235.59 252.377C235.591 252.377 234.781 251.416 234.478 250.708Z" fill="white"/>
</mask>
<g mask="url(#mask5_4034_132798)">
<path opacity="0.15" d="M234.478 250.708C234.036 249.677 234.74 249.426 234.74 249.426C234.74 249.426 234.095 248.227 234.371 247.674C234.648 247.121 236.459 248.96 236.459 248.96C237.93 250.431 248.914 261.412 250.875 261.412C251.86 261.412 261.258 264.391 270.376 267.358L266.848 274.842C258.213 270.126 249.699 265.389 249.699 265.389C249.699 265.389 246.013 265.437 244.051 264.456C242.089 263.475 240.871 262.447 240.381 261.711C239.891 260.975 239.645 260.975 237.929 259.504C236.694 258.445 237.236 257.516 237.637 257.077L238.611 257.171L235.59 252.377C235.59 252.377 234.781 251.416 234.478 250.708Z" fill="black"/>
</g>
<mask id="mask6_4034_132798" style="mask-type:luminance" maskUnits="userSpaceOnUse" x="234" y="247" width="37" height="28">
<path d="M234.478 250.708C234.036 249.677 234.74 249.426 234.74 249.426C234.74 249.426 234.095 248.227 234.371 247.674C234.648 247.121 236.459 248.96 236.459 248.96C237.93 250.431 248.914 261.412 250.875 261.412C251.86 261.412 261.258 264.391 270.376 267.358L266.848 274.842C258.213 270.126 249.699 265.389 249.699 265.389C249.699 265.389 246.013 265.437 244.051 264.456C242.089 263.475 240.871 262.447 240.381 261.711C239.891 260.975 239.645 260.975 237.929 259.504C236.694 258.445 237.236 257.516 237.637 257.077L238.611 257.171L235.59 252.377C235.591 252.377 234.781 251.416 234.478 250.708Z" fill="white"/>
</mask>
<g mask="url(#mask6_4034_132798)">
<path d="M237.93 256.806C237.93 256.806 240.733 258.554 243.13 259.937" stroke="#263238" stroke-miterlimit="10" stroke-linecap="round" stroke-linejoin="round"/>
</g>
<mask id="mask7_4034_132798" style="mask-type:luminance" maskUnits="userSpaceOnUse" x="234" y="247" width="37" height="28">
<path d="M234.478 250.708C234.036 249.677 234.74 249.426 234.74 249.426C234.74 249.426 234.095 248.227 234.371 247.674C234.648 247.121 236.459 248.96 236.459 248.96C237.93 250.431 248.914 261.412 250.875 261.412C251.86 261.412 261.258 264.391 270.376 267.358L266.848 274.842C258.213 270.126 249.699 265.389 249.699 265.389C249.699 265.389 246.013 265.437 244.051 264.456C242.089 263.475 240.871 262.447 240.381 261.711C239.891 260.975 239.645 260.975 237.929 259.504C236.694 258.445 237.236 257.516 237.637 257.077L238.611 257.171L235.59 252.377C235.591 252.377 234.781 251.416 234.478 250.708Z" fill="white"/>
</mask>
<g mask="url(#mask7_4034_132798)">
<path d="M234.74 249.426C234.74 249.426 236.141 250.167 237.063 251.642C237.985 253.117 241.194 256.434 241.932 256.895" stroke="#263238" stroke-miterlimit="10" stroke-linecap="round" stroke-linejoin="round"/>
</g>
<path d="M234.478 250.708C234.036 249.677 234.74 249.426 234.74 249.426C234.74 249.426 234.095 248.227 234.371 247.674C234.648 247.121 236.459 248.96 236.459 248.96C237.93 250.431 248.914 261.412 250.875 261.412C251.86 261.412 261.258 264.391 270.376 267.358L266.848 274.842C258.213 270.126 249.699 265.389 249.699 265.389C249.699 265.389 246.013 265.437 244.051 264.456C242.089 263.475 240.871 262.447 240.381 261.711C239.891 260.975 239.645 260.975 237.929 259.504C236.694 258.445 237.236 257.516 237.637 257.077L238.611 257.171L235.59 252.377C235.591 252.377 234.781 251.416 234.478 250.708Z" stroke="#263238" stroke-miterlimit="10" stroke-linecap="round" stroke-linejoin="round"/>
<path d="M331.331 227.793C331.331 227.793 331.87 223.48 334.027 219.301C336.184 215.122 342.654 214.179 343.328 214.988C344.002 215.797 344.137 216.066 346.698 215.662C349.259 215.258 355.46 217.01 354.246 218.223C353.033 219.436 353.842 219.841 356.807 220.919C359.772 221.997 359.638 225.098 357.751 226.176C355.864 227.254 356.673 228.063 358.155 229.815C359.638 231.567 359.099 233.32 357.751 233.454C356.403 233.589 355.459 232.915 356.807 235.206C358.155 237.498 357.616 239.924 355.594 240.193C353.572 240.463 353.977 241.406 353.977 243.293C353.977 245.18 352.629 246.258 351.551 245.989C350.473 245.719 349.394 246.393 348.855 247.876C348.316 249.359 346.698 249.224 345.62 248.55C344.542 247.876 343.733 248.28 343.463 249.089C343.193 249.898 342.924 250.437 340.902 249.359C338.88 248.281 338.206 246.528 337.128 247.741C336.05 248.954 334.297 248.011 334.163 246.528C334.028 245.045 333.624 242.619 332.815 240.867C332.005 239.116 330.253 232.107 331.331 227.793Z" fill="#263238" stroke="#263238" stroke-miterlimit="10" stroke-linecap="round" stroke-linejoin="round"/>
<path d="M341.895 317.371C341.895 317.371 350.722 323.746 351.948 329.631C353.174 335.516 355.381 345.569 355.626 346.795C355.871 348.021 366.17 382.349 366.415 383.575C366.66 384.801 375.978 392.402 375.733 400.003C375.488 407.604 380.147 442.913 380.392 445.12C380.637 447.327 378.43 448.553 376.224 449.779C374.017 451.005 369.59 455.552 364.454 452.721C360.494 450.539 373.772 442.668 373.772 438.745C373.772 434.822 360.776 399.268 357.098 391.912C353.42 384.556 344.593 367.147 341.896 362.978C339.199 358.81 337.237 353.906 337.237 353.906C337.237 353.906 336.501 370.089 338.463 378.426C340.425 386.763 342.141 400.004 339.444 412.999C336.747 425.995 336.011 438.745 336.747 442.913C337.483 447.081 336.257 447.327 333.805 448.062C331.353 448.797 326.667 447.912 323.73 449.173C320.792 450.434 314.865 450.214 314.455 448.16C314.044 446.106 323.998 442.178 327.185 439.725C330.373 437.273 329.392 433.105 330.127 423.051C330.863 412.998 324.733 387.252 323.752 381.612C322.771 375.972 316.886 355.13 316.886 343.361C316.886 331.592 317.622 326.687 317.622 326.687C317.622 326.687 321.055 323.254 328.411 320.067C335.765 316.88 341.895 317.371 341.895 317.371Z" fill="white"/>
<mask id="mask8_4034_132798" style="mask-type:luminance" maskUnits="userSpaceOnUse" x="314" y="317" width="67" height="137">
<path d="M341.895 317.371C341.895 317.371 350.722 323.746 351.948 329.631C353.174 335.516 355.381 345.569 355.626 346.795C355.871 348.021 366.17 382.349 366.415 383.575C366.66 384.801 375.978 392.402 375.733 400.003C375.488 407.604 380.147 442.913 380.392 445.12C380.637 447.327 378.43 448.553 376.224 449.779C374.017 451.005 369.59 455.552 364.454 452.721C360.494 450.539 373.772 442.668 373.772 438.745C373.772 434.822 360.776 399.268 357.098 391.912C353.42 384.556 344.593 367.147 341.896 362.978C339.199 358.81 337.237 353.906 337.237 353.906C337.237 353.906 336.501 370.089 338.463 378.426C340.425 386.763 342.141 400.004 339.444 412.999C336.747 425.995 336.011 438.745 336.747 442.913C337.483 447.081 336.257 447.327 333.805 448.062C331.353 448.797 326.667 447.912 323.73 449.173C320.792 450.434 314.865 450.214 314.455 448.16C314.044 446.106 323.998 442.178 327.185 439.725C330.373 437.273 329.392 433.105 330.127 423.051C330.863 412.998 324.733 387.252 323.752 381.612C322.771 375.972 316.886 355.13 316.886 343.361C316.886 331.592 317.622 326.687 317.622 326.687C317.622 326.687 321.055 323.254 328.411 320.067C335.765 316.88 341.895 317.371 341.895 317.371Z" fill="white"/>
</mask>
<g mask="url(#mask8_4034_132798)">
<path opacity="0.15" d="M341.895 317.371C341.895 317.371 350.722 323.746 351.948 329.631C353.174 335.516 355.381 345.569 355.626 346.795C355.871 348.021 366.17 382.349 366.415 383.575C366.66 384.801 375.978 392.402 375.733 400.003C375.488 407.604 380.147 442.913 380.392 445.12C380.637 447.327 378.43 448.553 376.224 449.779C374.017 451.005 369.59 455.552 364.454 452.721C360.494 450.539 373.772 442.668 373.772 438.745C373.772 434.822 360.776 399.268 357.098 391.912C353.42 384.556 344.593 367.147 341.896 362.978C339.199 358.81 337.237 353.906 337.237 353.906C337.237 353.906 336.501 370.089 338.463 378.426C340.425 386.763 342.141 400.004 339.444 412.999C336.747 425.995 336.011 438.745 336.747 442.913C337.483 447.081 336.257 447.327 333.805 448.062C331.353 448.797 326.667 447.912 323.73 449.173C320.792 450.434 314.865 450.214 314.455 448.16C314.044 446.106 323.998 442.178 327.185 439.725C330.373 437.273 329.392 433.105 330.127 423.051C330.863 412.998 324.733 387.252 323.752 381.612C322.771 375.972 316.886 355.13 316.886 343.361C316.886 331.592 317.622 326.687 317.622 326.687C317.622 326.687 321.055 323.254 328.411 320.067C335.765 316.88 341.895 317.371 341.895 317.371Z" fill="black"/>
</g>
<path d="M341.895 317.371C341.895 317.371 350.722 323.746 351.948 329.631C353.174 335.516 355.381 345.569 355.626 346.795C355.871 348.021 366.17 382.349 366.415 383.575C366.66 384.801 375.978 392.402 375.733 400.003C375.488 407.604 380.147 442.913 380.392 445.12C380.637 447.327 378.43 448.553 376.224 449.779C374.017 451.005 369.59 455.552 364.454 452.721C360.494 450.539 373.772 442.668 373.772 438.745C373.772 434.822 360.776 399.268 357.098 391.912C353.42 384.556 344.593 367.147 341.896 362.978C339.199 358.81 337.237 353.906 337.237 353.906C337.237 353.906 336.501 370.089 338.463 378.426C340.425 386.763 342.141 400.004 339.444 412.999C336.747 425.995 336.011 438.745 336.747 442.913C337.483 447.081 336.257 447.327 333.805 448.062C331.353 448.797 326.667 447.912 323.73 449.173C320.792 450.434 314.865 450.214 314.455 448.16C314.044 446.106 323.998 442.178 327.185 439.725C330.373 437.273 329.392 433.105 330.127 423.051C330.863 412.998 324.733 387.252 323.752 381.612C322.771 375.972 316.886 355.13 316.886 343.361C316.886 331.592 317.622 326.687 317.622 326.687C317.622 326.687 321.055 323.254 328.411 320.067C335.765 316.88 341.895 317.371 341.895 317.371Z" stroke="#263238" stroke-miterlimit="10" stroke-linecap="round" stroke-linejoin="round"/>
<path d="M329.922 416.291C328.816 404.366 324.554 386.236 323.75 381.613C322.769 375.973 316.884 355.131 316.884 343.362C316.884 331.593 317.62 326.688 317.62 326.688C317.62 326.688 321.053 323.255 328.409 320.068C335.765 316.88 341.895 317.371 341.895 317.371C341.895 317.371 350.722 323.746 351.948 329.631C353.174 335.516 355.381 345.569 355.626 346.795C355.871 348.021 366.17 382.349 366.415 383.575C366.66 384.801 375.978 392.402 375.733 400.003C375.653 402.485 376.096 407.919 376.737 414.191C374.306 415.488 370.958 416.878 367.097 417.402C363.32 406.869 358.984 395.684 357.099 391.912C353.421 384.556 344.594 367.147 341.897 362.978C339.2 358.81 337.238 353.906 337.238 353.906C337.238 353.906 336.502 370.089 338.464 378.426C340.426 386.763 342.142 400.004 339.445 412.999C339.235 414.009 339.039 415.017 338.853 416.02C337.295 416.57 334.549 416.992 329.922 416.291Z" fill="#263238" stroke="#263238" stroke-miterlimit="10" stroke-linecap="round" stroke-linejoin="round"/>
<path d="M337.236 353.906L329.635 343.362" stroke="white" stroke-miterlimit="10" stroke-linecap="round" stroke-linejoin="round"/>
<path d="M343.612 314.919L344.838 318.597C344.838 318.597 334.201 329.319 324.884 330.545C315.567 331.771 315.905 330.857 315.905 328.405C315.905 325.953 324.487 322.52 332.088 318.597C339.689 314.674 341.405 314.183 343.612 314.919Z" fill="#2E6F40" stroke="#263238" stroke-miterlimit="10" stroke-linecap="round" stroke-linejoin="round"/>
<path d="M303.564 236.555C303.564 234.676 301.833 228.014 306.635 223.63C311.437 219.245 319.874 220.245 319.874 220.245C329.849 220.919 335.78 232.376 333.758 240.464C331.736 248.552 325.94 249.495 323.918 252.056C322.824 253.441 323.585 257.034 324.513 260.042C333.115 260.428 332.465 267.256 334.05 272.009C336.012 277.894 338.709 296.529 339.444 300.697C340.18 304.865 345.574 311.976 345.574 314.428C345.574 316.88 334.785 320.803 325.468 325.462C316.15 330.121 316.296 330.346 314.58 327.894C312.864 325.442 311 300.942 311 298C311 295.058 302.173 287.702 304.134 283.533C305.714 280.175 312.861 267.593 315.581 262.826C315.531 262.654 315.479 262.48 315.425 262.301C314.481 259.201 311.516 253.539 311.516 253.539C311.516 253.539 306.394 253.809 304.911 253.674C303.428 253.539 302.619 253.135 302.35 251.787C302.08 250.439 302.754 248.687 302.754 248.687C302.754 248.687 302.215 248.822 301.945 248.013C301.675 247.204 302.619 246.53 302.619 246.53C301.945 246.26 301.94 244.927 301.94 244.927L303.193 243.674C303.193 243.674 300.997 243.048 300.788 241.377C300.579 239.706 303.564 238.434 303.564 236.555Z" fill="white"/>
<mask id="mask9_4034_132798" style="mask-type:luminance" maskUnits="userSpaceOnUse" x="300" y="220" width="46" height="110">
<path d="M303.564 236.555C303.564 234.676 301.833 228.014 306.635 223.63C311.437 219.245 319.874 220.245 319.874 220.245C329.849 220.919 335.78 232.376 333.758 240.464C331.736 248.552 325.94 249.495 323.918 252.056C322.824 253.441 323.585 257.034 324.513 260.042C333.115 260.428 332.465 267.256 334.05 272.009C336.012 277.894 338.709 296.529 339.444 300.697C340.18 304.865 345.574 311.976 345.574 314.428C345.574 316.88 334.785 320.803 325.468 325.462C316.15 330.121 316.296 330.346 314.58 327.894C312.864 325.442 311 300.942 311 298C311 295.058 302.173 287.702 304.134 283.533C305.714 280.175 312.861 267.593 315.581 262.826C315.531 262.654 315.479 262.48 315.425 262.301C314.481 259.201 311.516 253.539 311.516 253.539C311.516 253.539 306.394 253.809 304.911 253.674C303.428 253.539 302.619 253.135 302.35 251.787C302.08 250.439 302.754 248.687 302.754 248.687C302.754 248.687 302.215 248.822 301.945 248.013C301.675 247.204 302.619 246.53 302.619 246.53C301.945 246.26 301.94 244.927 301.94 244.927L303.193 243.674C303.193 243.674 300.997 243.048 300.788 241.377C300.579 239.706 303.564 238.434 303.564 236.555Z" fill="white"/>
</mask>
<g mask="url(#mask9_4034_132798)">
<path opacity="0.15" d="M303.564 236.555C303.564 234.676 301.833 228.014 306.635 223.63C311.437 219.245 319.874 220.245 319.874 220.245C329.849 220.919 335.78 232.376 333.758 240.464C331.736 248.552 325.94 249.495 323.918 252.056C322.824 253.441 323.585 257.034 324.513 260.042C333.115 260.428 332.465 267.256 334.05 272.009C336.012 277.894 338.709 296.529 339.444 300.697C340.18 304.865 345.574 311.976 345.574 314.428C345.574 316.88 334.785 320.803 325.468 325.462C316.15 330.121 313.208 329.385 311.492 326.933C309.776 324.481 311 300.942 311 298C311 295.058 302.173 287.702 304.134 283.533C305.714 280.175 312.861 267.593 315.581 262.826C315.531 262.654 315.479 262.48 315.425 262.301C314.481 259.201 311.516 253.539 311.516 253.539C311.516 253.539 306.394 253.809 304.911 253.674C303.428 253.539 302.619 253.135 302.35 251.787C302.08 250.439 302.754 248.687 302.754 248.687C302.754 248.687 302.215 248.822 301.945 248.013C301.675 247.204 302.619 246.53 302.619 246.53C301.945 246.26 301.94 244.927 301.94 244.927L303.193 243.674C303.193 243.674 300.997 243.048 300.788 241.377C300.579 239.706 303.564 238.434 303.564 236.555Z" fill="black"/>
</g>
<path d="M303.564 236.555C303.564 234.676 301.833 228.014 306.635 223.63C311.437 219.245 319.874 220.245 319.874 220.245C329.849 220.919 335.78 232.376 333.758 240.464C331.736 248.552 325.94 249.495 323.918 252.056C322.824 253.441 323.585 257.034 324.513 260.042C333.115 260.428 332.465 267.256 334.05 272.009C336.012 277.894 338.709 296.529 339.444 300.697C340.18 304.865 345.574 311.976 345.574 314.428C345.574 316.88 334.785 320.803 325.468 325.462C316.15 330.121 316.296 330.346 314.58 327.894C312.864 325.442 311 300.942 311 298C311 295.058 302.173 287.702 304.134 283.533C305.714 280.175 312.861 267.593 315.581 262.826C315.531 262.654 315.479 262.48 315.425 262.301C314.481 259.201 311.516 253.539 311.516 253.539C311.516 253.539 306.394 253.809 304.911 253.674C303.428 253.539 302.619 253.135 302.35 251.787C302.08 250.439 302.754 248.687 302.754 248.687C302.754 248.687 302.215 248.822 301.945 248.013C301.675 247.204 302.619 246.53 302.619 246.53C301.945 246.26 301.94 244.927 301.94 244.927L303.193 243.674C303.193 243.674 300.997 243.048 300.788 241.377C300.579 239.706 303.564 238.434 303.564 236.555Z" stroke="#263238" stroke-miterlimit="10" stroke-linecap="round" stroke-linejoin="round"/>
<path d="M306.002 237.041C305.861 237.734 306.013 238.35 306.341 238.417C306.669 238.484 307.05 237.976 307.191 237.283C307.332 236.59 307.18 235.974 306.852 235.907C306.523 235.84 306.143 236.348 306.002 237.041Z" fill="#263238"/>
<path d="M308.82 234.533C308.82 234.533 308.416 232.376 305.72 232.915" stroke="#263238" stroke-miterlimit="10" stroke-linecap="round" stroke-linejoin="round"/>
<path d="M302.62 246.53C302.62 246.53 304.372 247.069 304.912 246.26" stroke="#263238" stroke-miterlimit="10" stroke-linecap="round" stroke-linejoin="round"/>
<path d="M304.134 283.533C304.773 282.174 306.325 279.304 308.125 276.053C308.344 276.169 308.566 276.291 308.793 276.422C320.196 283.043 331.184 281.387 335.965 280.146C337.468 287.887 338.931 297.796 339.443 300.697C340.179 304.865 345.573 311.976 345.573 314.428C345.573 316.88 339.767 321.496 330.45 326.154C321.132 330.813 316.295 330.345 314.579 327.893C312.863 325.441 311 300.942 311 298C311 295.058 302.173 287.702 304.134 283.533Z" fill="#2DC874" stroke="#263238" stroke-miterlimit="10" stroke-linecap="round" stroke-linejoin="round"/>
<path d="M332.332 284.514C332.332 284.514 323.75 284.269 319.827 283.043L332.332 284.514Z" fill="#2DC874"/>
<path d="M332.332 284.514C332.332 284.514 323.75 284.269 319.827 283.043" stroke="#263238" stroke-miterlimit="10" stroke-linecap="round" stroke-linejoin="round"/>
<path d="M335.52 286.721C335.52 286.721 327.796 287.947 325.589 287.457L335.52 286.721Z" fill="#2DC874"/>
<path d="M335.52 286.721C335.52 286.721 327.796 287.947 325.589 287.457" stroke="#263238" stroke-miterlimit="10" stroke-linecap="round" stroke-linejoin="round"/>
<path d="M313.362 220.547C316.832 219.886 319.874 220.245 319.874 220.245C329.849 220.919 335.78 232.376 333.758 240.464C332.028 247.383 327.543 249.074 325.015 251.022C322.997 250.197 320.816 249.02 320.144 247.608C318.796 244.777 318.526 243.16 318.526 243.16C318.526 243.16 317.178 244.104 316.774 241.812C316.37 239.52 313.892 238.194 312.475 235.358C311.042 232.492 313.013 229.443 314.838 227.01C316.254 225.12 317.401 221.677 313.362 220.547Z" fill="#263238" stroke="#263238" stroke-miterlimit="10" stroke-linecap="round" stroke-linejoin="round"/>
<path d="M314.656 219.055C312.61 217.548 309.971 217.096 307.32 218.301C302.653 220.423 309.442 223.393 311.987 227.424C314.533 231.455 315.806 237.607 317.079 234.001C318.337 230.439 319.151 226.273 317.531 222.686C316.857 221.192 315.859 219.941 314.656 219.055Z" fill="#263238" stroke="#263238" stroke-miterlimit="10" stroke-linecap="round" stroke-linejoin="round"/>
<path d="M316.254 242.446C316.254 242.446 319.354 237.263 322.465 238.865C325.575 240.468 321.724 245.713 319.355 247.024C316.985 248.335 316.097 244.984 316.097 244.984" fill="white"/>
<mask id="mask10_4034_132798" style="mask-type:luminance" maskUnits="userSpaceOnUse" x="316" y="238" width="8" height="10">
<path d="M316.254 242.446C316.254 242.446 319.354 237.263 322.465 238.865C325.575 240.468 321.724 245.713 319.355 247.024C316.985 248.335 316.097 244.984 316.097 244.984" fill="white"/>
</mask>
<g mask="url(#mask10_4034_132798)">
<path opacity="0.15" d="M316.254 242.446C316.254 242.446 319.354 237.263 322.465 238.865C325.575 240.468 321.724 245.713 319.355 247.024C316.985 248.335 316.097 244.984 316.097 244.984" fill="black"/>
</g>
<path d="M316.254 242.446C316.254 242.446 319.354 237.263 322.465 238.865C325.575 240.468 321.724 245.713 319.355 247.024C316.985 248.335 316.097 244.984 316.097 244.984" stroke="#263238" stroke-miterlimit="10" stroke-linecap="round" stroke-linejoin="round"/>
<path d="M317.62 270.047C317.62 270.047 323.014 261.465 329.39 263.917C335.765 266.369 356.607 293.096 357.343 297.264C358.079 301.432 363.718 335.515 363.718 335.515C363.718 335.515 364.944 339.193 363.718 342.135C362.492 345.077 362.492 346.303 363.718 348.755C364.944 351.207 364.699 352.188 362.737 350.717C360.775 349.246 360.53 348.755 358.323 344.342C356.116 339.928 359.794 333.553 359.794 333.553C359.794 333.553 347.289 304.865 346.798 302.167C346.308 299.47 345.327 297.753 345.327 297.753C345.327 297.753 322.769 279.118 320.562 275.685" fill="white"/>
<mask id="mask11_4034_132798" style="mask-type:luminance" maskUnits="userSpaceOnUse" x="317" y="263" width="48" height="89">
<path d="M317.62 270.047C317.62 270.047 323.014 261.465 329.39 263.917C335.765 266.369 356.607 293.096 357.343 297.264C358.079 301.432 363.718 335.515 363.718 335.515C363.718 335.515 364.944 339.193 363.718 342.135C362.492 345.077 362.492 346.303 363.718 348.755C364.944 351.207 364.699 352.188 362.737 350.717C360.775 349.246 360.53 348.755 358.323 344.342C356.116 339.928 359.794 333.553 359.794 333.553C359.794 333.553 347.289 304.865 346.798 302.167C346.308 299.47 345.327 297.753 345.327 297.753C345.327 297.753 322.769 279.118 320.562 275.685" fill="white"/>
</mask>
<g mask="url(#mask11_4034_132798)">
<path opacity="0.15" d="M317.62 270.047C317.62 270.047 323.014 261.465 329.39 263.917C335.765 266.369 356.607 293.096 357.343 297.264C358.079 301.432 363.718 335.515 363.718 335.515C363.718 335.515 364.944 339.193 363.718 342.135C362.492 345.077 362.492 346.303 363.718 348.755C364.944 351.207 364.699 352.188 362.737 350.717C360.775 349.246 360.53 348.755 358.323 344.342C356.116 339.928 359.794 333.553 359.794 333.553C359.794 333.553 347.289 304.865 346.798 302.167C346.308 299.47 345.327 297.753 345.327 297.753C345.327 297.753 322.769 279.118 320.562 275.685" fill="black"/>
</g>
<path d="M317.62 270.047C317.62 270.047 323.014 261.465 329.39 263.917C335.765 266.369 356.607 293.096 357.343 297.264C358.079 301.432 363.718 335.515 363.718 335.515C363.718 335.515 364.944 339.193 363.718 342.135C362.492 345.077 362.492 346.303 363.718 348.755C364.944 351.207 364.699 352.188 362.737 350.717C360.775 349.246 360.53 348.755 358.323 344.342C356.116 339.928 359.794 333.553 359.794 333.553C359.794 333.553 347.289 304.865 346.798 302.167C346.308 299.47 345.327 297.753 345.327 297.753C345.327 297.753 322.769 279.118 320.562 275.685" stroke="#263238" stroke-miterlimit="10" stroke-linecap="round" stroke-linejoin="round"/>
<path d="M343.262 277.263C350.213 285.521 356.931 294.93 357.343 297.264C358.079 301.432 363.718 335.515 363.718 335.515C363.718 335.515 364.944 339.193 363.718 342.135C362.492 345.077 362.492 346.303 363.718 348.755C364.944 351.207 364.699 352.188 362.737 350.717C360.775 349.246 360.53 348.755 358.323 344.342C356.116 339.928 359.794 333.553 359.794 333.553C359.794 333.553 347.289 304.865 346.798 302.167C346.308 299.47 345.327 297.753 345.327 297.753C345.327 297.753 333.478 287.964 326.115 281.269C333.23 281.336 339.357 279.136 343.262 277.263Z" fill="#2DC874" stroke="#263238" stroke-miterlimit="10" stroke-linecap="round" stroke-linejoin="round"/>
<path d="M357.893 300.489C359.515 310.115 363.718 335.515 363.718 335.515C363.718 335.515 364.944 339.193 363.718 342.135C362.492 345.077 362.492 346.303 363.718 348.755C364.944 351.207 364.699 352.188 362.737 350.717C360.775 349.246 360.53 348.755 358.323 344.342C356.116 339.928 359.794 333.553 359.794 333.553C359.794 333.553 348.379 307.365 346.934 302.68L357.893 300.489Z" fill="white"/>
<mask id="mask12_4034_132798" style="mask-type:luminance" maskUnits="userSpaceOnUse" x="346" y="300" width="19" height="52">
<path d="M357.893 300.489C359.515 310.115 363.718 335.515 363.718 335.515C363.718 335.515 364.944 339.193 363.718 342.135C362.492 345.077 362.492 346.303 363.718 348.755C364.944 351.207 364.699 352.188 362.737 350.717C360.775 349.246 360.53 348.755 358.323 344.342C356.116 339.928 359.794 333.553 359.794 333.553C359.794 333.553 348.379 307.365 346.934 302.68L357.893 300.489Z" fill="white"/>
</mask>
<g mask="url(#mask12_4034_132798)">
<path opacity="0.15" d="M357.893 300.489C359.515 310.115 363.718 335.515 363.718 335.515C363.718 335.515 364.944 339.193 363.718 342.135C362.492 345.077 362.492 346.303 363.718 348.755C364.944 351.207 364.699 352.188 362.737 350.717C360.775 349.246 360.53 348.755 358.323 344.342C356.116 339.928 359.794 333.553 359.794 333.553C359.794 333.553 348.379 307.365 346.934 302.68L357.893 300.489Z" fill="black"/>
</g>
<path d="M357.893 300.489C359.515 310.115 363.718 335.515 363.718 335.515C363.718 335.515 364.944 339.193 363.718 342.135C362.492 345.077 362.492 346.303 363.718 348.755C364.944 351.207 364.699 352.188 362.737 350.717C360.775 349.246 360.53 348.755 358.323 344.342C356.116 339.928 359.794 333.553 359.794 333.553C359.794 333.553 348.379 307.365 346.934 302.68L357.893 300.489Z" stroke="#263238" stroke-miterlimit="10" stroke-linecap="round" stroke-linejoin="round"/>
<path d="M373.661 439.385C374.159 439.458 374.734 439.704 375.194 440.36C376.227 441.835 376.521 443.31 376.521 443.31C376.521 443.31 378.106 441.866 379.795 440.356C380.119 442.932 380.343 444.682 380.391 445.12C380.636 447.327 378.429 448.553 376.223 449.779C374.016 451.005 369.589 455.552 364.453 452.721C360.698 450.652 372.438 443.468 373.661 439.385Z" fill="#2E6F40" stroke="#263238" stroke-miterlimit="10" stroke-linecap="round" stroke-linejoin="round"/>
<path d="M327.183 439.726C327.46 439.513 327.695 439.282 327.912 439.04C328.564 439.321 329.215 439.679 329.473 440.066C330.063 440.951 330.21 441.688 330.21 441.688L330.358 442.868C330.358 442.868 333.747 443.463 336.675 442.445C336.697 442.61 336.72 442.768 336.746 442.913C337.482 447.081 336.256 447.327 333.804 448.062C331.352 448.797 326.666 447.912 323.729 449.173C320.791 450.434 314.864 450.214 314.454 448.16C314.042 446.106 323.996 442.178 327.183 439.726Z" fill="#2E6F40" stroke="#263238" stroke-miterlimit="10" stroke-linecap="round" stroke-linejoin="round"/>
</svg>
