<svg width="112" height="112" viewBox="0 0 112 112" fill="none" xmlns="http://www.w3.org/2000/svg">
<rect x="1.3" y="1.36592" width="109.4" height="109.4" rx="16.7" fill="#DAF1E0"/>
<rect x="1.3" y="1.36592" width="109.4" height="109.4" rx="16.7" stroke="url(#paint0_linear_3552_141182)" stroke-width="1.4"/>
<g clip-path="url(#clip0_3552_141182)">
<path d="M100 12.0659H12V100.066H100V12.0659Z" fill="white"/>
<path d="M41.4132 17.3993H38.6665V20.146H41.4132V17.3993Z" fill="black"/>
<path d="M49.4132 17.3993H46.6665V20.146H49.4132V17.3993Z" fill="black"/>
<path d="M57.4132 17.3993H54.6665V20.146H57.4132V17.3993Z" fill="black"/>
<path d="M60.0797 17.3993H57.333V20.146H60.0797V17.3993Z" fill="black"/>
<path d="M62.7467 17.3993H60V20.146H62.7467V17.3993Z" fill="black"/>
<path d="M65.4132 17.3993H62.6665V20.146H65.4132V17.3993Z" fill="black"/>
<path d="M68.0802 17.3993H65.3335V20.146H68.0802V17.3993Z" fill="black"/>
<path d="M73.4132 17.3993H70.6665V20.146H73.4132V17.3993Z" fill="black"/>
<path d="M41.4132 20.0659H38.6665V22.8126H41.4132V20.0659Z" fill="black"/>
<path d="M44.0802 20.0659H41.3335V22.8126H44.0802V20.0659Z" fill="black"/>
<path d="M46.7467 20.0659H44V22.8126H46.7467V20.0659Z" fill="black"/>
<path d="M49.4132 20.0659H46.6665V22.8126H49.4132V20.0659Z" fill="black"/>
<path d="M52.0802 20.0659H49.3335V22.8126H52.0802V20.0659Z" fill="black"/>
<path d="M57.4132 20.0659H54.6665V22.8126H57.4132V20.0659Z" fill="black"/>
<path d="M60.0797 20.0659H57.333V22.8126H60.0797V20.0659Z" fill="black"/>
<path d="M62.7467 20.0659H60V22.8126H62.7467V20.0659Z" fill="black"/>
<path d="M65.4132 20.0659H62.6665V22.8126H65.4132V20.0659Z" fill="black"/>
<path d="M70.7467 20.0659H68V22.8126H70.7467V20.0659Z" fill="black"/>
<path d="M41.4132 22.7327H38.6665V25.4793H41.4132V22.7327Z" fill="black"/>
<path d="M60.0797 22.7327H57.333V25.4793H60.0797V22.7327Z" fill="black"/>
<path d="M68.0802 22.7327H65.3335V25.4793H68.0802V22.7327Z" fill="black"/>
<path d="M70.7467 22.7327H68V25.4793H70.7467V22.7327Z" fill="black"/>
<path d="M73.4132 22.7327H70.6665V25.4793H73.4132V22.7327Z" fill="black"/>
<path d="M46.7467 25.3993H44V28.146H46.7467V25.3993Z" fill="black"/>
<path d="M49.4132 25.3993H46.6665V28.146H49.4132V25.3993Z" fill="black"/>
<path d="M54.7467 25.3993H52V28.146H54.7467V25.3993Z" fill="black"/>
<path d="M57.4132 25.3993H54.6665V28.146H57.4132V25.3993Z" fill="black"/>
<path d="M60.0797 25.3993H57.333V28.146H60.0797V25.3993Z" fill="black"/>
<path d="M62.7467 25.3993H60V28.146H62.7467V25.3993Z" fill="black"/>
<path d="M65.4132 25.3993H62.6665V28.146H65.4132V25.3993Z" fill="black"/>
<path d="M70.7467 25.3993H68V28.146H70.7467V25.3993Z" fill="black"/>
<path d="M44.0802 28.066H41.3335V30.8127H44.0802V28.066Z" fill="black"/>
<path d="M46.7467 28.066H44V30.8127H46.7467V28.066Z" fill="black"/>
<path d="M49.4132 28.066H46.6665V30.8127H49.4132V28.066Z" fill="black"/>
<path d="M52.0802 28.066H49.3335V30.8127H52.0802V28.066Z" fill="black"/>
<path d="M54.7467 28.066H52V30.8127H54.7467V28.066Z" fill="black"/>
<path d="M62.7467 28.066H60V30.8127H62.7467V28.066Z" fill="black"/>
<path d="M68.0802 28.066H65.3335V30.8127H68.0802V28.066Z" fill="black"/>
<path d="M70.7467 28.066H68V30.8127H70.7467V28.066Z" fill="black"/>
<path d="M41.4132 30.7327H38.6665V33.4793H41.4132V30.7327Z" fill="black"/>
<path d="M44.0802 30.7327H41.3335V33.4793H44.0802V30.7327Z" fill="black"/>
<path d="M46.7467 30.7327H44V33.4793H46.7467V30.7327Z" fill="black"/>
<path d="M52.0802 30.7327H49.3335V33.4793H52.0802V30.7327Z" fill="black"/>
<path d="M57.4132 30.7327H54.6665V33.4793H57.4132V30.7327Z" fill="black"/>
<path d="M60.0797 30.7327H57.333V33.4793H60.0797V30.7327Z" fill="black"/>
<path d="M62.7467 30.7327H60V33.4793H62.7467V30.7327Z" fill="black"/>
<path d="M68.0802 30.7327H65.3335V33.4793H68.0802V30.7327Z" fill="black"/>
<path d="M41.4132 33.3993H38.6665V36.146H41.4132V33.3993Z" fill="black"/>
<path d="M46.7467 33.3993H44V36.146H46.7467V33.3993Z" fill="black"/>
<path d="M52.0802 33.3993H49.3335V36.146H52.0802V33.3993Z" fill="black"/>
<path d="M57.4132 33.3993H54.6665V36.146H57.4132V33.3993Z" fill="black"/>
<path d="M62.7467 33.3993H60V36.146H62.7467V33.3993Z" fill="black"/>
<path d="M68.0802 33.3993H65.3335V36.146H68.0802V33.3993Z" fill="black"/>
<path d="M73.4132 33.3993H70.6665V36.146H73.4132V33.3993Z" fill="black"/>
<path d="M41.4132 36.066H38.6665V38.8127H41.4132V36.066Z" fill="black"/>
<path d="M44.0802 36.066H41.3335V38.8127H44.0802V36.066Z" fill="black"/>
<path d="M46.7467 36.066H44V38.8127H46.7467V36.066Z" fill="black"/>
<path d="M49.4132 36.066H46.6665V38.8127H49.4132V36.066Z" fill="black"/>
<path d="M52.0802 36.066H49.3335V38.8127H52.0802V36.066Z" fill="black"/>
<path d="M54.7467 36.066H52V38.8127H54.7467V36.066Z" fill="black"/>
<path d="M57.4132 36.066H54.6665V38.8127H57.4132V36.066Z" fill="black"/>
<path d="M60.0797 36.066H57.333V38.8127H60.0797V36.066Z" fill="black"/>
<path d="M62.7467 36.066H60V38.8127H62.7467V36.066Z" fill="black"/>
<path d="M70.7467 36.066H68V38.8127H70.7467V36.066Z" fill="black"/>
<path d="M25.4132 38.7327H22.6665V41.4793H25.4132V38.7327Z" fill="black"/>
<path d="M28.0802 38.7327H25.3335V41.4793H28.0802V38.7327Z" fill="black"/>
<path d="M30.7467 38.7327H28V41.4793H30.7467V38.7327Z" fill="black"/>
<path d="M36.0797 38.7327H33.333V41.4793H36.0797V38.7327Z" fill="black"/>
<path d="M41.4132 38.7327H38.6665V41.4793H41.4132V38.7327Z" fill="black"/>
<path d="M52.0802 38.7327H49.3335V41.4793H52.0802V38.7327Z" fill="black"/>
<path d="M54.7467 38.7327H52V41.4793H54.7467V38.7327Z" fill="black"/>
<path d="M60.0797 38.7327H57.333V41.4793H60.0797V38.7327Z" fill="black"/>
<path d="M68.0802 38.7327H65.3335V41.4793H68.0802V38.7327Z" fill="black"/>
<path d="M76.0802 38.7327H73.3335V41.4793H76.0802V38.7327Z" fill="black"/>
<path d="M78.7467 38.7327H76V41.4793H78.7467V38.7327Z" fill="black"/>
<path d="M81.4132 38.7327H78.6665V41.4793H81.4132V38.7327Z" fill="black"/>
<path d="M89.4132 38.7327H86.6665V41.4793H89.4132V38.7327Z" fill="black"/>
<path d="M92.0802 38.7327H89.3335V41.4793H92.0802V38.7327Z" fill="black"/>
<path d="M94.7467 38.7327H92V41.4793H94.7467V38.7327Z" fill="black"/>
<path d="M22.7467 41.3993H20V44.146H22.7467V41.3993Z" fill="black"/>
<path d="M25.4132 41.3993H22.6665V44.146H25.4132V41.3993Z" fill="black"/>
<path d="M28.0802 41.3993H25.3335V44.146H28.0802V41.3993Z" fill="black"/>
<path d="M41.4132 41.3993H38.6665V44.146H41.4132V41.3993Z" fill="black"/>
<path d="M44.0802 41.3993H41.3335V44.146H44.0802V41.3993Z" fill="black"/>
<path d="M57.4132 41.3993H54.6665V44.146H57.4132V41.3993Z" fill="black"/>
<path d="M60.0797 41.3993H57.333V44.146H60.0797V41.3993Z" fill="black"/>
<path d="M65.4132 41.3993H62.6665V44.146H65.4132V41.3993Z" fill="black"/>
<path d="M76.0802 41.3993H73.3335V44.146H76.0802V41.3993Z" fill="black"/>
<path d="M81.4132 41.3993H78.6665V44.146H81.4132V41.3993Z" fill="black"/>
<path d="M84.0797 41.3993H81.333V44.146H84.0797V41.3993Z" fill="black"/>
<path d="M86.7467 41.3993H84V44.146H86.7467V41.3993Z" fill="black"/>
<path d="M89.4132 41.3993H86.6665V44.146H89.4132V41.3993Z" fill="black"/>
<path d="M94.7467 41.3993H92V44.146H94.7467V41.3993Z" fill="black"/>
<path d="M22.7467 44.0659H20V46.8126H22.7467V44.0659Z" fill="black"/>
<path d="M30.7467 44.0659H28V46.8126H30.7467V44.0659Z" fill="black"/>
<path d="M33.4132 44.0659H30.6665V46.8126H33.4132V44.0659Z" fill="black"/>
<path d="M36.0797 44.0659H33.333V46.8126H36.0797V44.0659Z" fill="black"/>
<path d="M46.7467 44.0659H44V46.8126H46.7467V44.0659Z" fill="black"/>
<path d="M49.4132 44.0659H46.6665V46.8126H49.4132V44.0659Z" fill="black"/>
<path d="M54.7467 44.0659H52V46.8126H54.7467V44.0659Z" fill="black"/>
<path d="M57.4132 44.0659H54.6665V46.8126H57.4132V44.0659Z" fill="black"/>
<path d="M62.7467 44.0659H60V46.8126H62.7467V44.0659Z" fill="black"/>
<path d="M76.0802 44.0659H73.3335V46.8126H76.0802V44.0659Z" fill="black"/>
<path d="M78.7467 44.0659H76V46.8126H78.7467V44.0659Z" fill="black"/>
<path d="M84.0797 44.0659H81.333V46.8126H84.0797V44.0659Z" fill="black"/>
<path d="M89.4132 44.0659H86.6665V46.8126H89.4132V44.0659Z" fill="black"/>
<path d="M25.4132 46.7327H22.6665V49.4793H25.4132V46.7327Z" fill="black"/>
<path d="M41.4132 46.7327H38.6665V49.4793H41.4132V46.7327Z" fill="black"/>
<path d="M44.0802 46.7327H41.3335V49.4793H44.0802V46.7327Z" fill="black"/>
<path d="M46.7467 46.7327H44V49.4793H46.7467V46.7327Z" fill="black"/>
<path d="M60.0797 46.7327H57.333V49.4793H60.0797V46.7327Z" fill="black"/>
<path d="M65.4132 46.7327H62.6665V49.4793H65.4132V46.7327Z" fill="black"/>
<path d="M76.0802 46.7327H73.3335V49.4793H76.0802V46.7327Z" fill="black"/>
<path d="M78.7467 46.7327H76V49.4793H78.7467V46.7327Z" fill="black"/>
<path d="M86.7467 46.7327H84V49.4793H86.7467V46.7327Z" fill="black"/>
<path d="M92.0802 46.7327H89.3335V49.4793H92.0802V46.7327Z" fill="black"/>
<path d="M22.7467 49.3993H20V52.146H22.7467V49.3993Z" fill="black"/>
<path d="M25.4132 49.3993H22.6665V52.146H25.4132V49.3993Z" fill="black"/>
<path d="M28.0802 49.3993H25.3335V52.146H28.0802V49.3993Z" fill="black"/>
<path d="M30.7467 49.3993H28V52.146H30.7467V49.3993Z" fill="black"/>
<path d="M33.4132 49.3993H30.6665V52.146H33.4132V49.3993Z" fill="black"/>
<path d="M36.0797 49.3993H33.333V52.146H36.0797V49.3993Z" fill="black"/>
<path d="M41.4132 49.3993H38.6665V52.146H41.4132V49.3993Z" fill="black"/>
<path d="M49.4132 49.3993H46.6665V52.146H49.4132V49.3993Z" fill="black"/>
<path d="M54.7467 49.3993H52V52.146H54.7467V49.3993Z" fill="black"/>
<path d="M57.4132 49.3993H54.6665V52.146H57.4132V49.3993Z" fill="black"/>
<path d="M60.0797 49.3993H57.333V52.146H60.0797V49.3993Z" fill="black"/>
<path d="M62.7467 49.3993H60V52.146H62.7467V49.3993Z" fill="black"/>
<path d="M73.4132 49.3993H70.6665V52.146H73.4132V49.3993Z" fill="black"/>
<path d="M76.0802 49.3993H73.3335V52.146H76.0802V49.3993Z" fill="black"/>
<path d="M81.4132 49.3993H78.6665V52.146H81.4132V49.3993Z" fill="black"/>
<path d="M89.4132 49.3993H86.6665V52.146H89.4132V49.3993Z" fill="black"/>
<path d="M92.0802 49.3993H89.3335V52.146H92.0802V49.3993Z" fill="black"/>
<path d="M94.7467 49.3993H92V52.146H94.7467V49.3993Z" fill="black"/>
<path d="M25.4132 52.0659H22.6665V54.8126H25.4132V52.0659Z" fill="black"/>
<path d="M28.0802 52.0659H25.3335V54.8126H28.0802V52.0659Z" fill="black"/>
<path d="M30.7467 52.0659H28V54.8126H30.7467V52.0659Z" fill="black"/>
<path d="M33.4132 52.0659H30.6665V54.8126H33.4132V52.0659Z" fill="black"/>
<path d="M38.7467 52.0659H36V54.8126H38.7467V52.0659Z" fill="black"/>
<path d="M44.0802 52.0659H41.3335V54.8126H44.0802V52.0659Z" fill="black"/>
<path d="M46.7467 52.0659H44V54.8126H46.7467V52.0659Z" fill="black"/>
<path d="M52.0802 52.0659H49.3335V54.8126H52.0802V52.0659Z" fill="black"/>
<path d="M54.7467 52.0659H52V54.8126H54.7467V52.0659Z" fill="black"/>
<path d="M60.0797 52.0659H57.333V54.8126H60.0797V52.0659Z" fill="black"/>
<path d="M68.0802 52.0659H65.3335V54.8126H68.0802V52.0659Z" fill="black"/>
<path d="M70.7467 52.0659H68V54.8126H70.7467V52.0659Z" fill="black"/>
<path d="M73.4132 52.0659H70.6665V54.8126H73.4132V52.0659Z" fill="black"/>
<path d="M76.0802 52.0659H73.3335V54.8126H76.0802V52.0659Z" fill="black"/>
<path d="M78.7467 52.0659H76V54.8126H78.7467V52.0659Z" fill="black"/>
<path d="M84.0797 52.0659H81.333V54.8126H84.0797V52.0659Z" fill="black"/>
<path d="M86.7467 52.0659H84V54.8126H86.7467V52.0659Z" fill="black"/>
<path d="M92.0802 52.0659H89.3335V54.8126H92.0802V52.0659Z" fill="black"/>
<path d="M94.7467 52.0659H92V54.8126H94.7467V52.0659Z" fill="black"/>
<path d="M20.0802 54.7327H17.3335V57.4793H20.0802V54.7327Z" fill="black"/>
<path d="M36.0797 54.7327H33.333V57.4793H36.0797V54.7327Z" fill="black"/>
<path d="M41.4132 54.7327H38.6665V57.4793H41.4132V54.7327Z" fill="black"/>
<path d="M44.0802 54.7327H41.3335V57.4793H44.0802V54.7327Z" fill="black"/>
<path d="M46.7467 54.7327H44V57.4793H46.7467V54.7327Z" fill="black"/>
<path d="M52.0802 54.7327H49.3335V57.4793H52.0802V54.7327Z" fill="black"/>
<path d="M54.7467 54.7327H52V57.4793H54.7467V54.7327Z" fill="black"/>
<path d="M57.4132 54.7327H54.6665V57.4793H57.4132V54.7327Z" fill="black"/>
<path d="M65.4132 54.7327H62.6665V57.4793H65.4132V54.7327Z" fill="black"/>
<path d="M68.0802 54.7327H65.3335V57.4793H68.0802V54.7327Z" fill="black"/>
<path d="M73.4132 54.7327H70.6665V57.4793H73.4132V54.7327Z" fill="black"/>
<path d="M78.7467 54.7327H76V57.4793H78.7467V54.7327Z" fill="black"/>
<path d="M81.4132 54.7327H78.6665V57.4793H81.4132V54.7327Z" fill="black"/>
<path d="M25.4132 57.3994H22.6665V60.1461H25.4132V57.3994Z" fill="black"/>
<path d="M33.4132 57.3994H30.6665V60.1461H33.4132V57.3994Z" fill="black"/>
<path d="M38.7467 57.3994H36V60.1461H38.7467V57.3994Z" fill="black"/>
<path d="M41.4132 57.3994H38.6665V60.1461H41.4132V57.3994Z" fill="black"/>
<path d="M46.7467 57.3994H44V60.1461H46.7467V57.3994Z" fill="black"/>
<path d="M52.0802 57.3994H49.3335V60.1461H52.0802V57.3994Z" fill="black"/>
<path d="M60.0797 57.3994H57.333V60.1461H60.0797V57.3994Z" fill="black"/>
<path d="M68.0802 57.3994H65.3335V60.1461H68.0802V57.3994Z" fill="black"/>
<path d="M76.0802 57.3994H73.3335V60.1461H76.0802V57.3994Z" fill="black"/>
<path d="M78.7467 57.3994H76V60.1461H78.7467V57.3994Z" fill="black"/>
<path d="M84.0797 57.3994H81.333V60.1461H84.0797V57.3994Z" fill="black"/>
<path d="M86.7467 57.3994H84V60.1461H86.7467V57.3994Z" fill="black"/>
<path d="M25.4132 60.066H22.6665V62.8127H25.4132V60.066Z" fill="black"/>
<path d="M30.7467 60.066H28V62.8127H30.7467V60.066Z" fill="black"/>
<path d="M33.4132 60.066H30.6665V62.8127H33.4132V60.066Z" fill="black"/>
<path d="M36.0797 60.066H33.333V62.8127H36.0797V60.066Z" fill="black"/>
<path d="M38.7467 60.066H36V62.8127H38.7467V60.066Z" fill="black"/>
<path d="M41.4132 60.066H38.6665V62.8127H41.4132V60.066Z" fill="black"/>
<path d="M49.4132 60.066H46.6665V62.8127H49.4132V60.066Z" fill="black"/>
<path d="M52.0802 60.066H49.3335V62.8127H52.0802V60.066Z" fill="black"/>
<path d="M57.4132 60.066H54.6665V62.8127H57.4132V60.066Z" fill="black"/>
<path d="M62.7467 60.066H60V62.8127H62.7467V60.066Z" fill="black"/>
<path d="M73.4132 60.066H70.6665V62.8127H73.4132V60.066Z" fill="black"/>
<path d="M81.4132 60.066H78.6665V62.8127H81.4132V60.066Z" fill="black"/>
<path d="M86.7467 60.066H84V62.8127H86.7467V60.066Z" fill="black"/>
<path d="M89.4132 60.066H86.6665V62.8127H89.4132V60.066Z" fill="black"/>
<path d="M92.0802 60.066H89.3335V62.8127H92.0802V60.066Z" fill="black"/>
<path d="M94.7467 60.066H92V62.8127H94.7467V60.066Z" fill="black"/>
<path d="M20.0802 62.7327H17.3335V65.4793H20.0802V62.7327Z" fill="black"/>
<path d="M30.7467 62.7327H28V65.4793H30.7467V62.7327Z" fill="black"/>
<path d="M33.4132 62.7327H30.6665V65.4793H33.4132V62.7327Z" fill="black"/>
<path d="M38.7467 62.7327H36V65.4793H38.7467V62.7327Z" fill="black"/>
<path d="M41.4132 62.7327H38.6665V65.4793H41.4132V62.7327Z" fill="black"/>
<path d="M46.7467 62.7327H44V65.4793H46.7467V62.7327Z" fill="black"/>
<path d="M52.0802 62.7327H49.3335V65.4793H52.0802V62.7327Z" fill="black"/>
<path d="M68.0802 62.7327H65.3335V65.4793H68.0802V62.7327Z" fill="black"/>
<path d="M70.7467 62.7327H68V65.4793H70.7467V62.7327Z" fill="black"/>
<path d="M73.4132 62.7327H70.6665V65.4793H73.4132V62.7327Z" fill="black"/>
<path d="M76.0802 62.7327H73.3335V65.4793H76.0802V62.7327Z" fill="black"/>
<path d="M81.4132 62.7327H78.6665V65.4793H81.4132V62.7327Z" fill="black"/>
<path d="M84.0797 62.7327H81.333V65.4793H84.0797V62.7327Z" fill="black"/>
<path d="M89.4132 62.7327H86.6665V65.4793H89.4132V62.7327Z" fill="black"/>
<path d="M92.0802 62.7327H89.3335V65.4793H92.0802V62.7327Z" fill="black"/>
<path d="M94.7467 62.7327H92V65.4793H94.7467V62.7327Z" fill="black"/>
<path d="M20.0802 65.3993H17.3335V68.146H20.0802V65.3993Z" fill="black"/>
<path d="M30.7467 65.3993H28V68.146H30.7467V65.3993Z" fill="black"/>
<path d="M33.4132 65.3993H30.6665V68.146H33.4132V65.3993Z" fill="black"/>
<path d="M36.0797 65.3993H33.333V68.146H36.0797V65.3993Z" fill="black"/>
<path d="M38.7467 65.3993H36V68.146H38.7467V65.3993Z" fill="black"/>
<path d="M41.4132 65.3993H38.6665V68.146H41.4132V65.3993Z" fill="black"/>
<path d="M44.0802 65.3993H41.3335V68.146H44.0802V65.3993Z" fill="black"/>
<path d="M54.7467 65.3993H52V68.146H54.7467V65.3993Z" fill="black"/>
<path d="M62.7467 65.3993H60V68.146H62.7467V65.3993Z" fill="black"/>
<path d="M68.0802 65.3993H65.3335V68.146H68.0802V65.3993Z" fill="black"/>
<path d="M73.4132 65.3993H70.6665V68.146H73.4132V65.3993Z" fill="black"/>
<path d="M78.7467 65.3993H76V68.146H78.7467V65.3993Z" fill="black"/>
<path d="M81.4132 65.3993H78.6665V68.146H81.4132V65.3993Z" fill="black"/>
<path d="M84.0797 65.3993H81.333V68.146H84.0797V65.3993Z" fill="black"/>
<path d="M86.7467 65.3993H84V68.146H86.7467V65.3993Z" fill="black"/>
<path d="M89.4132 65.3993H86.6665V68.146H89.4132V65.3993Z" fill="black"/>
<path d="M20.0802 68.066H17.3335V70.8127H20.0802V68.066Z" fill="black"/>
<path d="M30.7467 68.066H28V70.8127H30.7467V68.066Z" fill="black"/>
<path d="M46.7467 68.066H44V70.8127H46.7467V68.066Z" fill="black"/>
<path d="M49.4132 68.066H46.6665V70.8127H49.4132V68.066Z" fill="black"/>
<path d="M52.0802 68.066H49.3335V70.8127H52.0802V68.066Z" fill="black"/>
<path d="M54.7467 68.066H52V70.8127H54.7467V68.066Z" fill="black"/>
<path d="M57.4132 68.066H54.6665V70.8127H57.4132V68.066Z" fill="black"/>
<path d="M60.0797 68.066H57.333V70.8127H60.0797V68.066Z" fill="black"/>
<path d="M70.7467 68.066H68V70.8127H70.7467V68.066Z" fill="black"/>
<path d="M78.7467 68.066H76V70.8127H78.7467V68.066Z" fill="black"/>
<path d="M92.0802 68.066H89.3335V70.8127H92.0802V68.066Z" fill="black"/>
<path d="M94.7467 68.066H92V70.8127H94.7467V68.066Z" fill="black"/>
<path d="M20.0802 70.7327H17.3335V73.4793H20.0802V70.7327Z" fill="black"/>
<path d="M28.0802 70.7327H25.3335V73.4793H28.0802V70.7327Z" fill="black"/>
<path d="M33.4132 70.7327H30.6665V73.4793H33.4132V70.7327Z" fill="black"/>
<path d="M36.0797 70.7327H33.333V73.4793H36.0797V70.7327Z" fill="black"/>
<path d="M38.7467 70.7327H36V73.4793H38.7467V70.7327Z" fill="black"/>
<path d="M41.4132 70.7327H38.6665V73.4793H41.4132V70.7327Z" fill="black"/>
<path d="M52.0802 70.7327H49.3335V73.4793H52.0802V70.7327Z" fill="black"/>
<path d="M57.4132 70.7327H54.6665V73.4793H57.4132V70.7327Z" fill="black"/>
<path d="M62.7467 70.7327H60V73.4793H62.7467V70.7327Z" fill="black"/>
<path d="M73.4132 70.7327H70.6665V73.4793H73.4132V70.7327Z" fill="black"/>
<path d="M76.0802 70.7327H73.3335V73.4793H76.0802V70.7327Z" fill="black"/>
<path d="M78.7467 70.7327H76V73.4793H78.7467V70.7327Z" fill="black"/>
<path d="M81.4132 70.7327H78.6665V73.4793H81.4132V70.7327Z" fill="black"/>
<path d="M84.0797 70.7327H81.333V73.4793H84.0797V70.7327Z" fill="black"/>
<path d="M89.4132 70.7327H86.6665V73.4793H89.4132V70.7327Z" fill="black"/>
<path d="M41.4132 73.3993H38.6665V76.146H41.4132V73.3993Z" fill="black"/>
<path d="M46.7467 73.3993H44V76.146H46.7467V73.3993Z" fill="black"/>
<path d="M49.4132 73.3993H46.6665V76.146H49.4132V73.3993Z" fill="black"/>
<path d="M52.0802 73.3993H49.3335V76.146H52.0802V73.3993Z" fill="black"/>
<path d="M57.4132 73.3993H54.6665V76.146H57.4132V73.3993Z" fill="black"/>
<path d="M60.0797 73.3993H57.333V76.146H60.0797V73.3993Z" fill="black"/>
<path d="M65.4132 73.3993H62.6665V76.146H65.4132V73.3993Z" fill="black"/>
<path d="M68.0802 73.3993H65.3335V76.146H68.0802V73.3993Z" fill="black"/>
<path d="M70.7467 73.3993H68V76.146H70.7467V73.3993Z" fill="black"/>
<path d="M73.4132 73.3993H70.6665V76.146H73.4132V73.3993Z" fill="black"/>
<path d="M84.0797 73.3993H81.333V76.146H84.0797V73.3993Z" fill="black"/>
<path d="M86.7467 73.3993H84V76.146H86.7467V73.3993Z" fill="black"/>
<path d="M92.0802 73.3993H89.3335V76.146H92.0802V73.3993Z" fill="black"/>
<path d="M94.7467 73.3993H92V76.146H94.7467V73.3993Z" fill="black"/>
<path d="M49.4132 76.0659H46.6665V78.8126H49.4132V76.0659Z" fill="black"/>
<path d="M57.4132 76.0659H54.6665V78.8126H57.4132V76.0659Z" fill="black"/>
<path d="M60.0797 76.0659H57.333V78.8126H60.0797V76.0659Z" fill="black"/>
<path d="M65.4132 76.0659H62.6665V78.8126H65.4132V76.0659Z" fill="black"/>
<path d="M70.7467 76.0659H68V78.8126H70.7467V76.0659Z" fill="black"/>
<path d="M73.4132 76.0659H70.6665V78.8126H73.4132V76.0659Z" fill="black"/>
<path d="M78.7467 76.0659H76V78.8126H78.7467V76.0659Z" fill="black"/>
<path d="M84.0797 76.0659H81.333V78.8126H84.0797V76.0659Z" fill="black"/>
<path d="M46.7467 78.7327H44V81.4793H46.7467V78.7327Z" fill="black"/>
<path d="M54.7467 78.7327H52V81.4793H54.7467V78.7327Z" fill="black"/>
<path d="M57.4132 78.7327H54.6665V81.4793H57.4132V78.7327Z" fill="black"/>
<path d="M60.0797 78.7327H57.333V81.4793H60.0797V78.7327Z" fill="black"/>
<path d="M65.4132 78.7327H62.6665V81.4793H65.4132V78.7327Z" fill="black"/>
<path d="M68.0802 78.7327H65.3335V81.4793H68.0802V78.7327Z" fill="black"/>
<path d="M70.7467 78.7327H68V81.4793H70.7467V78.7327Z" fill="black"/>
<path d="M73.4132 78.7327H70.6665V81.4793H73.4132V78.7327Z" fill="black"/>
<path d="M84.0797 78.7327H81.333V81.4793H84.0797V78.7327Z" fill="black"/>
<path d="M86.7467 78.7327H84V81.4793H86.7467V78.7327Z" fill="black"/>
<path d="M92.0802 78.7327H89.3335V81.4793H92.0802V78.7327Z" fill="black"/>
<path d="M41.4132 81.3993H38.6665V84.146H41.4132V81.3993Z" fill="black"/>
<path d="M52.0802 81.3993H49.3335V84.146H52.0802V81.3993Z" fill="black"/>
<path d="M60.0797 81.3993H57.333V84.146H60.0797V81.3993Z" fill="black"/>
<path d="M62.7467 81.3993H60V84.146H62.7467V81.3993Z" fill="black"/>
<path d="M65.4132 81.3993H62.6665V84.146H65.4132V81.3993Z" fill="black"/>
<path d="M73.4132 81.3993H70.6665V84.146H73.4132V81.3993Z" fill="black"/>
<path d="M76.0802 81.3993H73.3335V84.146H76.0802V81.3993Z" fill="black"/>
<path d="M78.7467 81.3993H76V84.146H78.7467V81.3993Z" fill="black"/>
<path d="M81.4132 81.3993H78.6665V84.146H81.4132V81.3993Z" fill="black"/>
<path d="M84.0797 81.3993H81.333V84.146H84.0797V81.3993Z" fill="black"/>
<path d="M86.7467 81.3993H84V84.146H86.7467V81.3993Z" fill="black"/>
<path d="M89.4132 81.3993H86.6665V84.146H89.4132V81.3993Z" fill="black"/>
<path d="M94.7467 81.3993H92V84.146H94.7467V81.3993Z" fill="black"/>
<path d="M41.4132 84.0659H38.6665V86.8126H41.4132V84.0659Z" fill="black"/>
<path d="M44.0802 84.0659H41.3335V86.8126H44.0802V84.0659Z" fill="black"/>
<path d="M49.4132 84.0659H46.6665V86.8126H49.4132V84.0659Z" fill="black"/>
<path d="M52.0802 84.0659H49.3335V86.8126H52.0802V84.0659Z" fill="black"/>
<path d="M60.0797 84.0659H57.333V86.8126H60.0797V84.0659Z" fill="black"/>
<path d="M68.0802 84.0659H65.3335V86.8126H68.0802V84.0659Z" fill="black"/>
<path d="M70.7467 84.0659H68V86.8126H70.7467V84.0659Z" fill="black"/>
<path d="M73.4132 84.0659H70.6665V86.8126H73.4132V84.0659Z" fill="black"/>
<path d="M76.0802 84.0659H73.3335V86.8126H76.0802V84.0659Z" fill="black"/>
<path d="M81.4132 84.0659H78.6665V86.8126H81.4132V84.0659Z" fill="black"/>
<path d="M86.7467 84.0659H84V86.8126H86.7467V84.0659Z" fill="black"/>
<path d="M89.4132 84.0659H86.6665V86.8126H89.4132V84.0659Z" fill="black"/>
<path d="M41.4132 86.7327H38.6665V89.4793H41.4132V86.7327Z" fill="black"/>
<path d="M44.0802 86.7327H41.3335V89.4793H44.0802V86.7327Z" fill="black"/>
<path d="M49.4132 86.7327H46.6665V89.4793H49.4132V86.7327Z" fill="black"/>
<path d="M52.0802 86.7327H49.3335V89.4793H52.0802V86.7327Z" fill="black"/>
<path d="M57.4132 86.7327H54.6665V89.4793H57.4132V86.7327Z" fill="black"/>
<path d="M62.7467 86.7327H60V89.4793H62.7467V86.7327Z" fill="black"/>
<path d="M68.0802 86.7327H65.3335V89.4793H68.0802V86.7327Z" fill="black"/>
<path d="M70.7467 86.7327H68V89.4793H70.7467V86.7327Z" fill="black"/>
<path d="M73.4132 86.7327H70.6665V89.4793H73.4132V86.7327Z" fill="black"/>
<path d="M76.0802 86.7327H73.3335V89.4793H76.0802V86.7327Z" fill="black"/>
<path d="M78.7467 86.7327H76V89.4793H78.7467V86.7327Z" fill="black"/>
<path d="M81.4132 86.7327H78.6665V89.4793H81.4132V86.7327Z" fill="black"/>
<path d="M84.0797 86.7327H81.333V89.4793H84.0797V86.7327Z" fill="black"/>
<path d="M86.7467 86.7327H84V89.4793H86.7467V86.7327Z" fill="black"/>
<path d="M89.4132 86.7327H86.6665V89.4793H89.4132V86.7327Z" fill="black"/>
<path d="M92.0802 86.7327H89.3335V89.4793H92.0802V86.7327Z" fill="black"/>
<path d="M46.7467 89.3993H44V92.146H46.7467V89.3993Z" fill="black"/>
<path d="M54.7467 89.3993H52V92.146H54.7467V89.3993Z" fill="black"/>
<path d="M57.4132 89.3993H54.6665V92.146H57.4132V89.3993Z" fill="black"/>
<path d="M70.7467 89.3993H68V92.146H70.7467V89.3993Z" fill="black"/>
<path d="M73.4132 89.3993H70.6665V92.146H73.4132V89.3993Z" fill="black"/>
<path d="M78.7467 89.3993H76V92.146H78.7467V89.3993Z" fill="black"/>
<path d="M84.0797 89.3993H81.333V92.146H84.0797V89.3993Z" fill="black"/>
<path d="M86.7467 89.3993H84V92.146H86.7467V89.3993Z" fill="black"/>
<path d="M92.0802 89.3993H89.3335V92.146H92.0802V89.3993Z" fill="black"/>
<path d="M46.7467 92.066H44V94.8127H46.7467V92.066Z" fill="black"/>
<path d="M62.7467 92.066H60V94.8127H62.7467V92.066Z" fill="black"/>
<path d="M65.4132 92.066H62.6665V94.8127H65.4132V92.066Z" fill="black"/>
<path d="M70.7467 92.066H68V94.8127H70.7467V92.066Z" fill="black"/>
<path d="M78.7467 92.066H76V94.8127H78.7467V92.066Z" fill="black"/>
<path d="M84.0797 92.066H81.333V94.8127H84.0797V92.066Z" fill="black"/>
<path d="M86.7467 92.066H84V94.8127H86.7467V92.066Z" fill="black"/>
<path d="M89.4132 92.066H86.6665V94.8127H89.4132V92.066Z" fill="black"/>
<path d="M17.3335 17.3993V36.066H36.0002V17.3993H17.3335ZM33.3335 33.3993H20.0002V20.066H33.3335V33.3993Z" fill="black"/>
<path d="M76 17.3993V36.066H94.6667V17.3993H76ZM92 33.3993H78.6667V20.066H92V33.3993Z" fill="black"/>
<path d="M17.3335 76.0659V94.7326H36.0002V76.0659H17.3335ZM33.3335 92.0659H20.0002V78.7326H33.3335V92.0659Z" fill="black"/>
<path d="M30.6665 22.7327H22.6665V30.7327H30.6665V22.7327Z" fill="black"/>
<path d="M89.333 22.7327H81.333V30.7327H89.333V22.7327Z" fill="black"/>
<path d="M30.6665 81.3993H22.6665V89.3993H30.6665V81.3993Z" fill="black"/>
</g>
<defs>
<linearGradient id="paint0_linear_3552_141182" x1="110" y1="2.06592" x2="2" y2="110.066" gradientUnits="userSpaceOnUse">
<stop stop-color="#BE1B22"/>
<stop offset="0.395" stop-color="#EA6C17"/>
<stop offset="0.69" stop-color="#D658BF"/>
<stop offset="1" stop-color="#66DF2C"/>
</linearGradient>
<clipPath id="clip0_3552_141182">
<rect width="88" height="88" fill="white" transform="translate(12 12.0659)"/>
</clipPath>
</defs>
</svg>
