<svg width="511" height="319" viewBox="0 0 511 319" fill="none" xmlns="http://www.w3.org/2000/svg">
<g filter="url(#filter0_d_3811_691)">
<g filter="url(#filter1_d_3811_691)">
<path d="M78 20C78 15.5817 81.5817 12 86 12H467C471.418 12 475 15.5817 475 20V152C475 156.418 471.418 160 467 160H86C81.5817 160 78 156.418 78 152V20Z" fill="white"/>
<path d="M78.5 20C78.5 15.8579 81.8579 12.5 86 12.5H467C471.142 12.5 474.5 15.8579 474.5 20V152C474.5 156.142 471.142 159.5 467 159.5H86C81.8579 159.5 78.5 156.142 78.5 152V20Z" stroke="#F0F1F3"/>
<path d="M104.943 34.1477H103.17C103.102 33.7689 102.975 33.4356 102.79 33.1477C102.604 32.8598 102.377 32.6155 102.108 32.4148C101.839 32.214 101.538 32.0625 101.205 31.9602C100.875 31.858 100.525 31.8068 100.153 31.8068C99.483 31.8068 98.8826 31.9754 98.3523 32.3125C97.8258 32.6496 97.4091 33.1439 97.1023 33.7955C96.7992 34.447 96.6477 35.2424 96.6477 36.1818C96.6477 37.1288 96.7992 37.928 97.1023 38.5795C97.4091 39.2311 97.8277 39.7235 98.358 40.0568C98.8883 40.3902 99.4848 40.5568 100.148 40.5568C100.515 40.5568 100.864 40.5076 101.193 40.4091C101.527 40.3068 101.828 40.1572 102.097 39.9602C102.366 39.7633 102.593 39.5227 102.778 39.2386C102.968 38.9508 103.098 38.6212 103.17 38.25L104.943 38.2557C104.848 38.8277 104.665 39.3542 104.392 39.8352C104.123 40.3125 103.777 40.7254 103.352 41.0739C102.932 41.4186 102.451 41.6856 101.909 41.875C101.367 42.0644 100.777 42.1591 100.136 42.1591C99.1288 42.1591 98.2311 41.9205 97.4432 41.4432C96.6553 40.9621 96.0341 40.2746 95.5795 39.3807C95.1288 38.4867 94.9034 37.4205 94.9034 36.1818C94.9034 34.9394 95.1307 33.8731 95.5852 32.983C96.0398 32.089 96.661 31.4034 97.4489 30.9261C98.2367 30.4451 99.1326 30.2045 100.136 30.2045C100.754 30.2045 101.33 30.2936 101.864 30.4716C102.402 30.6458 102.884 30.9034 103.312 31.2443C103.741 31.5814 104.095 31.9943 104.375 32.483C104.655 32.9678 104.845 33.5227 104.943 34.1477ZM108.607 30.3636V42H106.908V30.3636H108.607ZM110.892 42V33.2727H112.591V42H110.892ZM111.75 31.9261C111.455 31.9261 111.201 31.8277 110.989 31.6307C110.78 31.4299 110.676 31.1913 110.676 30.9148C110.676 30.6345 110.78 30.3958 110.989 30.1989C111.201 29.9981 111.455 29.8977 111.75 29.8977C112.045 29.8977 112.297 29.9981 112.506 30.1989C112.718 30.3958 112.824 30.6345 112.824 30.9148C112.824 31.1913 112.718 31.4299 112.506 31.6307C112.297 31.8277 112.045 31.9261 111.75 31.9261ZM116.575 36.8182V42H114.876V33.2727H116.507V34.6932H116.615C116.816 34.2311 117.13 33.8598 117.558 33.5795C117.99 33.2992 118.534 33.1591 119.189 33.1591C119.784 33.1591 120.304 33.2841 120.751 33.5341C121.198 33.7803 121.545 34.1477 121.791 34.6364C122.037 35.125 122.161 35.7292 122.161 36.4489V42H120.462V36.6534C120.462 36.0208 120.297 35.5265 119.967 35.1705C119.638 34.8106 119.185 34.6307 118.609 34.6307C118.215 34.6307 117.865 34.7159 117.558 34.8864C117.255 35.0568 117.015 35.3068 116.837 35.6364C116.662 35.9621 116.575 36.3561 116.575 36.8182ZM124.439 42V33.2727H126.138V42H124.439ZM125.297 31.9261C125.001 31.9261 124.748 31.8277 124.536 31.6307C124.327 31.4299 124.223 31.1913 124.223 30.9148C124.223 30.6345 124.327 30.3958 124.536 30.1989C124.748 29.9981 125.001 29.8977 125.297 29.8977C125.592 29.8977 125.844 29.9981 126.053 30.1989C126.265 30.3958 126.371 30.6345 126.371 30.9148C126.371 31.1913 126.265 31.4299 126.053 31.6307C125.844 31.8277 125.592 31.9261 125.297 31.9261ZM132.099 42.1761C131.255 42.1761 130.527 41.9848 129.918 41.6023C129.312 41.2159 128.846 40.6837 128.52 40.0057C128.194 39.3277 128.031 38.5511 128.031 37.6761C128.031 36.7898 128.198 36.0076 128.531 35.3295C128.865 34.6477 129.334 34.1155 129.94 33.733C130.546 33.3504 131.26 33.1591 132.082 33.1591C132.745 33.1591 133.336 33.2822 133.855 33.5284C134.374 33.7708 134.793 34.1117 135.111 34.5511C135.433 34.9905 135.624 35.5038 135.685 36.0909H134.031C133.94 35.6818 133.732 35.3295 133.406 35.0341C133.084 34.7386 132.652 34.5909 132.111 34.5909C131.637 34.5909 131.223 34.7159 130.866 34.9659C130.514 35.2121 130.24 35.5644 130.043 36.0227C129.846 36.4773 129.747 37.0152 129.747 37.6364C129.747 38.2727 129.844 38.822 130.037 39.2841C130.23 39.7462 130.503 40.1042 130.855 40.358C131.211 40.6117 131.63 40.7386 132.111 40.7386C132.433 40.7386 132.724 40.6799 132.986 40.5625C133.251 40.4413 133.473 40.2689 133.651 40.0455C133.832 39.822 133.959 39.553 134.031 39.2386H135.685C135.624 39.803 135.44 40.3068 135.134 40.75C134.827 41.1932 134.416 41.5417 133.901 41.7955C133.389 42.0492 132.789 42.1761 132.099 42.1761ZM142.889 30.3636L146.128 39.8409H146.259L149.497 30.3636H151.395L147.207 42H145.179L140.991 30.3636H142.889ZM152.939 42V33.2727H154.638V42H152.939ZM153.797 31.9261C153.501 31.9261 153.248 31.8277 153.036 31.6307C152.827 31.4299 152.723 31.1913 152.723 30.9148C152.723 30.6345 152.827 30.3958 153.036 30.1989C153.248 29.9981 153.501 29.8977 153.797 29.8977C154.092 29.8977 154.344 29.9981 154.553 30.1989C154.765 30.3958 154.871 30.6345 154.871 30.9148C154.871 31.1913 154.765 31.4299 154.553 31.6307C154.344 31.8277 154.092 31.9261 153.797 31.9261ZM163.463 35.4034L161.923 35.6761C161.859 35.4792 161.757 35.2917 161.616 35.1136C161.48 34.9356 161.295 34.7898 161.06 34.6761C160.825 34.5625 160.531 34.5057 160.179 34.5057C159.698 34.5057 159.296 34.6136 158.974 34.8295C158.652 35.0417 158.491 35.3163 158.491 35.6534C158.491 35.9451 158.599 36.1799 158.815 36.358C159.031 36.536 159.38 36.6818 159.861 36.7955L161.247 37.1136C162.05 37.2992 162.649 37.5852 163.043 37.9716C163.437 38.358 163.634 38.8598 163.634 39.4773C163.634 40 163.482 40.4659 163.179 40.875C162.88 41.2803 162.461 41.5985 161.923 41.8295C161.389 42.0606 160.77 42.1761 160.065 42.1761C159.088 42.1761 158.291 41.9678 157.673 41.5511C157.056 41.1307 156.677 40.5341 156.537 39.7614L158.179 39.5114C158.281 39.9394 158.491 40.2633 158.81 40.483C159.128 40.6989 159.543 40.8068 160.054 40.8068C160.611 40.8068 161.056 40.6913 161.389 40.4602C161.723 40.2254 161.889 39.9394 161.889 39.6023C161.889 39.3295 161.787 39.1004 161.582 38.9148C161.382 38.7292 161.073 38.589 160.656 38.4943L159.179 38.1705C158.365 37.9848 157.762 37.6894 157.372 37.2841C156.986 36.8788 156.793 36.3655 156.793 35.7443C156.793 35.2292 156.937 34.7784 157.224 34.392C157.512 34.0057 157.91 33.7045 158.418 33.4886C158.925 33.2689 159.507 33.1591 160.162 33.1591C161.105 33.1591 161.848 33.3636 162.389 33.7727C162.931 34.178 163.289 34.7216 163.463 35.4034ZM165.501 42V33.2727H167.2V42H165.501ZM166.359 31.9261C166.064 31.9261 165.81 31.8277 165.598 31.6307C165.39 31.4299 165.286 31.1913 165.286 30.9148C165.286 30.6345 165.39 30.3958 165.598 30.1989C165.81 29.9981 166.064 29.8977 166.359 29.8977C166.655 29.8977 166.907 29.9981 167.115 30.1989C167.327 30.3958 167.433 30.6345 167.433 30.9148C167.433 31.1913 167.327 31.4299 167.115 31.6307C166.907 31.8277 166.655 31.9261 166.359 31.9261ZM173.56 33.2727V34.6364H168.793V33.2727H173.56ZM170.071 31.1818H171.77V39.4375C171.77 39.767 171.819 40.0152 171.918 40.1818C172.016 40.3447 172.143 40.4564 172.298 40.517C172.457 40.5739 172.63 40.6023 172.815 40.6023C172.952 40.6023 173.071 40.5928 173.173 40.5739C173.276 40.5549 173.355 40.5398 173.412 40.5284L173.719 41.9318C173.62 41.9697 173.48 42.0076 173.298 42.0455C173.116 42.0871 172.889 42.1098 172.616 42.1136C172.17 42.1212 171.753 42.0417 171.366 41.875C170.98 41.7083 170.668 41.4508 170.429 41.1023C170.19 40.7538 170.071 40.3163 170.071 39.7898V31.1818ZM181.838 35.4034L180.298 35.6761C180.234 35.4792 180.132 35.2917 179.991 35.1136C179.855 34.9356 179.67 34.7898 179.435 34.6761C179.2 34.5625 178.906 34.5057 178.554 34.5057C178.073 34.5057 177.671 34.6136 177.349 34.8295C177.027 35.0417 176.866 35.3163 176.866 35.6534C176.866 35.9451 176.974 36.1799 177.19 36.358C177.406 36.536 177.755 36.6818 178.236 36.7955L179.622 37.1136C180.425 37.2992 181.024 37.5852 181.418 37.9716C181.812 38.358 182.009 38.8598 182.009 39.4773C182.009 40 181.857 40.4659 181.554 40.875C181.255 41.2803 180.836 41.5985 180.298 41.8295C179.764 42.0606 179.145 42.1761 178.44 42.1761C177.463 42.1761 176.666 41.9678 176.048 41.5511C175.431 41.1307 175.052 40.5341 174.912 39.7614L176.554 39.5114C176.656 39.9394 176.866 40.2633 177.185 40.483C177.503 40.6989 177.918 40.8068 178.429 40.8068C178.986 40.8068 179.431 40.6913 179.764 40.4602C180.098 40.2254 180.264 39.9394 180.264 39.6023C180.264 39.3295 180.162 39.1004 179.957 38.9148C179.757 38.7292 179.448 38.589 179.031 38.4943L177.554 38.1705C176.74 37.9848 176.137 37.6894 175.747 37.2841C175.361 36.8788 175.168 36.3655 175.168 35.7443C175.168 35.2292 175.312 34.7784 175.599 34.392C175.887 34.0057 176.285 33.7045 176.793 33.4886C177.3 33.2689 177.882 33.1591 178.537 33.1591C179.48 33.1591 180.223 33.3636 180.764 33.7727C181.306 34.178 181.664 34.7216 181.838 35.4034Z" fill="#48505E"/>
<path d="M95.233 63V52.8182H96.4659V61.9062H101.199V63H95.233ZM105.196 63.179C104.712 63.179 104.273 63.0878 103.879 62.9055C103.484 62.7199 103.171 62.4531 102.939 62.1051C102.707 61.7538 102.591 61.3295 102.591 60.8324C102.591 60.3949 102.677 60.0402 102.849 59.7685C103.022 59.4934 103.252 59.2779 103.54 59.1222C103.829 58.9664 104.147 58.8504 104.495 58.7741C104.846 58.6946 105.199 58.6316 105.554 58.5852C106.018 58.5256 106.394 58.4808 106.683 58.451C106.974 58.4179 107.186 58.3632 107.319 58.2869C107.455 58.2107 107.523 58.0781 107.523 57.8892V57.8494C107.523 57.3589 107.388 56.9777 107.12 56.706C106.855 56.4342 106.452 56.2983 105.912 56.2983C105.352 56.2983 104.913 56.4209 104.594 56.6662C104.276 56.9115 104.053 57.1733 103.923 57.4517L102.81 57.054C103.009 56.59 103.274 56.2287 103.605 55.9702C103.94 55.7083 104.304 55.526 104.699 55.4233C105.097 55.3172 105.488 55.2642 105.872 55.2642C106.117 55.2642 106.399 55.294 106.717 55.3537C107.039 55.41 107.349 55.5277 107.647 55.7067C107.949 55.8857 108.199 56.1558 108.398 56.517C108.597 56.8783 108.696 57.3622 108.696 57.9688V63H107.523V61.9659H107.463C107.384 62.1316 107.251 62.3089 107.065 62.4979C106.88 62.6868 106.633 62.8475 106.325 62.9801C106.016 63.1127 105.64 63.179 105.196 63.179ZM105.375 62.125C105.839 62.125 106.23 62.0339 106.548 61.8516C106.87 61.6693 107.112 61.4339 107.274 61.1456C107.44 60.8572 107.523 60.554 107.523 60.2358V59.1619C107.473 59.2216 107.364 59.2763 107.195 59.326C107.029 59.3724 106.837 59.4138 106.618 59.4503C106.402 59.4834 106.192 59.5133 105.987 59.5398C105.784 59.563 105.62 59.5829 105.494 59.5994C105.189 59.6392 104.904 59.7038 104.639 59.7933C104.377 59.8795 104.165 60.0104 104.003 60.1861C103.844 60.3584 103.764 60.5937 103.764 60.892C103.764 61.2997 103.915 61.608 104.217 61.8168C104.522 62.0223 104.908 62.125 105.375 62.125ZM116.247 57.0739L115.193 57.3722C115.126 57.1965 115.029 57.0258 114.899 56.8601C114.773 56.6911 114.601 56.5518 114.382 56.4425C114.164 56.3331 113.883 56.2784 113.542 56.2784C113.075 56.2784 112.685 56.3861 112.374 56.6016C112.066 56.8137 111.911 57.0838 111.911 57.4119C111.911 57.7036 112.017 57.9339 112.23 58.103C112.442 58.272 112.773 58.4129 113.224 58.5256L114.357 58.804C115.04 58.9697 115.549 59.2232 115.884 59.5646C116.218 59.9027 116.386 60.3385 116.386 60.8722C116.386 61.3097 116.26 61.7008 116.008 62.0455C115.759 62.3902 115.411 62.6619 114.964 62.8608C114.517 63.0597 113.996 63.1591 113.403 63.1591C112.624 63.1591 111.979 62.9901 111.469 62.652C110.959 62.3139 110.635 61.8201 110.499 61.1705L111.613 60.892C111.719 61.303 111.92 61.6113 112.215 61.8168C112.513 62.0223 112.902 62.125 113.383 62.125C113.93 62.125 114.364 62.009 114.686 61.777C115.01 61.5417 115.173 61.2599 115.173 60.9318C115.173 60.6667 115.08 60.4446 114.894 60.2656C114.709 60.0833 114.424 59.9474 114.039 59.858L112.767 59.5597C112.067 59.3939 111.553 59.1371 111.225 58.7891C110.901 58.4377 110.738 57.9986 110.738 57.4716C110.738 57.0407 110.859 56.6596 111.101 56.3281C111.346 55.9967 111.679 55.7365 112.1 55.5476C112.525 55.3587 113.005 55.2642 113.542 55.2642C114.298 55.2642 114.891 55.4299 115.322 55.7614C115.756 56.0928 116.064 56.5303 116.247 57.0739ZM121.473 55.3636V56.358H117.516V55.3636H121.473ZM118.669 53.5341H119.842V60.8125C119.842 61.1439 119.89 61.3925 119.987 61.5582C120.086 61.7206 120.212 61.83 120.364 61.8864C120.52 61.9394 120.684 61.9659 120.857 61.9659C120.986 61.9659 121.092 61.9593 121.175 61.946C121.258 61.9295 121.324 61.9162 121.374 61.9062L121.612 62.9602C121.533 62.9901 121.422 63.0199 121.279 63.0497C121.137 63.0829 120.956 63.0994 120.737 63.0994C120.406 63.0994 120.081 63.0282 119.763 62.8857C119.448 62.7431 119.186 62.526 118.977 62.2344C118.772 61.9427 118.669 61.5748 118.669 61.1307V53.5341ZM127.474 63L132.028 53.9915V53.9119H126.778V52.8182H133.3V53.9716L128.766 63H127.474ZM141.994 63.1591C141.358 63.1591 140.796 62.9983 140.309 62.6768C139.822 62.352 139.441 61.8946 139.166 61.3047C138.891 60.7114 138.753 60.0104 138.753 59.2017C138.753 58.3996 138.891 57.7036 139.166 57.1136C139.441 56.5237 139.824 56.0679 140.314 55.7464C140.805 55.425 141.371 55.2642 142.014 55.2642C142.512 55.2642 142.904 55.3471 143.193 55.5128C143.484 55.6752 143.706 55.8608 143.859 56.0696C144.015 56.2751 144.136 56.4441 144.222 56.5767H144.321V52.8182H145.494V63H144.361V61.8267H144.222C144.136 61.9659 144.013 62.1416 143.854 62.3537C143.695 62.5625 143.468 62.7498 143.173 62.9155C142.878 63.0779 142.485 63.1591 141.994 63.1591ZM142.154 62.1051C142.624 62.1051 143.022 61.9825 143.347 61.7372C143.672 61.4886 143.919 61.1456 144.088 60.7081C144.257 60.2673 144.341 59.7585 144.341 59.1818C144.341 58.6117 144.258 58.1129 144.093 57.6854C143.927 57.2545 143.682 56.9197 143.357 56.6811C143.032 56.4392 142.631 56.3182 142.154 56.3182C141.656 56.3182 141.242 56.4458 140.911 56.701C140.583 56.9529 140.336 57.2959 140.17 57.7301C140.008 58.161 139.926 58.6449 139.926 59.1818C139.926 59.7254 140.009 60.2192 140.175 60.6634C140.344 61.1042 140.593 61.4555 140.921 61.7173C141.252 61.9759 141.663 62.1051 142.154 62.1051ZM150.053 63.179C149.57 63.179 149.13 63.0878 148.736 62.9055C148.342 62.7199 148.028 62.4531 147.796 62.1051C147.564 61.7538 147.448 61.3295 147.448 60.8324C147.448 60.3949 147.535 60.0402 147.707 59.7685C147.879 59.4934 148.11 59.2779 148.398 59.1222C148.686 58.9664 149.004 58.8504 149.352 58.7741C149.704 58.6946 150.057 58.6316 150.411 58.5852C150.875 58.5256 151.252 58.4808 151.54 58.451C151.832 58.4179 152.044 58.3632 152.176 58.2869C152.312 58.2107 152.38 58.0781 152.38 57.8892V57.8494C152.38 57.3589 152.246 56.9777 151.977 56.706C151.712 56.4342 151.31 56.2983 150.769 56.2983C150.209 56.2983 149.77 56.4209 149.452 56.6662C149.134 56.9115 148.91 57.1733 148.781 57.4517L147.667 57.054C147.866 56.59 148.131 56.2287 148.463 55.9702C148.797 55.7083 149.162 55.526 149.556 55.4233C149.954 55.3172 150.345 55.2642 150.73 55.2642C150.975 55.2642 151.257 55.294 151.575 55.3537C151.896 55.41 152.206 55.5277 152.504 55.7067C152.806 55.8857 153.056 56.1558 153.255 56.517C153.454 56.8783 153.553 57.3622 153.553 57.9688V63H152.38V61.9659H152.32C152.241 62.1316 152.108 62.3089 151.923 62.4979C151.737 62.6868 151.49 62.8475 151.182 62.9801C150.874 63.1127 150.498 63.179 150.053 63.179ZM150.232 62.125C150.696 62.125 151.088 62.0339 151.406 61.8516C151.727 61.6693 151.969 61.4339 152.132 61.1456C152.297 60.8572 152.38 60.554 152.38 60.2358V59.1619C152.33 59.2216 152.221 59.2763 152.052 59.326C151.886 59.3724 151.694 59.4138 151.475 59.4503C151.26 59.4834 151.049 59.5133 150.844 59.5398C150.642 59.563 150.478 59.5829 150.352 59.5994C150.047 59.6392 149.762 59.7038 149.497 59.7933C149.235 59.8795 149.023 60.0104 148.86 60.1861C148.701 60.3584 148.622 60.5937 148.622 60.892C148.622 61.2997 148.772 61.608 149.074 61.8168C149.379 62.0223 149.765 62.125 150.232 62.125ZM156.177 65.8636C155.978 65.8636 155.801 65.8471 155.645 65.8139C155.489 65.7841 155.382 65.7543 155.322 65.7244L155.62 64.6903C155.905 64.7633 156.157 64.7898 156.376 64.7699C156.595 64.75 156.789 64.6522 156.958 64.4766C157.13 64.3042 157.288 64.0241 157.43 63.6364L157.649 63.0398L154.825 55.3636H156.098L158.206 61.4489H158.285L160.393 55.3636H161.666L158.424 64.1136C158.279 64.508 158.098 64.8345 157.882 65.093C157.667 65.3549 157.417 65.5488 157.132 65.6747C156.85 65.8007 156.532 65.8636 156.177 65.8636ZM168.624 57.0739L167.57 57.3722C167.503 57.1965 167.406 57.0258 167.276 56.8601C167.15 56.6911 166.978 56.5518 166.759 56.4425C166.54 56.3331 166.26 56.2784 165.919 56.2784C165.452 56.2784 165.062 56.3861 164.751 56.6016C164.442 56.8137 164.288 57.0838 164.288 57.4119C164.288 57.7036 164.394 57.9339 164.607 58.103C164.819 58.272 165.15 58.4129 165.601 58.5256L166.734 58.804C167.417 58.9697 167.926 59.2232 168.261 59.5646C168.595 59.9027 168.763 60.3385 168.763 60.8722C168.763 61.3097 168.637 61.7008 168.385 62.0455C168.136 62.3902 167.788 62.6619 167.341 62.8608C166.893 63.0597 166.373 63.1591 165.78 63.1591C165.001 63.1591 164.356 62.9901 163.846 62.652C163.335 62.3139 163.012 61.8201 162.876 61.1705L163.99 60.892C164.096 61.303 164.297 61.6113 164.592 61.8168C164.89 62.0223 165.279 62.125 165.76 62.125C166.307 62.125 166.741 62.009 167.062 61.777C167.387 61.5417 167.55 61.2599 167.55 60.9318C167.55 60.6667 167.457 60.4446 167.271 60.2656C167.086 60.0833 166.801 59.9474 166.416 59.858L165.143 59.5597C164.444 59.3939 163.93 59.1371 163.602 58.7891C163.277 58.4377 163.115 57.9986 163.115 57.4716C163.115 57.0407 163.236 56.6596 163.478 56.3281C163.723 55.9967 164.056 55.7365 164.477 55.5476C164.902 55.3587 165.382 55.2642 165.919 55.2642C166.675 55.2642 167.268 55.4299 167.699 55.7614C168.133 56.0928 168.441 56.5303 168.624 57.0739Z" fill="#667085"/>
<path d="M445.74 39.53L449.26 36L445.74 32.47" stroke="#667085" stroke-width="1.5" stroke-linecap="round" stroke-linejoin="round"/>
<path d="M100.513 119.199C99.4901 119.199 98.581 119.024 97.7855 118.673C96.9948 118.323 96.3698 117.835 95.9105 117.21C95.4512 116.585 95.2074 115.863 95.179 115.044H97.8494C97.8731 115.437 98.0033 115.78 98.2401 116.074C98.4768 116.363 98.7917 116.588 99.1847 116.749C99.5777 116.91 100.018 116.99 100.506 116.99C101.027 116.99 101.488 116.9 101.891 116.72C102.293 116.536 102.608 116.28 102.835 115.953C103.063 115.626 103.174 115.25 103.169 114.824C103.174 114.384 103.06 113.995 102.828 113.659C102.596 113.323 102.26 113.06 101.82 112.871C101.384 112.681 100.858 112.587 100.243 112.587H98.9574V110.555H100.243C100.75 110.555 101.192 110.468 101.571 110.293C101.955 110.117 102.255 109.871 102.473 109.554C102.691 109.232 102.797 108.86 102.793 108.439C102.797 108.027 102.705 107.67 102.516 107.366C102.331 107.059 102.068 106.82 101.727 106.649C101.391 106.479 100.996 106.393 100.541 106.393C100.096 106.393 99.6842 106.474 99.3054 106.635C98.9266 106.796 98.6212 107.026 98.3892 107.324C98.1572 107.617 98.0341 107.968 98.0199 108.375H95.4844C95.5033 107.561 95.7377 106.846 96.1875 106.23C96.642 105.61 97.2481 105.127 98.0057 104.781C98.7633 104.431 99.6132 104.256 100.555 104.256C101.526 104.256 102.369 104.438 103.084 104.803C103.804 105.162 104.36 105.648 104.753 106.259C105.146 106.869 105.342 107.544 105.342 108.283C105.347 109.102 105.106 109.788 104.618 110.342C104.135 110.896 103.5 111.259 102.714 111.429V111.543C103.737 111.685 104.521 112.063 105.065 112.679C105.615 113.29 105.887 114.05 105.882 114.959C105.882 115.773 105.65 116.502 105.186 117.146C104.727 117.786 104.092 118.287 103.283 118.652C102.478 119.017 101.554 119.199 100.513 119.199ZM113.696 119.277C112.527 119.277 111.523 118.981 110.685 118.389C109.852 117.793 109.21 116.933 108.76 115.811C108.315 114.684 108.093 113.328 108.093 111.741C108.097 110.155 108.322 108.806 108.767 107.693C109.217 106.576 109.859 105.723 110.692 105.136C111.53 104.549 112.532 104.256 113.696 104.256C114.861 104.256 115.863 104.549 116.701 105.136C117.539 105.723 118.18 106.576 118.625 107.693C119.075 108.811 119.3 110.16 119.3 111.741C119.3 113.332 119.075 114.691 118.625 115.818C118.18 116.94 117.539 117.797 116.701 118.389C115.867 118.981 114.866 119.277 113.696 119.277ZM113.696 117.054C114.605 117.054 115.323 116.607 115.848 115.712C116.379 114.812 116.644 113.489 116.644 111.741C116.644 110.586 116.523 109.616 116.282 108.83C116.04 108.044 115.699 107.452 115.259 107.054C114.819 106.652 114.298 106.45 113.696 106.45C112.792 106.45 112.077 106.9 111.551 107.8C111.026 108.695 110.761 110.009 110.756 111.741C110.751 112.902 110.867 113.877 111.104 114.668C111.346 115.458 111.686 116.055 112.127 116.457C112.567 116.855 113.09 117.054 113.696 117.054ZM129.437 116.273V115.506C129.437 114.942 129.555 114.424 129.792 113.95C130.033 113.477 130.384 113.096 130.843 112.807C131.302 112.518 131.859 112.374 132.512 112.374C133.184 112.374 133.748 112.518 134.202 112.807C134.657 113.091 135 113.47 135.232 113.943C135.469 114.417 135.587 114.937 135.587 115.506V116.273C135.587 116.836 135.469 117.355 135.232 117.828C134.996 118.302 134.647 118.683 134.188 118.972C133.734 119.26 133.175 119.405 132.512 119.405C131.849 119.405 131.288 119.26 130.829 118.972C130.37 118.683 130.022 118.302 129.785 117.828C129.553 117.355 129.437 116.836 129.437 116.273ZM131.29 115.506V116.273C131.29 116.647 131.38 116.99 131.56 117.303C131.74 117.615 132.058 117.771 132.512 117.771C132.971 117.771 133.286 117.617 133.457 117.31C133.632 116.997 133.719 116.652 133.719 116.273V115.506C133.719 115.127 133.637 114.781 133.471 114.469C133.305 114.152 132.986 113.993 132.512 113.993C132.067 113.993 131.752 114.152 131.567 114.469C131.383 114.781 131.29 115.127 131.29 115.506ZM122.043 107.949V107.182C122.043 106.614 122.164 106.093 122.406 105.619C122.647 105.146 122.997 104.767 123.457 104.483C123.916 104.194 124.472 104.05 125.126 104.05C125.793 104.05 126.354 104.194 126.809 104.483C127.268 104.767 127.614 105.146 127.846 105.619C128.078 106.093 128.194 106.614 128.194 107.182V107.949C128.194 108.517 128.076 109.038 127.839 109.511C127.607 109.98 127.261 110.357 126.802 110.641C126.343 110.925 125.784 111.067 125.126 111.067C124.458 111.067 123.895 110.925 123.435 110.641C122.981 110.357 122.635 109.978 122.398 109.504C122.162 109.031 122.043 108.512 122.043 107.949ZM123.911 107.182V107.949C123.911 108.328 123.999 108.673 124.174 108.986C124.354 109.294 124.671 109.447 125.126 109.447C125.58 109.447 125.893 109.294 126.063 108.986C126.238 108.673 126.326 108.328 126.326 107.949V107.182C126.326 106.803 126.243 106.457 126.077 106.145C125.912 105.828 125.594 105.669 125.126 105.669C124.676 105.669 124.361 105.828 124.181 106.145C124.001 106.462 123.911 106.808 123.911 107.182ZM122.853 119L132.853 104.455H134.629L124.629 119H122.853Z" fill="#2B2F38"/>
<path d="M94.6761 132.912V131.818H102.312V132.912H99.1108V142H97.8778V132.912H94.6761ZM106.051 142.159C105.362 142.159 104.757 141.995 104.237 141.667C103.719 141.339 103.315 140.88 103.023 140.29C102.735 139.7 102.591 139.01 102.591 138.222C102.591 137.426 102.735 136.732 103.023 136.138C103.315 135.545 103.719 135.085 104.237 134.756C104.757 134.428 105.362 134.264 106.051 134.264C106.741 134.264 107.344 134.428 107.861 134.756C108.381 135.085 108.786 135.545 109.074 136.138C109.366 136.732 109.511 137.426 109.511 138.222C109.511 139.01 109.366 139.7 109.074 140.29C108.786 140.88 108.381 141.339 107.861 141.667C107.344 141.995 106.741 142.159 106.051 142.159ZM106.051 141.105C106.575 141.105 107.006 140.971 107.344 140.702C107.682 140.434 107.932 140.081 108.094 139.643C108.257 139.206 108.338 138.732 108.338 138.222C108.338 137.711 108.257 137.236 108.094 136.795C107.932 136.354 107.682 135.998 107.344 135.726C107.006 135.454 106.575 135.318 106.051 135.318C105.527 135.318 105.097 135.454 104.759 135.726C104.42 135.998 104.17 136.354 104.008 136.795C103.845 137.236 103.764 137.711 103.764 138.222C103.764 138.732 103.845 139.206 104.008 139.643C104.17 140.081 104.42 140.434 104.759 140.702C105.097 140.971 105.527 141.105 106.051 141.105ZM114.186 142.159C113.55 142.159 112.988 141.998 112.501 141.677C112.013 141.352 111.632 140.895 111.357 140.305C111.082 139.711 110.944 139.01 110.944 138.202C110.944 137.4 111.082 136.704 111.357 136.114C111.632 135.524 112.015 135.068 112.506 134.746C112.996 134.425 113.563 134.264 114.206 134.264C114.703 134.264 115.096 134.347 115.384 134.513C115.676 134.675 115.898 134.861 116.05 135.07C116.206 135.275 116.327 135.444 116.413 135.577H116.513V131.818H117.686V142H116.552V140.827H116.413C116.327 140.966 116.204 141.142 116.045 141.354C115.886 141.562 115.659 141.75 115.364 141.915C115.069 142.078 114.676 142.159 114.186 142.159ZM114.345 141.105C114.816 141.105 115.213 140.982 115.538 140.737C115.863 140.489 116.11 140.146 116.279 139.708C116.448 139.267 116.532 138.759 116.532 138.182C116.532 137.612 116.45 137.113 116.284 136.685C116.118 136.254 115.873 135.92 115.548 135.681C115.223 135.439 114.822 135.318 114.345 135.318C113.848 135.318 113.434 135.446 113.102 135.701C112.774 135.953 112.527 136.296 112.361 136.73C112.199 137.161 112.118 137.645 112.118 138.182C112.118 138.725 112.201 139.219 112.366 139.663C112.535 140.104 112.784 140.455 113.112 140.717C113.443 140.976 113.854 141.105 114.345 141.105ZM122.245 142.179C121.761 142.179 121.322 142.088 120.927 141.906C120.533 141.72 120.22 141.453 119.988 141.105C119.756 140.754 119.64 140.33 119.64 139.832C119.64 139.395 119.726 139.04 119.898 138.768C120.071 138.493 120.301 138.278 120.589 138.122C120.878 137.966 121.196 137.85 121.544 137.774C121.895 137.695 122.248 137.632 122.603 137.585C123.067 137.526 123.443 137.481 123.731 137.451C124.023 137.418 124.235 137.363 124.368 137.287C124.504 137.211 124.572 137.078 124.572 136.889V136.849C124.572 136.359 124.437 135.978 124.169 135.706C123.904 135.434 123.501 135.298 122.961 135.298C122.401 135.298 121.961 135.421 121.643 135.666C121.325 135.911 121.101 136.173 120.972 136.452L119.858 136.054C120.057 135.59 120.323 135.229 120.654 134.97C120.989 134.708 121.353 134.526 121.748 134.423C122.145 134.317 122.537 134.264 122.921 134.264C123.166 134.264 123.448 134.294 123.766 134.354C124.088 134.41 124.398 134.528 124.696 134.707C124.997 134.886 125.248 135.156 125.447 135.517C125.645 135.878 125.745 136.362 125.745 136.969V142H124.572V140.966H124.512C124.432 141.132 124.3 141.309 124.114 141.498C123.929 141.687 123.682 141.848 123.373 141.98C123.065 142.113 122.689 142.179 122.245 142.179ZM122.424 141.125C122.888 141.125 123.279 141.034 123.597 140.852C123.919 140.669 124.161 140.434 124.323 140.146C124.489 139.857 124.572 139.554 124.572 139.236V138.162C124.522 138.222 124.412 138.276 124.243 138.326C124.078 138.372 123.885 138.414 123.667 138.45C123.451 138.483 123.241 138.513 123.035 138.54C122.833 138.563 122.669 138.583 122.543 138.599C122.238 138.639 121.953 138.704 121.688 138.793C121.426 138.879 121.214 139.01 121.052 139.186C120.893 139.358 120.813 139.594 120.813 139.892C120.813 140.3 120.964 140.608 121.265 140.817C121.57 141.022 121.956 141.125 122.424 141.125ZM128.369 144.864C128.17 144.864 127.992 144.847 127.837 144.814C127.681 144.784 127.573 144.754 127.513 144.724L127.812 143.69C128.097 143.763 128.349 143.79 128.567 143.77C128.786 143.75 128.98 143.652 129.149 143.477C129.321 143.304 129.479 143.024 129.621 142.636L129.84 142.04L127.016 134.364H128.289L130.397 140.449H130.477L132.585 134.364H133.857L130.616 143.114C130.47 143.508 130.289 143.835 130.074 144.093C129.858 144.355 129.608 144.549 129.323 144.675C129.041 144.801 128.723 144.864 128.369 144.864Z" fill="#2B2F38"/>
<path d="M300 111C300 107.686 302.686 105 306 105C309.314 105 312 107.686 312 111V119H300V111Z" fill="#42C706"/>
<path d="M308.301 134.364C308.241 133.86 308 133.469 307.575 133.19C307.151 132.912 306.631 132.773 306.014 132.773C305.563 132.773 305.169 132.846 304.831 132.991C304.496 133.137 304.234 133.338 304.045 133.593C303.86 133.848 303.767 134.138 303.767 134.463C303.767 134.735 303.832 134.969 303.961 135.164C304.094 135.356 304.263 135.517 304.468 135.646C304.674 135.772 304.889 135.877 305.114 135.96C305.34 136.039 305.547 136.104 305.736 136.153L306.77 136.432C307.035 136.501 307.33 136.598 307.655 136.72C307.983 136.843 308.296 137.01 308.594 137.222C308.896 137.431 309.145 137.7 309.34 138.028C309.536 138.356 309.634 138.759 309.634 139.236C309.634 139.786 309.489 140.283 309.201 140.727C308.916 141.171 308.498 141.524 307.948 141.786C307.401 142.048 306.737 142.179 305.955 142.179C305.225 142.179 304.594 142.061 304.06 141.826C303.53 141.591 303.112 141.263 302.808 140.842C302.506 140.421 302.335 139.932 302.295 139.375H303.568C303.601 139.759 303.731 140.078 303.956 140.33C304.185 140.578 304.473 140.764 304.821 140.886C305.172 141.006 305.55 141.065 305.955 141.065C306.425 141.065 306.848 140.989 307.222 140.837C307.597 140.681 307.893 140.465 308.112 140.19C308.331 139.912 308.44 139.587 308.44 139.216C308.44 138.878 308.346 138.603 308.157 138.391C307.968 138.179 307.719 138.006 307.411 137.874C307.103 137.741 306.77 137.625 306.412 137.526L305.159 137.168C304.364 136.939 303.734 136.612 303.27 136.188C302.806 135.764 302.574 135.209 302.574 134.523C302.574 133.953 302.728 133.455 303.036 133.031C303.348 132.604 303.765 132.272 304.289 132.037C304.816 131.798 305.404 131.679 306.054 131.679C306.71 131.679 307.294 131.797 307.804 132.032C308.314 132.264 308.719 132.582 309.017 132.987C309.319 133.391 309.478 133.85 309.494 134.364H308.301Z" fill="#858D9D"/>
<path d="M324.5 83C324.5 79.6863 327.186 77 330.5 77C333.814 77 336.5 79.6863 336.5 83V119H324.5V83Z" fill="#42C706"/>
<path d="M325.233 131.818H326.705L330.165 140.27H330.284L333.744 131.818H335.216V142H334.062V134.264H333.963L330.781 142H329.668L326.486 134.264H326.386V142H325.233V131.818Z" fill="#858D9D"/>
<path d="M349 104C349 100.686 351.686 98 355 98C358.314 98 361 100.686 361 104V119H349V104Z" fill="#42C706"/>
<path d="M351.176 132.912V131.818H358.812V132.912H355.611V142H354.378V132.912H351.176Z" fill="#858D9D"/>
<path d="M374 74C374 70.6863 376.686 68 380 68C383.314 68 386 70.6863 386 74V119H374V74Z" fill="#42C706"/>
<path d="M376.082 142L373.298 131.818H374.551L376.679 140.111H376.778L378.946 131.818H380.338L382.506 140.111H382.605L384.733 131.818H385.986L383.202 142H381.929L379.682 133.886H379.602L377.355 142H376.082Z" fill="#858D9D"/>
<path d="M399 104C399 100.686 401.686 98 405 98C408.314 98 411 100.686 411 104V119H399V104Z" fill="#42C706"/>
<path d="M401.176 132.912V131.818H408.812V132.912H405.611V142H404.378V132.912H401.176Z" fill="#858D9D"/>
<path d="M423 93C423 89.6863 425.686 87 429 87C432.314 87 435 89.6863 435 93V119H423V93Z" fill="#42C706"/>
<path d="M425.733 142V131.818H431.838V132.912H426.966V136.352H431.381V137.446H426.966V142H425.733Z" fill="#858D9D"/>
<path d="M447 98C447 94.6863 449.686 92 453 92C456.314 92 459 94.6863 459 98V119H447V98Z" fill="#42C706"/>
<path d="M455.301 134.364C455.241 133.86 455 133.469 454.575 133.19C454.151 132.912 453.631 132.773 453.014 132.773C452.563 132.773 452.169 132.846 451.831 132.991C451.496 133.137 451.234 133.338 451.045 133.593C450.86 133.848 450.767 134.138 450.767 134.463C450.767 134.735 450.832 134.969 450.961 135.164C451.094 135.356 451.263 135.517 451.468 135.646C451.674 135.772 451.889 135.877 452.114 135.96C452.34 136.039 452.547 136.104 452.736 136.153L453.77 136.432C454.035 136.501 454.33 136.598 454.655 136.72C454.983 136.843 455.296 137.01 455.594 137.222C455.896 137.431 456.145 137.7 456.34 138.028C456.536 138.356 456.634 138.759 456.634 139.236C456.634 139.786 456.489 140.283 456.201 140.727C455.916 141.171 455.498 141.524 454.948 141.786C454.401 142.048 453.737 142.179 452.955 142.179C452.225 142.179 451.594 142.061 451.06 141.826C450.53 141.591 450.112 141.263 449.808 140.842C449.506 140.421 449.335 139.932 449.295 139.375H450.568C450.601 139.759 450.731 140.078 450.956 140.33C451.185 140.578 451.473 140.764 451.821 140.886C452.172 141.006 452.55 141.065 452.955 141.065C453.425 141.065 453.848 140.989 454.222 140.837C454.597 140.681 454.893 140.465 455.112 140.19C455.331 139.912 455.44 139.587 455.44 139.216C455.44 138.878 455.346 138.603 455.157 138.391C454.968 138.179 454.719 138.006 454.411 137.874C454.103 137.741 453.77 137.625 453.412 137.526L452.159 137.168C451.364 136.939 450.734 136.612 450.27 136.188C449.806 135.764 449.574 135.209 449.574 134.523C449.574 133.953 449.728 133.455 450.036 133.031C450.348 132.604 450.765 132.272 451.289 132.037C451.816 131.798 452.404 131.679 453.054 131.679C453.71 131.679 454.294 131.797 454.804 132.032C455.314 132.264 455.719 132.582 456.017 132.987C456.319 133.391 456.478 133.85 456.494 134.364H455.301Z" fill="#667085"/>
</g>
</g>
<g filter="url(#filter2_d_3811_691)">
<path d="M52 95C52 90.5817 55.5817 87 60 87H441C445.418 87 449 90.5817 449 95V227C449 231.418 445.418 235 441 235H60C55.5817 235 52 231.418 52 227V95Z" fill="white"/>
<path d="M52.5 95C52.5 90.8579 55.8579 87.5 60 87.5H441C445.142 87.5 448.5 90.8579 448.5 95V227C448.5 231.142 445.142 234.5 441 234.5H60C55.8579 234.5 52.5 231.142 52.5 227V95Z" stroke="#F0F1F3"/>
<path d="M68.7045 106.875V105.364H77.7102V106.875H74.0795V117H72.3295V106.875H68.7045ZM78.6577 117V108.273H80.2997V109.659H80.3906C80.5497 109.189 80.83 108.82 81.2315 108.551C81.6368 108.278 82.0952 108.142 82.6065 108.142C82.7126 108.142 82.8376 108.146 82.9815 108.153C83.1293 108.161 83.2448 108.17 83.3281 108.182V109.807C83.2599 109.788 83.1387 109.767 82.9645 109.744C82.7902 109.718 82.616 109.705 82.4418 109.705C82.0402 109.705 81.6823 109.79 81.3679 109.96C81.0573 110.127 80.8111 110.36 80.6293 110.659C80.4474 110.955 80.3565 111.292 80.3565 111.67V117H78.6577ZM88.2472 117.176C87.3873 117.176 86.6468 116.992 86.0256 116.625C85.4081 116.254 84.9309 115.733 84.5938 115.062C84.2604 114.388 84.0938 113.598 84.0938 112.693C84.0938 111.799 84.2604 111.011 84.5938 110.33C84.9309 109.648 85.4006 109.116 86.0028 108.733C86.6089 108.35 87.3172 108.159 88.1278 108.159C88.6203 108.159 89.0975 108.241 89.5597 108.403C90.0218 108.566 90.4366 108.822 90.804 109.17C91.1714 109.519 91.4612 109.972 91.6733 110.528C91.8854 111.081 91.9915 111.754 91.9915 112.545V113.148H85.054V111.875H90.3267C90.3267 111.428 90.2358 111.032 90.054 110.688C89.8722 110.339 89.6165 110.064 89.2869 109.864C88.9612 109.663 88.5786 109.562 88.1392 109.562C87.6619 109.562 87.2453 109.68 86.8892 109.915C86.5369 110.146 86.2642 110.449 86.071 110.824C85.8816 111.195 85.7869 111.598 85.7869 112.034V113.028C85.7869 113.612 85.8892 114.108 86.0938 114.517C86.3021 114.926 86.5919 115.239 86.9631 115.455C87.3343 115.667 87.768 115.773 88.2642 115.773C88.5862 115.773 88.8797 115.727 89.1449 115.636C89.41 115.542 89.6392 115.402 89.8324 115.216C90.0256 115.03 90.1733 114.801 90.2756 114.528L91.8835 114.818C91.7547 115.292 91.5237 115.706 91.1903 116.062C90.8608 116.415 90.446 116.689 89.946 116.886C89.4498 117.08 88.8835 117.176 88.2472 117.176ZM96.4162 117.193C95.8632 117.193 95.3632 117.091 94.9162 116.886C94.4692 116.678 94.1151 116.377 93.8537 115.983C93.5961 115.589 93.4673 115.106 93.4673 114.534C93.4673 114.042 93.562 113.636 93.7514 113.318C93.9408 113 94.1965 112.748 94.5185 112.562C94.8404 112.377 95.2003 112.237 95.598 112.142C95.9957 112.047 96.401 111.975 96.8139 111.926C97.3366 111.866 97.7609 111.816 98.0866 111.778C98.4124 111.737 98.6491 111.67 98.7969 111.58C98.9446 111.489 99.0185 111.341 99.0185 111.136V111.097C99.0185 110.6 98.8783 110.216 98.598 109.943C98.3215 109.67 97.9086 109.534 97.3594 109.534C96.7874 109.534 96.3366 109.661 96.0071 109.915C95.6813 110.165 95.456 110.443 95.331 110.75L93.7344 110.386C93.9238 109.856 94.2003 109.428 94.5639 109.102C94.9313 108.773 95.3537 108.534 95.831 108.386C96.3082 108.235 96.8101 108.159 97.3366 108.159C97.6851 108.159 98.0545 108.201 98.4446 108.284C98.8385 108.364 99.206 108.511 99.5469 108.727C99.8916 108.943 100.174 109.252 100.393 109.653C100.613 110.051 100.723 110.568 100.723 111.205V117H99.0639V115.807H98.9957C98.8859 116.027 98.7211 116.242 98.5014 116.455C98.2817 116.667 97.9995 116.843 97.6548 116.983C97.3101 117.123 96.8973 117.193 96.4162 117.193ZM96.7855 115.83C97.2552 115.83 97.6567 115.737 97.9901 115.551C98.3272 115.366 98.5829 115.123 98.7571 114.824C98.9351 114.521 99.0241 114.197 99.0241 113.852V112.727C98.9635 112.788 98.8461 112.845 98.6719 112.898C98.5014 112.947 98.3063 112.991 98.0866 113.028C97.867 113.062 97.6529 113.095 97.4446 113.125C97.2363 113.152 97.062 113.174 96.9219 113.193C96.5923 113.235 96.2912 113.305 96.0185 113.403C95.7495 113.502 95.5336 113.644 95.3707 113.83C95.2116 114.011 95.1321 114.254 95.1321 114.557C95.1321 114.977 95.2874 115.295 95.598 115.511C95.9086 115.723 96.3045 115.83 96.7855 115.83ZM107.06 108.273V109.636H102.293V108.273H107.06ZM103.571 106.182H105.27V114.438C105.27 114.767 105.319 115.015 105.418 115.182C105.516 115.345 105.643 115.456 105.798 115.517C105.957 115.574 106.13 115.602 106.315 115.602C106.452 115.602 106.571 115.593 106.673 115.574C106.776 115.555 106.855 115.54 106.912 115.528L107.219 116.932C107.12 116.97 106.98 117.008 106.798 117.045C106.616 117.087 106.389 117.11 106.116 117.114C105.67 117.121 105.253 117.042 104.866 116.875C104.48 116.708 104.168 116.451 103.929 116.102C103.69 115.754 103.571 115.316 103.571 114.79V106.182ZM108.939 117V108.273H110.57V109.693H110.678C110.859 109.212 111.157 108.837 111.57 108.568C111.982 108.295 112.477 108.159 113.053 108.159C113.636 108.159 114.125 108.295 114.518 108.568C114.916 108.841 115.21 109.216 115.399 109.693H115.49C115.698 109.227 116.03 108.856 116.484 108.58C116.939 108.299 117.481 108.159 118.109 108.159C118.901 108.159 119.547 108.407 120.047 108.903C120.551 109.4 120.803 110.148 120.803 111.148V117H119.104V111.307C119.104 110.716 118.943 110.288 118.621 110.023C118.299 109.758 117.914 109.625 117.467 109.625C116.914 109.625 116.484 109.795 116.178 110.136C115.871 110.473 115.717 110.907 115.717 111.438V117H114.024V111.199C114.024 110.725 113.876 110.345 113.581 110.057C113.286 109.769 112.901 109.625 112.428 109.625C112.106 109.625 111.808 109.71 111.536 109.881C111.267 110.047 111.049 110.28 110.882 110.58C110.719 110.879 110.638 111.225 110.638 111.619V117H108.939ZM126.841 117.176C125.981 117.176 125.241 116.992 124.619 116.625C124.002 116.254 123.525 115.733 123.188 115.062C122.854 114.388 122.688 113.598 122.688 112.693C122.688 111.799 122.854 111.011 123.188 110.33C123.525 109.648 123.994 109.116 124.597 108.733C125.203 108.35 125.911 108.159 126.722 108.159C127.214 108.159 127.691 108.241 128.153 108.403C128.616 108.566 129.03 108.822 129.398 109.17C129.765 109.519 130.055 109.972 130.267 110.528C130.479 111.081 130.585 111.754 130.585 112.545V113.148H123.648V111.875H128.92C128.92 111.428 128.83 111.032 128.648 110.688C128.466 110.339 128.21 110.064 127.881 109.864C127.555 109.663 127.172 109.562 126.733 109.562C126.256 109.562 125.839 109.68 125.483 109.915C125.131 110.146 124.858 110.449 124.665 110.824C124.475 111.195 124.381 111.598 124.381 112.034V113.028C124.381 113.612 124.483 114.108 124.688 114.517C124.896 114.926 125.186 115.239 125.557 115.455C125.928 115.667 126.362 115.773 126.858 115.773C127.18 115.773 127.473 115.727 127.739 115.636C128.004 115.542 128.233 115.402 128.426 115.216C128.619 115.03 128.767 114.801 128.869 114.528L130.477 114.818C130.348 115.292 130.117 115.706 129.784 116.062C129.455 116.415 129.04 116.689 128.54 116.886C128.044 117.08 127.477 117.176 126.841 117.176ZM134.169 111.818V117H132.47V108.273H134.101V109.693H134.209C134.41 109.231 134.724 108.86 135.152 108.58C135.584 108.299 136.127 108.159 136.783 108.159C137.377 108.159 137.898 108.284 138.345 108.534C138.792 108.78 139.139 109.148 139.385 109.636C139.631 110.125 139.754 110.729 139.754 111.449V117H138.055V111.653C138.055 111.021 137.891 110.527 137.561 110.17C137.232 109.811 136.779 109.631 136.203 109.631C135.809 109.631 135.459 109.716 135.152 109.886C134.849 110.057 134.608 110.307 134.43 110.636C134.256 110.962 134.169 111.356 134.169 111.818ZM146.107 108.273V109.636H141.339V108.273H146.107ZM142.618 106.182H144.317V114.438C144.317 114.767 144.366 115.015 144.464 115.182C144.563 115.345 144.69 115.456 144.845 115.517C145.004 115.574 145.177 115.602 145.362 115.602C145.499 115.602 145.618 115.593 145.72 115.574C145.822 115.555 145.902 115.54 145.959 115.528L146.266 116.932C146.167 116.97 146.027 117.008 145.845 117.045C145.663 117.087 145.436 117.11 145.163 117.114C144.716 117.121 144.3 117.042 143.913 116.875C143.527 116.708 143.214 116.451 142.976 116.102C142.737 115.754 142.618 115.316 142.618 114.79V106.182Z" fill="#48505E"/>
<path d="M69.233 138V127.818H70.4659V136.906H75.1989V138H69.233ZM79.196 138.179C78.7121 138.179 78.273 138.088 77.8786 137.906C77.4841 137.72 77.1709 137.453 76.9389 137.105C76.7069 136.754 76.5909 136.33 76.5909 135.832C76.5909 135.395 76.6771 135.04 76.8494 134.768C77.0218 134.493 77.2521 134.278 77.5405 134.122C77.8288 133.966 78.147 133.85 78.495 133.774C78.8464 133.695 79.1993 133.632 79.554 133.585C80.018 133.526 80.3942 133.481 80.6825 133.451C80.9742 133.418 81.1863 133.363 81.3189 133.287C81.4548 133.211 81.5227 133.078 81.5227 132.889V132.849C81.5227 132.359 81.3885 131.978 81.12 131.706C80.8549 131.434 80.4522 131.298 79.9119 131.298C79.3518 131.298 78.9126 131.421 78.5945 131.666C78.2763 131.911 78.0526 132.173 77.9233 132.452L76.8097 132.054C77.0085 131.59 77.2737 131.229 77.6051 130.97C77.9399 130.708 78.3045 130.526 78.6989 130.423C79.0966 130.317 79.4877 130.264 79.8722 130.264C80.1174 130.264 80.3991 130.294 80.7173 130.354C81.0388 130.41 81.3487 130.528 81.647 130.707C81.9486 130.886 82.1989 131.156 82.3977 131.517C82.5966 131.878 82.696 132.362 82.696 132.969V138H81.5227V136.966H81.4631C81.3835 137.132 81.2509 137.309 81.0653 137.498C80.8797 137.687 80.6328 137.848 80.3246 137.98C80.0163 138.113 79.6402 138.179 79.196 138.179ZM79.375 137.125C79.839 137.125 80.2301 137.034 80.5483 136.852C80.8698 136.669 81.1117 136.434 81.2741 136.146C81.4399 135.857 81.5227 135.554 81.5227 135.236V134.162C81.473 134.222 81.3636 134.276 81.1946 134.326C81.0289 134.372 80.8366 134.414 80.6179 134.45C80.4025 134.483 80.192 134.513 79.9865 134.54C79.7843 134.563 79.6203 134.583 79.4943 134.599C79.1894 134.639 78.9044 134.704 78.6392 134.793C78.3774 134.879 78.1652 135.01 78.0028 135.186C77.8438 135.358 77.7642 135.594 77.7642 135.892C77.7642 136.3 77.915 136.608 78.2166 136.817C78.5215 137.022 78.9077 137.125 79.375 137.125ZM90.2466 132.074L89.1926 132.372C89.1264 132.196 89.0286 132.026 88.8993 131.86C88.7734 131.691 88.601 131.552 88.3823 131.442C88.1635 131.333 87.8835 131.278 87.5421 131.278C87.0748 131.278 86.6853 131.386 86.3738 131.602C86.0655 131.814 85.9114 132.084 85.9114 132.412C85.9114 132.704 86.0175 132.934 86.2296 133.103C86.4417 133.272 86.7731 133.413 87.2239 133.526L88.3574 133.804C89.0402 133.97 89.5489 134.223 89.8837 134.565C90.2185 134.903 90.3858 135.339 90.3858 135.872C90.3858 136.31 90.2599 136.701 90.008 137.045C89.7594 137.39 89.4114 137.662 88.964 137.861C88.5165 138.06 87.9962 138.159 87.4029 138.159C86.624 138.159 85.9793 137.99 85.4689 137.652C84.9585 137.314 84.6354 136.82 84.4995 136.17L85.6131 135.892C85.7192 136.303 85.9197 136.611 86.2147 136.817C86.513 137.022 86.9024 137.125 87.383 137.125C87.9299 137.125 88.3641 137.009 88.6855 136.777C89.0104 136.542 89.1728 136.26 89.1728 135.932C89.1728 135.667 89.08 135.445 88.8944 135.266C88.7087 135.083 88.4237 134.947 88.0392 134.858L86.7665 134.56C86.0672 134.394 85.5534 134.137 85.2253 133.789C84.9005 133.438 84.7381 132.999 84.7381 132.472C84.7381 132.041 84.8591 131.66 85.101 131.328C85.3463 130.997 85.6794 130.737 86.1003 130.548C86.5246 130.359 87.0051 130.264 87.5421 130.264C88.2978 130.264 88.891 130.43 89.3219 130.761C89.7561 131.093 90.0643 131.53 90.2466 132.074ZM95.473 130.364V131.358H91.5156V130.364H95.473ZM92.669 128.534H93.8423V135.812C93.8423 136.144 93.8904 136.393 93.9865 136.558C94.0859 136.721 94.2119 136.83 94.3643 136.886C94.5201 136.939 94.6842 136.966 94.8565 136.966C94.9858 136.966 95.0919 136.959 95.1747 136.946C95.2576 136.929 95.3239 136.916 95.3736 136.906L95.6122 137.96C95.5327 137.99 95.4216 138.02 95.2791 138.05C95.1366 138.083 94.956 138.099 94.7372 138.099C94.4058 138.099 94.081 138.028 93.7628 137.886C93.4479 137.743 93.1861 137.526 92.9773 137.234C92.7718 136.943 92.669 136.575 92.669 136.131V128.534ZM101.474 138L106.028 128.991V128.912H100.778V127.818H107.3V128.972L102.766 138H101.474ZM115.994 138.159C115.358 138.159 114.796 137.998 114.309 137.677C113.822 137.352 113.441 136.895 113.166 136.305C112.891 135.711 112.753 135.01 112.753 134.202C112.753 133.4 112.891 132.704 113.166 132.114C113.441 131.524 113.824 131.068 114.314 130.746C114.805 130.425 115.371 130.264 116.014 130.264C116.512 130.264 116.904 130.347 117.193 130.513C117.484 130.675 117.706 130.861 117.859 131.07C118.015 131.275 118.136 131.444 118.222 131.577H118.321V127.818H119.494V138H118.361V136.827H118.222C118.136 136.966 118.013 137.142 117.854 137.354C117.695 137.562 117.468 137.75 117.173 137.915C116.878 138.078 116.485 138.159 115.994 138.159ZM116.154 137.105C116.624 137.105 117.022 136.982 117.347 136.737C117.672 136.489 117.919 136.146 118.088 135.708C118.257 135.267 118.341 134.759 118.341 134.182C118.341 133.612 118.258 133.113 118.093 132.685C117.927 132.254 117.682 131.92 117.357 131.681C117.032 131.439 116.631 131.318 116.154 131.318C115.656 131.318 115.242 131.446 114.911 131.701C114.583 131.953 114.336 132.296 114.17 132.73C114.008 133.161 113.926 133.645 113.926 134.182C113.926 134.725 114.009 135.219 114.175 135.663C114.344 136.104 114.593 136.455 114.921 136.717C115.252 136.976 115.663 137.105 116.154 137.105ZM124.053 138.179C123.57 138.179 123.13 138.088 122.736 137.906C122.342 137.72 122.028 137.453 121.796 137.105C121.564 136.754 121.448 136.33 121.448 135.832C121.448 135.395 121.535 135.04 121.707 134.768C121.879 134.493 122.11 134.278 122.398 134.122C122.686 133.966 123.004 133.85 123.352 133.774C123.704 133.695 124.057 133.632 124.411 133.585C124.875 133.526 125.252 133.481 125.54 133.451C125.832 133.418 126.044 133.363 126.176 133.287C126.312 133.211 126.38 133.078 126.38 132.889V132.849C126.38 132.359 126.246 131.978 125.977 131.706C125.712 131.434 125.31 131.298 124.769 131.298C124.209 131.298 123.77 131.421 123.452 131.666C123.134 131.911 122.91 132.173 122.781 132.452L121.667 132.054C121.866 131.59 122.131 131.229 122.463 130.97C122.797 130.708 123.162 130.526 123.556 130.423C123.954 130.317 124.345 130.264 124.73 130.264C124.975 130.264 125.257 130.294 125.575 130.354C125.896 130.41 126.206 130.528 126.504 130.707C126.806 130.886 127.056 131.156 127.255 131.517C127.454 131.878 127.553 132.362 127.553 132.969V138H126.38V136.966H126.32C126.241 137.132 126.108 137.309 125.923 137.498C125.737 137.687 125.49 137.848 125.182 137.98C124.874 138.113 124.498 138.179 124.053 138.179ZM124.232 137.125C124.696 137.125 125.088 137.034 125.406 136.852C125.727 136.669 125.969 136.434 126.132 136.146C126.297 135.857 126.38 135.554 126.38 135.236V134.162C126.33 134.222 126.221 134.276 126.052 134.326C125.886 134.372 125.694 134.414 125.475 134.45C125.26 134.483 125.049 134.513 124.844 134.54C124.642 134.563 124.478 134.583 124.352 134.599C124.047 134.639 123.762 134.704 123.497 134.793C123.235 134.879 123.023 135.01 122.86 135.186C122.701 135.358 122.622 135.594 122.622 135.892C122.622 136.3 122.772 136.608 123.074 136.817C123.379 137.022 123.765 137.125 124.232 137.125ZM130.177 140.864C129.978 140.864 129.801 140.847 129.645 140.814C129.489 140.784 129.382 140.754 129.322 140.724L129.62 139.69C129.905 139.763 130.157 139.79 130.376 139.77C130.595 139.75 130.789 139.652 130.958 139.477C131.13 139.304 131.288 139.024 131.43 138.636L131.649 138.04L128.825 130.364H130.098L132.206 136.449H132.285L134.393 130.364H135.666L132.424 139.114C132.279 139.508 132.098 139.835 131.882 140.093C131.667 140.355 131.417 140.549 131.132 140.675C130.85 140.801 130.532 140.864 130.177 140.864ZM142.624 132.074L141.57 132.372C141.503 132.196 141.406 132.026 141.276 131.86C141.15 131.691 140.978 131.552 140.759 131.442C140.54 131.333 140.26 131.278 139.919 131.278C139.452 131.278 139.062 131.386 138.751 131.602C138.442 131.814 138.288 132.084 138.288 132.412C138.288 132.704 138.394 132.934 138.607 133.103C138.819 133.272 139.15 133.413 139.601 133.526L140.734 133.804C141.417 133.97 141.926 134.223 142.261 134.565C142.595 134.903 142.763 135.339 142.763 135.872C142.763 136.31 142.637 136.701 142.385 137.045C142.136 137.39 141.788 137.662 141.341 137.861C140.893 138.06 140.373 138.159 139.78 138.159C139.001 138.159 138.356 137.99 137.846 137.652C137.335 137.314 137.012 136.82 136.876 136.17L137.99 135.892C138.096 136.303 138.297 136.611 138.592 136.817C138.89 137.022 139.279 137.125 139.76 137.125C140.307 137.125 140.741 137.009 141.062 136.777C141.387 136.542 141.55 136.26 141.55 135.932C141.55 135.667 141.457 135.445 141.271 135.266C141.086 135.083 140.801 134.947 140.416 134.858L139.143 134.56C138.444 134.394 137.93 134.137 137.602 133.789C137.277 133.438 137.115 132.999 137.115 132.472C137.115 132.041 137.236 131.66 137.478 131.328C137.723 130.997 138.056 130.737 138.477 130.548C138.902 130.359 139.382 130.264 139.919 130.264C140.675 130.264 141.268 130.43 141.699 130.761C142.133 131.093 142.441 131.53 142.624 132.074Z" fill="#667085"/>
<path d="M419.74 114.53L423.26 111L419.74 107.47" stroke="#667085" stroke-width="1.5" stroke-linecap="round" stroke-linejoin="round"/>
<path d="M74.6193 194.199C73.9233 194.194 73.2438 194.073 72.581 193.837C71.9181 193.595 71.3215 193.205 70.7912 192.665C70.2609 192.12 69.8395 191.398 69.527 190.499C69.2145 189.594 69.0606 188.474 69.0653 187.139C69.0653 185.894 69.1979 184.784 69.4631 183.808C69.7282 182.833 70.1094 182.009 70.6065 181.337C71.1037 180.66 71.7027 180.143 72.4034 179.788C73.1089 179.433 73.8973 179.256 74.7685 179.256C75.6823 179.256 76.492 179.436 77.1974 179.795C77.9077 180.155 78.4806 180.648 78.9162 181.273C79.3518 181.893 79.6217 182.594 79.7259 183.375H77.1335C77.0009 182.816 76.7287 182.371 76.3168 182.04C75.9096 181.704 75.3935 181.536 74.7685 181.536C73.7599 181.536 72.9834 181.973 72.4389 182.849C71.8991 183.725 71.6269 184.928 71.6222 186.457H71.7216C71.9536 186.041 72.2543 185.683 72.6236 185.385C72.9929 185.087 73.4096 184.857 73.8736 184.696C74.3423 184.53 74.8371 184.447 75.358 184.447C76.2102 184.447 76.9749 184.651 77.652 185.058C78.3338 185.465 78.8736 186.027 79.2713 186.741C79.669 187.452 79.8655 188.266 79.8608 189.185C79.8655 190.141 79.6477 191 79.2074 191.763C78.767 192.52 78.1539 193.117 77.3679 193.553C76.5819 193.988 75.6657 194.204 74.6193 194.199ZM74.6051 192.068C75.1212 192.068 75.5829 191.943 75.9901 191.692C76.3973 191.441 76.7192 191.102 76.956 190.676C77.1927 190.25 77.3087 189.772 77.304 189.241C77.3087 188.721 77.1951 188.25 76.9631 187.828C76.7358 187.407 76.4209 187.073 76.0185 186.827C75.616 186.58 75.1567 186.457 74.6406 186.457C74.2571 186.457 73.8996 186.531 73.5682 186.678C73.2367 186.824 72.9479 187.028 72.7017 187.288C72.4555 187.544 72.2614 187.842 72.1193 188.183C71.982 188.519 71.911 188.879 71.9062 189.263C71.911 189.769 72.0294 190.236 72.2614 190.662C72.4934 191.088 72.813 191.429 73.2202 191.685C73.6274 191.94 74.089 192.068 74.6051 192.068ZM87.6378 194.277C86.4683 194.277 85.4645 193.981 84.6264 193.389C83.7931 192.793 83.1515 191.933 82.7017 190.811C82.2566 189.684 82.0341 188.328 82.0341 186.741C82.0388 185.155 82.2637 183.806 82.7088 182.693C83.1586 181.576 83.8002 180.723 84.6335 180.136C85.4716 179.549 86.473 179.256 87.6378 179.256C88.8026 179.256 89.804 179.549 90.642 180.136C91.4801 180.723 92.1217 181.576 92.5668 182.693C93.0166 183.811 93.2415 185.16 93.2415 186.741C93.2415 188.332 93.0166 189.691 92.5668 190.818C92.1217 191.94 91.4801 192.797 90.642 193.389C89.8087 193.981 88.8073 194.277 87.6378 194.277ZM87.6378 192.054C88.5469 192.054 89.2642 191.607 89.7898 190.712C90.3201 189.812 90.5852 188.489 90.5852 186.741C90.5852 185.586 90.4645 184.616 90.223 183.83C89.9815 183.044 89.6406 182.452 89.2003 182.054C88.7599 181.652 88.2391 181.45 87.6378 181.45C86.7334 181.45 86.0185 181.9 85.4929 182.8C84.9673 183.695 84.7022 185.009 84.6974 186.741C84.6927 187.902 84.8087 188.877 85.0455 189.668C85.2869 190.458 85.6278 191.055 86.0682 191.457C86.5085 191.855 87.0317 192.054 87.6378 192.054ZM103.378 191.273V190.506C103.378 189.942 103.497 189.424 103.733 188.95C103.975 188.477 104.325 188.096 104.784 187.807C105.244 187.518 105.8 187.374 106.453 187.374C107.126 187.374 107.689 187.518 108.144 187.807C108.598 188.091 108.942 188.47 109.174 188.943C109.41 189.417 109.529 189.937 109.529 190.506V191.273C109.529 191.836 109.41 192.355 109.174 192.828C108.937 193.302 108.589 193.683 108.13 193.972C107.675 194.26 107.116 194.405 106.453 194.405C105.791 194.405 105.23 194.26 104.77 193.972C104.311 193.683 103.963 193.302 103.726 192.828C103.494 192.355 103.378 191.836 103.378 191.273ZM105.232 190.506V191.273C105.232 191.647 105.322 191.99 105.502 192.303C105.682 192.615 105.999 192.771 106.453 192.771C106.913 192.771 107.228 192.617 107.398 192.31C107.573 191.997 107.661 191.652 107.661 191.273V190.506C107.661 190.127 107.578 189.781 107.412 189.469C107.247 189.152 106.927 188.993 106.453 188.993C106.008 188.993 105.694 189.152 105.509 189.469C105.324 189.781 105.232 190.127 105.232 190.506ZM95.9847 182.949V182.182C95.9847 181.614 96.1055 181.093 96.3469 180.619C96.5884 180.146 96.9388 179.767 97.3981 179.483C97.8574 179.194 98.4137 179.05 99.0671 179.05C99.7347 179.05 100.296 179.194 100.75 179.483C101.21 179.767 101.555 180.146 101.787 180.619C102.019 181.093 102.135 181.614 102.135 182.182V182.949C102.135 183.517 102.017 184.038 101.78 184.511C101.548 184.98 101.203 185.357 100.743 185.641C100.284 185.925 99.7253 186.067 99.0671 186.067C98.3995 186.067 97.8361 185.925 97.3768 185.641C96.9222 185.357 96.5766 184.978 96.3398 184.504C96.1031 184.031 95.9847 183.512 95.9847 182.949ZM97.8526 182.182V182.949C97.8526 183.328 97.9402 183.673 98.1154 183.986C98.2953 184.294 98.6126 184.447 99.0671 184.447C99.5217 184.447 99.8342 184.294 100.005 183.986C100.18 183.673 100.267 183.328 100.267 182.949V182.182C100.267 181.803 100.185 181.457 100.019 181.145C99.8531 180.828 99.5359 180.669 99.0671 180.669C98.6173 180.669 98.3024 180.828 98.1225 181.145C97.9426 181.462 97.8526 181.808 97.8526 182.182ZM96.7944 194L106.794 179.455H108.57L98.57 194H96.7944Z" fill="#2B2F38"/>
<path d="M68.6761 207.912V206.818H76.3125V207.912H73.1108V217H71.8778V207.912H68.6761ZM80.0511 217.159C79.3617 217.159 78.7569 216.995 78.2365 216.667C77.7195 216.339 77.3151 215.88 77.0234 215.29C76.7351 214.7 76.5909 214.01 76.5909 213.222C76.5909 212.426 76.7351 211.732 77.0234 211.138C77.3151 210.545 77.7195 210.085 78.2365 209.756C78.7569 209.428 79.3617 209.264 80.0511 209.264C80.7405 209.264 81.3438 209.428 81.8608 209.756C82.3812 210.085 82.7855 210.545 83.0739 211.138C83.3655 211.732 83.5114 212.426 83.5114 213.222C83.5114 214.01 83.3655 214.7 83.0739 215.29C82.7855 215.88 82.3812 216.339 81.8608 216.667C81.3438 216.995 80.7405 217.159 80.0511 217.159ZM80.0511 216.105C80.5748 216.105 81.0057 215.971 81.3438 215.702C81.6818 215.434 81.9321 215.081 82.0945 214.643C82.2569 214.206 82.3381 213.732 82.3381 213.222C82.3381 212.711 82.2569 212.236 82.0945 211.795C81.9321 211.354 81.6818 210.998 81.3438 210.726C81.0057 210.454 80.5748 210.318 80.0511 210.318C79.5275 210.318 79.0966 210.454 78.7585 210.726C78.4205 210.998 78.1702 211.354 78.0078 211.795C77.8454 212.236 77.7642 212.711 77.7642 213.222C77.7642 213.732 77.8454 214.206 78.0078 214.643C78.1702 215.081 78.4205 215.434 78.7585 215.702C79.0966 215.971 79.5275 216.105 80.0511 216.105ZM88.1859 217.159C87.5495 217.159 86.9877 216.998 86.5005 216.677C86.0133 216.352 85.6322 215.895 85.3571 215.305C85.082 214.711 84.9444 214.01 84.9444 213.202C84.9444 212.4 85.082 211.704 85.3571 211.114C85.6322 210.524 86.015 210.068 86.5055 209.746C86.996 209.425 87.5628 209.264 88.2058 209.264C88.7029 209.264 89.0957 209.347 89.3841 209.513C89.6757 209.675 89.8978 209.861 90.0502 210.07C90.206 210.275 90.327 210.444 90.4132 210.577H90.5126V206.818H91.6859V217H90.5524V215.827H90.4132C90.327 215.966 90.2044 216.142 90.0453 216.354C89.8862 216.562 89.6592 216.75 89.3642 216.915C89.0692 217.078 88.6764 217.159 88.1859 217.159ZM88.345 216.105C88.8156 216.105 89.2134 215.982 89.5382 215.737C89.863 215.489 90.1099 215.146 90.2789 214.708C90.448 214.267 90.5325 213.759 90.5325 213.182C90.5325 212.612 90.4496 212.113 90.2839 211.685C90.1182 211.254 89.8729 210.92 89.5481 210.681C89.2233 210.439 88.8223 210.318 88.345 210.318C87.8478 210.318 87.4335 210.446 87.1021 210.701C86.774 210.953 86.527 211.296 86.3613 211.73C86.1989 212.161 86.1177 212.645 86.1177 213.182C86.1177 213.725 86.2006 214.219 86.3663 214.663C86.5353 215.104 86.7839 215.455 87.112 215.717C87.4435 215.976 87.8545 216.105 88.345 216.105ZM96.2449 217.179C95.7609 217.179 95.3218 217.088 94.9274 216.906C94.533 216.72 94.2198 216.453 93.9877 216.105C93.7557 215.754 93.6397 215.33 93.6397 214.832C93.6397 214.395 93.7259 214.04 93.8983 213.768C94.0706 213.493 94.301 213.278 94.5893 213.122C94.8777 212.966 95.1958 212.85 95.5439 212.774C95.8952 212.695 96.2482 212.632 96.6028 212.585C97.0668 212.526 97.443 212.481 97.7314 212.451C98.023 212.418 98.2351 212.363 98.3677 212.287C98.5036 212.211 98.5716 212.078 98.5716 211.889V211.849C98.5716 211.359 98.4373 210.978 98.1689 210.706C97.9037 210.434 97.501 210.298 96.9608 210.298C96.4006 210.298 95.9615 210.421 95.6433 210.666C95.3251 210.911 95.1014 211.173 94.9721 211.452L93.8585 211.054C94.0574 210.59 94.3225 210.229 94.6539 209.97C94.9887 209.708 95.3533 209.526 95.7477 209.423C96.1454 209.317 96.5365 209.264 96.921 209.264C97.1663 209.264 97.448 209.294 97.7662 209.354C98.0877 209.41 98.3975 209.528 98.6958 209.707C98.9975 209.886 99.2477 210.156 99.4466 210.517C99.6454 210.878 99.7449 211.362 99.7449 211.969V217H98.5716V215.966H98.5119C98.4324 216.132 98.2998 216.309 98.1142 216.498C97.9286 216.687 97.6816 216.848 97.3734 216.98C97.0652 217.113 96.689 217.179 96.2449 217.179ZM96.4238 216.125C96.8878 216.125 97.2789 216.034 97.5971 215.852C97.9186 215.669 98.1606 215.434 98.323 215.146C98.4887 214.857 98.5716 214.554 98.5716 214.236V213.162C98.5218 213.222 98.4125 213.276 98.2434 213.326C98.0777 213.372 97.8855 213.414 97.6667 213.45C97.4513 213.483 97.2408 213.513 97.0353 213.54C96.8332 213.563 96.6691 213.583 96.5431 213.599C96.2382 213.639 95.9532 213.704 95.688 213.793C95.4262 213.879 95.2141 214.01 95.0517 214.186C94.8926 214.358 94.813 214.594 94.813 214.892C94.813 215.3 94.9638 215.608 95.2654 215.817C95.5704 216.022 95.9565 216.125 96.4238 216.125ZM102.369 219.864C102.17 219.864 101.992 219.847 101.837 219.814C101.681 219.784 101.573 219.754 101.513 219.724L101.812 218.69C102.097 218.763 102.349 218.79 102.567 218.77C102.786 218.75 102.98 218.652 103.149 218.477C103.321 218.304 103.479 218.024 103.621 217.636L103.84 217.04L101.016 209.364H102.289L104.397 215.449H104.477L106.585 209.364H107.857L104.616 218.114C104.47 218.508 104.289 218.835 104.074 219.093C103.858 219.355 103.608 219.549 103.323 219.675C103.041 219.801 102.723 219.864 102.369 219.864Z" fill="#2B2F38"/>
<path d="M274 186C274 182.686 276.686 180 280 180C283.314 180 286 182.686 286 186V194H274V186Z" fill="#6741FF"/>
<path d="M282.301 209.364C282.241 208.86 282 208.469 281.575 208.19C281.151 207.912 280.631 207.773 280.014 207.773C279.563 207.773 279.169 207.846 278.831 207.991C278.496 208.137 278.234 208.338 278.045 208.593C277.86 208.848 277.767 209.138 277.767 209.463C277.767 209.735 277.832 209.969 277.961 210.164C278.094 210.356 278.263 210.517 278.468 210.646C278.674 210.772 278.889 210.877 279.114 210.96C279.34 211.039 279.547 211.104 279.736 211.153L280.77 211.432C281.035 211.501 281.33 211.598 281.655 211.72C281.983 211.843 282.296 212.01 282.594 212.222C282.896 212.431 283.145 212.7 283.34 213.028C283.536 213.356 283.634 213.759 283.634 214.236C283.634 214.786 283.489 215.283 283.201 215.727C282.916 216.171 282.498 216.524 281.948 216.786C281.401 217.048 280.737 217.179 279.955 217.179C279.225 217.179 278.594 217.061 278.06 216.826C277.53 216.591 277.112 216.263 276.808 215.842C276.506 215.421 276.335 214.932 276.295 214.375H277.568C277.601 214.759 277.731 215.078 277.956 215.33C278.185 215.578 278.473 215.764 278.821 215.886C279.172 216.006 279.55 216.065 279.955 216.065C280.425 216.065 280.848 215.989 281.222 215.837C281.597 215.681 281.893 215.465 282.112 215.19C282.331 214.912 282.44 214.587 282.44 214.216C282.44 213.878 282.346 213.603 282.157 213.391C281.968 213.179 281.719 213.006 281.411 212.874C281.103 212.741 280.77 212.625 280.412 212.526L279.159 212.168C278.364 211.939 277.734 211.612 277.27 211.188C276.806 210.764 276.574 210.209 276.574 209.523C276.574 208.953 276.728 208.455 277.036 208.031C277.348 207.604 277.765 207.272 278.289 207.037C278.816 206.798 279.404 206.679 280.054 206.679C280.71 206.679 281.294 206.797 281.804 207.032C282.314 207.264 282.719 207.582 283.017 207.987C283.319 208.391 283.478 208.85 283.494 209.364H282.301Z" fill="#858D9D"/>
<path d="M298.5 158C298.5 154.686 301.186 152 304.5 152C307.814 152 310.5 154.686 310.5 158V194H298.5V158Z" fill="#6741FF"/>
<path d="M299.233 206.818H300.705L304.165 215.27H304.284L307.744 206.818H309.216V217H308.062V209.264H307.963L304.781 217H303.668L300.486 209.264H300.386V217H299.233V206.818Z" fill="#858D9D"/>
<path d="M323 179C323 175.686 325.686 173 329 173C332.314 173 335 175.686 335 179V194H323V179Z" fill="#6741FF"/>
<path d="M325.176 207.912V206.818H332.812V207.912H329.611V217H328.378V207.912H325.176Z" fill="#858D9D"/>
<path d="M348 149C348 145.686 350.686 143 354 143C357.314 143 360 145.686 360 149V194H348V149Z" fill="#6741FF"/>
<path d="M350.082 217L347.298 206.818H348.551L350.679 215.111H350.778L352.946 206.818H354.338L356.506 215.111H356.605L358.733 206.818H359.986L357.202 217H355.929L353.682 208.886H353.602L351.355 217H350.082Z" fill="#858D9D"/>
<path d="M373 179C373 175.686 375.686 173 379 173C382.314 173 385 175.686 385 179V194H373V179Z" fill="#6741FF"/>
<path d="M375.176 207.912V206.818H382.812V207.912H379.611V217H378.378V207.912H375.176Z" fill="#858D9D"/>
<path d="M397 168C397 164.686 399.686 162 403 162C406.314 162 409 164.686 409 168V194H397V168Z" fill="#6741FF"/>
<path d="M399.733 217V206.818H405.838V207.912H400.966V211.352H405.381V212.446H400.966V217H399.733Z" fill="#858D9D"/>
<path d="M421 173C421 169.686 423.686 167 427 167C430.314 167 433 169.686 433 173V194H421V173Z" fill="#6741FF"/>
<path d="M429.301 209.364C429.241 208.86 429 208.469 428.575 208.19C428.151 207.912 427.631 207.773 427.014 207.773C426.563 207.773 426.169 207.846 425.831 207.991C425.496 208.137 425.234 208.338 425.045 208.593C424.86 208.848 424.767 209.138 424.767 209.463C424.767 209.735 424.832 209.969 424.961 210.164C425.094 210.356 425.263 210.517 425.468 210.646C425.674 210.772 425.889 210.877 426.114 210.96C426.34 211.039 426.547 211.104 426.736 211.153L427.77 211.432C428.035 211.501 428.33 211.598 428.655 211.72C428.983 211.843 429.296 212.01 429.594 212.222C429.896 212.431 430.145 212.7 430.34 213.028C430.536 213.356 430.634 213.759 430.634 214.236C430.634 214.786 430.489 215.283 430.201 215.727C429.916 216.171 429.498 216.524 428.948 216.786C428.401 217.048 427.737 217.179 426.955 217.179C426.225 217.179 425.594 217.061 425.06 216.826C424.53 216.591 424.112 216.263 423.808 215.842C423.506 215.421 423.335 214.932 423.295 214.375H424.568C424.601 214.759 424.731 215.078 424.956 215.33C425.185 215.578 425.473 215.764 425.821 215.886C426.172 216.006 426.55 216.065 426.955 216.065C427.425 216.065 427.848 215.989 428.222 215.837C428.597 215.681 428.893 215.465 429.112 215.19C429.331 214.912 429.44 214.587 429.44 214.216C429.44 213.878 429.346 213.603 429.157 213.391C428.968 213.179 428.719 213.006 428.411 212.874C428.103 212.741 427.77 212.625 427.412 212.526L426.159 212.168C425.364 211.939 424.734 211.612 424.27 211.188C423.806 210.764 423.574 210.209 423.574 209.523C423.574 208.953 423.728 208.455 424.036 208.031C424.348 207.604 424.765 207.272 425.289 207.037C425.816 206.798 426.404 206.679 427.054 206.679C427.71 206.679 428.294 206.797 428.804 207.032C429.314 207.264 429.719 207.582 430.017 207.987C430.319 208.391 430.478 208.85 430.494 209.364H429.301Z" fill="#667085"/>
</g>
<defs>
<filter id="filter0_d_3811_691" x="42" y="0" width="469" height="220" filterUnits="userSpaceOnUse" color-interpolation-filters="sRGB">
<feFlood flood-opacity="0" result="BackgroundImageFix"/>
<feColorMatrix in="SourceAlpha" type="matrix" values="0 0 0 0 0 0 0 0 0 0 0 0 0 0 0 0 0 0 127 0" result="hardAlpha"/>
<feMorphology radius="12" operator="erode" in="SourceAlpha" result="effect1_dropShadow_3811_691"/>
<feOffset dy="24"/>
<feGaussianBlur stdDeviation="24"/>
<feColorMatrix type="matrix" values="0 0 0 0 0.260586 0 0 0 0 0.358325 0 0 0 0 0.567767 0 0 0 0.18 0"/>
<feBlend mode="normal" in2="BackgroundImageFix" result="effect1_dropShadow_3811_691"/>
<feBlend mode="normal" in="SourceGraphic" in2="effect1_dropShadow_3811_691" result="shape"/>
</filter>
<filter id="filter1_d_3811_691" x="76" y="11" width="401" height="152" filterUnits="userSpaceOnUse" color-interpolation-filters="sRGB">
<feFlood flood-opacity="0" result="BackgroundImageFix"/>
<feColorMatrix in="SourceAlpha" type="matrix" values="0 0 0 0 0 0 0 0 0 0 0 0 0 0 0 0 0 0 127 0" result="hardAlpha"/>
<feOffset dy="1"/>
<feGaussianBlur stdDeviation="1"/>
<feColorMatrix type="matrix" values="0 0 0 0 0.0627451 0 0 0 0 0.0941176 0 0 0 0 0.156863 0 0 0 0.05 0"/>
<feBlend mode="normal" in2="BackgroundImageFix" result="effect1_dropShadow_3811_691"/>
<feBlend mode="normal" in="SourceGraphic" in2="effect1_dropShadow_3811_691" result="shape"/>
</filter>
<filter id="filter2_d_3811_691" x="0" y="67" width="501" height="252" filterUnits="userSpaceOnUse" color-interpolation-filters="sRGB">
<feFlood flood-opacity="0" result="BackgroundImageFix"/>
<feColorMatrix in="SourceAlpha" type="matrix" values="0 0 0 0 0 0 0 0 0 0 0 0 0 0 0 0 0 0 127 0" result="hardAlpha"/>
<feMorphology radius="12" operator="erode" in="SourceAlpha" result="effect1_dropShadow_3811_691"/>
<feOffset dy="32"/>
<feGaussianBlur stdDeviation="32"/>
<feColorMatrix type="matrix" values="0 0 0 0 0.116872 0 0 0 0 0.201559 0 0 0 0 0.383031 0 0 0 0.14 0"/>
<feBlend mode="normal" in2="BackgroundImageFix" result="effect1_dropShadow_3811_691"/>
<feBlend mode="normal" in="SourceGraphic" in2="effect1_dropShadow_3811_691" result="shape"/>
</filter>
</defs>
</svg>
