<svg width="55" height="37" viewBox="0 0 55 37" fill="none" xmlns="http://www.w3.org/2000/svg">
<path opacity="0.45" d="M34.3604 -8.15585L10.5383 1.65563C9.47606 2.09312 8.63115 2.93465 8.1894 3.99509C7.74765 5.05554 7.74526 6.24803 8.18275 7.31024L15.355 24.7243C15.7924 25.7865 16.634 26.6314 17.6944 27.0731C18.7549 27.5149 19.9474 27.5173 21.0096 27.0798L44.8317 17.2683C45.8939 16.8308 46.7388 15.9893 47.1806 14.9288C47.6223 13.8684 47.6247 12.6759 47.1872 11.6137L40.015 -5.80033C39.5775 -6.86254 38.736 -7.70745 37.6756 -8.1492C36.6151 -8.59095 35.4226 -8.59334 34.3604 -8.15585ZM11.1981 3.25766L35.0202 -6.55383C35.6259 -6.8049 36.3045 -6.81608 36.9181 -6.5851C37.5318 -6.35412 38.0346 -5.89829 38.3244 -5.31014C35.2383 -1.56571 32.1297 2.16929 29.0276 5.92031C28.6303 6.47971 28.1787 6.9984 27.6792 7.46879C27.2523 7.75222 26.77 7.94139 26.2643 8.02366C25.7586 8.10593 25.2411 8.07942 24.7465 7.9459C21.9767 7.68132 19.2004 7.40072 16.4467 7.12954C14.2245 6.92052 11.9636 6.70867 9.73481 6.48362C9.52127 5.86072 9.55384 5.17976 9.82586 4.58007C10.0979 3.98039 10.5888 3.50732 11.1981 3.25766ZM45.5852 12.2735C45.8477 12.9108 45.8463 13.6263 45.5812 14.2626C45.3162 14.8989 44.8092 15.4038 44.1719 15.6663L20.3498 25.4778C19.7124 25.7403 18.9969 25.7388 18.3607 25.4738C17.7244 25.2087 17.2195 24.7018 16.957 24.0645L10.4677 8.30852C15.0666 8.73787 19.6628 9.20585 24.2683 9.65121C25.1144 9.78759 25.9747 9.81128 26.827 9.72168C28.014 9.44468 29.0579 8.74132 29.7605 7.74521C31.582 5.57093 33.3808 3.38724 35.2023 1.21296C36.4989 -0.370385 37.7927 -1.91509 39.0959 -3.48242L45.5852 12.2735Z" fill="#2E6F40"/>
</svg>
