<svg width="50" height="56" viewBox="0 0 50 56" fill="none" xmlns="http://www.w3.org/2000/svg">
<path opacity="0.6" d="M10.3472 -6.98947C10.3591 -7.19766 10.4118 -7.40147 10.5024 -7.58926C10.5931 -7.77705 10.7198 -7.94513 10.8755 -8.08389C11.0311 -8.22265 11.2126 -8.32937 11.4095 -8.39795C11.6064 -8.46653 11.8149 -8.49563 12.0231 -8.48357C15.9783 -8.28049 19.8079 -7.02662 23.1174 -4.85112C26.4268 -2.67561 29.0965 0.342853 30.8512 3.89334C30.9449 4.07966 31.0008 4.28261 31.016 4.49058C31.0311 4.69855 31.0051 4.90746 30.9394 5.10536C30.8737 5.30327 30.7697 5.48629 30.6332 5.64396C30.4968 5.80163 30.3306 5.93086 30.1442 6.02425C30.0204 6.08602 29.889 6.13133 29.7535 6.15903C29.4112 6.23001 29.055 6.18596 28.7403 6.03373C28.4256 5.88149 28.17 5.62959 28.0132 5.31716C26.5064 2.26731 24.2134 -0.325552 21.3708 -2.19418C18.5282 -4.06282 15.2387 -5.13962 11.8413 -5.31363C11.6331 -5.32544 11.4293 -5.37817 11.2415 -5.46881C11.0538 -5.55945 10.8857 -5.68621 10.7469 -5.84186C10.6082 -5.9975 10.5014 -6.17897 10.4329 -6.37588C10.3643 -6.5728 10.3352 -6.7813 10.3472 -6.98947ZM11.4828 3.40149C15.4585 3.6273 18.371 5.54187 20.1547 9.10206C20.3115 9.41449 20.5671 9.66639 20.8818 9.81863C21.1965 9.97086 21.5527 10.0149 21.8949 9.94393C22.0305 9.91623 22.1618 9.87092 22.2856 9.80916C22.4721 9.71576 22.6383 9.58653 22.7747 9.42886C22.9112 9.27119 23.0152 9.08817 23.0809 8.89026C23.1465 8.69236 23.1726 8.48345 23.1574 8.27548C23.1423 8.06751 23.0863 7.86456 22.9927 7.67824C20.6962 3.10073 16.7775 0.524685 11.6646 0.231553C11.4564 0.219619 11.248 0.248799 11.0511 0.317426C10.8543 0.386052 10.6728 0.492782 10.5172 0.631523C10.3616 0.770262 10.2348 0.938292 10.1442 1.12602C10.0535 1.31375 10.0007 1.51751 9.98873 1.72565C9.97679 1.93379 10.006 2.14224 10.0746 2.33911C10.1432 2.53597 10.25 2.71739 10.3887 2.87301C10.5274 3.02862 10.6955 3.15539 10.8832 3.24607C11.0709 3.33675 11.2747 3.38956 11.4828 3.40149ZM37.248 24.2679C37.5042 27.7449 36.4854 31.1962 34.3821 33.9767C32.2788 36.7572 29.2349 38.6766 25.8194 39.3761C5.5426 43.5681 -14.3637 30.4825 -18.5557 10.2056C-19.2678 6.79396 -18.7136 3.23972 -16.9966 0.206801C-15.2796 -2.82611 -12.5173 -5.13026 -9.22549 -6.27525C-8.46611 -6.53095 -7.64426 -6.53337 -6.88338 -6.28215C-6.1225 -6.03094 -5.46366 -5.53964 -5.00581 -4.88205L2.97992 6.18548C3.33534 6.68778 3.55995 7.27075 3.63345 7.88168C3.70694 8.4926 3.627 9.11221 3.40086 9.68447C3.37815 9.74266 3.35202 9.79946 3.32261 9.85457L-0.792098 17.4722C-0.811319 17.5463 -0.813254 17.6239 -0.797752 17.6989C-0.78225 17.7738 -0.749726 17.8443 -0.702691 17.9047C2.12043 21.5551 7.25152 24.9013 11.7786 26.0311C11.8538 26.0482 11.932 26.0476 12.007 26.0293C12.0819 26.011 12.1516 25.9755 12.2104 25.9256L17.48 19.1655C17.5175 19.1165 17.5585 19.0701 17.6025 19.0268C18.0351 18.5886 18.5701 18.2651 19.1592 18.0858C19.7483 17.9065 20.3728 17.877 20.9762 17.9999L34.343 20.953C35.12 21.1213 35.8223 21.5353 36.3457 22.1337C36.8692 22.7321 37.1861 23.4832 37.2496 24.2757L37.248 24.2679ZM34.0897 24.5212C34.076 24.4111 34.028 24.3081 33.9526 24.2268C33.8771 24.1455 33.778 24.09 33.6693 24.0681L20.2999 21.1154C20.2277 21.1035 20.1538 21.1072 20.0832 21.1265C20.0126 21.1458 19.947 21.18 19.8909 21.227L14.6239 27.9865C14.5854 28.035 14.5436 28.0814 14.5014 28.1253C14.0519 28.5807 13.4921 28.9119 12.8766 29.0864C12.261 29.261 11.6107 29.2731 10.989 29.1215C5.75958 27.8074 0.0499228 24.0921 -3.22093 19.8565C-3.60744 19.3495 -3.8565 18.7514 -3.944 18.1199C-4.03149 17.4885 -3.95445 16.8451 -3.72034 16.2522C-3.69749 16.1935 -3.67048 16.1364 -3.6395 16.0816L0.468424 8.4572C0.485567 8.38293 0.486452 8.30583 0.47102 8.23119C0.455589 8.15654 0.424204 8.08612 0.379017 8.02473L-7.5943 -3.04806C-7.65055 -3.13859 -7.73284 -3.21002 -7.83038 -3.25298C-7.92792 -3.29594 -8.03617 -3.30842 -8.14093 -3.28879L-8.20049 -3.27648C-10.7619 -2.38162 -12.91 -0.585071 -14.2437 1.77769C-15.5774 4.14045 -16.0055 6.90787 -15.4481 9.56319C-11.6105 28.1257 6.61449 40.1061 25.177 36.2685C27.836 35.7272 30.2071 34.2364 31.8472 32.0746C33.4874 29.9128 34.2845 27.2278 34.0897 24.5212Z" fill="#2E6F40"/>
</svg>
